<svg width="20" height="20" viewBox="0 0 20 20" fill="none" xmlns="http://www.w3.org/2000/svg">
<path d="M19.1668 14.6768V17.4268C19.1678 17.682 19.1156 17.9347 19.0133 18.1687C18.911 18.4026 18.761 18.6125 18.5729 18.7851C18.3848 18.9577 18.1627 19.0891 17.9208 19.1709C17.679 19.2527 17.4227 19.2831 17.1685 19.2601C14.3477 18.9536 11.6382 17.9897 9.25764 16.4459C7.04282 15.0385 5.16503 13.1607 3.75764 10.9459C2.20846 8.55453 1.24436 5.83183 0.943475 2.99842C0.920568 2.74493 0.950694 2.48945 1.03193 2.24824C1.11317 2.00704 1.24375 1.78539 1.41534 1.59741C1.58694 1.40943 1.7958 1.25924 2.02862 1.1564C2.26144 1.05356 2.51312 1.00033 2.76764 1.00009H5.51764C5.96251 0.99571 6.39379 1.15324 6.73109 1.44333C7.0684 1.73341 7.28871 2.13625 7.35098 2.57676C7.46705 3.45682 7.68231 4.32092 7.99264 5.15259C8.11597 5.48069 8.14267 5.83726 8.06956 6.18006C7.99645 6.52286 7.8266 6.83752 7.58014 7.08676L6.41598 8.25092C7.7209 10.5458 9.62106 12.446 11.916 13.7509L13.0801 12.5868C13.3294 12.3403 13.644 12.1705 13.9868 12.0973C14.3296 12.0242 14.6862 12.0509 15.0143 12.1743C15.846 12.4846 16.7101 12.6999 17.5901 12.8159C18.0354 12.8787 18.4421 13.103 18.7328 13.4461C19.0235 13.7892 19.178 14.2272 19.1668 14.6768Z" stroke="#C19771" stroke-linecap="round" stroke-linejoin="round"/>
</svg>
