<svg width="19" height="14" viewBox="0 0 19 14" fill="none" xmlns="http://www.w3.org/2000/svg">
<path d="M18.7 8.60005C18.6 8.20005 18.4 7.90012 18.1 7.80012C17.8 7.60012 17.4 7.60012 17 7.80012C16.6 8.00012 16.1 8.10012 15.7 8.30012C15.1 8.50012 14.6 8.7001 14 8.9001C13.9 8.9001 13.7 9.0001 13.5 8.9001C12.4 8.5001 11.4 8.10005 10.3 7.60005C9.09999 7.10005 7.79998 6.60005 6.59998 6.10005C6.39998 6.00005 6.10002 6.10005 5.90002 6.10005C5.50002 6.30005 5.10001 6.40005 4.70001 6.60005C4.60001 6.60005 4.50002 6.70012 4.40002 6.80012C4.40002 6.60012 4.29999 6.5001 4.29999 6.4001C4.09999 6.2001 3.89998 6.20002 3.59998 6.20002C2.49998 6.20002 1.5 6.20002 0.5 6.20002C0.3 6.20002 0.199976 6.20012 0.0999756 6.30012C-2.44156e-05 6.40012 0 6.50002 0 6.70002C0 8.70002 0 10.5 0 12.2C0 12.4 -2.44156e-05 12.5 0.0999756 12.6C0.199976 12.7 0.399976 12.7 0.599976 12.7C0.799976 12.7 1.09999 12.7 1.29999 12.7C1.59999 12.7 1.99999 12.7 2.29999 12.7C2.39999 12.7 2.60001 12.6001 2.70001 12.5001L2.79999 12.4001L3 12.3001L2.79999 12.2L2.70001 12.1C2.60001 12 2.49999 11.9001 2.29999 11.9001C1.89999 11.9001 1.60001 11.9001 1.20001 11.9001H0.900024C0.800024 11.9001 0.800012 11.9001 0.700012 11.9001V11.8001C0.700012 11.2001 0.700012 10.6001 0.700012 10.0001C0.700012 9.00007 0.700012 8.10005 0.700012 7.10005C0.700012 7.10005 0.799988 7.0001 0.799988 6.9001C1.59999 6.9001 2.29998 6.9001 3.09998 6.9001H3.70001V9.80012C3.70001 10.6001 3.70001 11.4 3.70001 12.2C3.70001 12.3 3.80002 12.4001 3.90002 12.5001L4 12.6L4.09998 12.7L4.29999 12.5001C4.39999 12.4001 4.4 12.3 4.5 12.2C4.5 12.1 4.5 12.1001 4.5 12.0001C4.5 11.8001 4.49998 11.6 4.59998 11.6C4.69998 11.6 4.9 11.6 5 11.6C5.1 11.6 5.19999 11.7 5.29999 11.7L6.70001 12.2C8.00001 12.7 9.3 13.1 10.5 13.6C10.7 13.7 10.8 13.7 11 13.7C11.2 13.7 11.4 13.6001 11.6 13.5001C11.9 13.3001 12.2 13.2001 12.4 13.0001C12.5 12.9001 12.7 12.9001 12.8 12.8001L14.1 12.0001C15.4 11.2001 16.8 10.4 18.1 9.70002C18.5 9.60002 18.8 9.20005 18.7 8.60005ZM13.4 10.0001C13.4 10.2001 13.3 10.4001 12.8 10.4001H12.7C11.3 10.6001 9.80001 10.3001 8.20001 9.50007H8.09998C7.99998 9.40007 7.90001 9.4001 7.70001 9.4001C7.60001 9.4001 7.29999 9.50005 7.29999 9.60005C7.19999 9.80005 7.40002 10 7.40002 10.1C7.50002 10.2 7.60001 10.2 7.70001 10.2C7.70001 10.2 7.69999 10.2 7.79999 10.2C7.89999 10.2 7.99998 10.3001 8.09998 10.3001C8.29998 10.4001 8.50001 10.4001 8.70001 10.5001C10.1 11.2001 11.5 11.2 12.9 11.2C13.4 11.2 13.7 11.0001 14 10.8001C14.2 10.6001 14.3 10.2 14.3 9.70002L15.3 9.30012C16 9.00012 16.8 8.80007 17.5 8.50007C17.8 8.40007 17.9 8.50002 18 8.70002C18.1 8.80002 18.1 9.00002 17.8 9.20002C16.5 9.90002 15.2 10.7001 14 11.4001L13.4 11.7C12.7 12.1 11.9 12.6001 11.2 13.0001C11.1 13.1001 10.9 13.1001 10.7 13.0001C9.90001 12.7001 9.00001 12.4 8.20001 12.1C7.40001 11.8 6.60001 11.5 5.70001 11.2C5.40001 11.1 5.00001 11.1001 4.70001 11.0001C4.50001 11.0001 4.40002 11 4.40002 10.7C4.40002 10.2 4.40002 9.80012 4.40002 9.30012C4.40002 8.80012 4.40002 8.30012 4.40002 7.80012C4.40002 7.70012 4.49998 7.60007 4.59998 7.50007C5.19998 7.10007 5.80002 6.9001 6.40002 6.9001C6.90002 6.9001 7.49998 7.00012 8.09998 7.30012C9.19998 7.80012 10.3 8.20005 11.4 8.60005C11.9 8.80005 12.4 9.00002 13 9.20002C13.3 9.60002 13.4 9.70007 13.4 10.0001Z" fill="#C19771"/>
<path d="M13.4999 7.10004C14.4999 7.10004 15.2999 6.70004 15.9999 6.10004C16.6999 5.40004 17.0999 4.50004 17.0999 3.60004C17.0999 2.60004 16.6999 1.70006 15.9999 1.00006C15.2999 0.300061 14.3999 6.10352e-05 13.4999 6.10352e-05C11.4999 6.10352e-05 9.8999 1.60004 9.8999 3.60004C9.8999 5.50004 11.4999 7.10004 13.4999 7.10004ZM10.6999 3.50006C10.6999 2.00006 11.9999 0.700012 13.4999 0.700012C14.9999 0.700012 16.1999 2.00006 16.1999 3.50006C16.1999 4.20006 15.8999 4.90006 15.3999 5.50006C14.8999 6.00006 14.1999 6.30011 13.3999 6.30011C12.6999 6.30011 11.9999 6.00006 11.3999 5.50006C10.9999 5.00006 10.6999 4.30006 10.6999 3.50006Z" fill="#C19771"/>
</svg>
