<svg width="49" height="48" viewBox="0 0 49 48" fill="none" xmlns="http://www.w3.org/2000/svg">
<path d="M47.6002 1H1.2002V47H47.6002V1Z" stroke="#C19771" stroke-width="1.3393" stroke-miterlimit="10"/>
<path d="M1.20013 17.8H11.7001C11.7001 17.8 14.5001 18 15.7001 20.7C16.9001 23.4 18.5001 27.5 18.5001 27.5L19.9001 28.5C19.9001 28.5 21.6001 29.7 21.6001 32.5C21.6001 35.3 21.6001 40.8 21.6001 40.8H1.1001V17.8H1.20013Z" stroke="#C19771" stroke-width="1.3393" stroke-miterlimit="10"/>
<path d="M18.5002 27.5H1.2002" stroke="#C19771" stroke-width="1.3393" stroke-miterlimit="10"/>
<path d="M15.1 36.8C16.5359 36.8 17.7 35.636 17.7 34.2C17.7 32.7641 16.5359 31.6 15.1 31.6C13.664 31.6 12.5 32.7641 12.5 34.2C12.5 35.636 13.664 36.8 15.1 36.8Z" stroke="#C19771" stroke-width="1.3393" stroke-miterlimit="10"/>
<path d="M17.3 24.5H21.9001C22.9001 24.5 23.7001 25.3 23.7001 26.3V27.7C23.7001 28.7 22.9001 29.5 21.9001 29.5H20.7001" stroke="#C19771" stroke-width="1.3393" stroke-miterlimit="10"/>
<path d="M9.50018 31.9H1.2002V36.8H9.50018C10.1002 36.8 10.7002 36.3 10.7002 35.6V33C10.6002 32.4 10.1002 31.9 9.50018 31.9Z" stroke="#C19771" stroke-width="1.3393" stroke-miterlimit="10"/>
<path d="M15.1001 40.9V45.2C15.1001 45.8 15.6001 46.4 16.3001 46.4H20.6001C21.2001 46.4 21.8001 45.9 21.8001 45.2V40.9H15.1001Z" stroke="#C19771" stroke-width="1.3393" stroke-miterlimit="10"/>
<path d="M47.6 17.8H43.7001C43.7001 17.8 40.9001 18 39.7001 20.7C38.5001 23.4 36.9001 27.5 36.9001 27.5L35.5001 28.5C35.5001 28.5 33.8 29.7 33.8 32.5C33.8 35.3 33.8 40.8 33.8 40.8H47.7001V17.8H47.6Z" stroke="#C19771" stroke-width="1.3393" stroke-miterlimit="10"/>
<path d="M36.9001 27.5H47.6001" stroke="#C19771" stroke-width="1.3393" stroke-miterlimit="10"/>
<path d="M40.3002 36.8C41.7361 36.8 42.9002 35.636 42.9002 34.2C42.9002 32.7641 41.7361 31.6 40.3002 31.6C38.8642 31.6 37.7002 32.7641 37.7002 34.2C37.7002 35.636 38.8642 36.8 40.3002 36.8Z" stroke="#C19771" stroke-width="1.3393" stroke-miterlimit="10"/>
<path d="M38.0001 24.5H33.4001C32.4001 24.5 31.6001 25.3 31.6001 26.3V27.7C31.6001 28.7 32.4001 29.5 33.4001 29.5H34.6001" stroke="#C19771" stroke-width="1.3393" stroke-miterlimit="10"/>
<path d="M45.9002 31.9H47.6002V36.8H45.9002C45.3002 36.8 44.7002 36.3 44.7002 35.6V33C44.7002 32.4 45.2002 31.9 45.9002 31.9Z" stroke="#C19771" stroke-width="1.3393" stroke-miterlimit="10"/>
<path d="M40.3001 40.9V45.2C40.3001 45.8 39.8001 46.4 39.1001 46.4H34.8001C34.2001 46.4 33.6001 45.9 33.6001 45.2V40.9H40.3001Z" stroke="#C19771" stroke-width="1.3393" stroke-miterlimit="10"/>
</svg>
