<svg width="12" height="12" viewBox="0 0 12 12" fill="none" xmlns="http://www.w3.org/2000/svg">
<path d="M5.20007 1.50001C7.30007 1.50001 9.00006 3.20001 9.00006 5.30001C9.00006 7.40001 7.30007 9.10001 5.20007 9.10001C3.10007 9.10001 1.40009 7.40001 1.40009 5.30001C1.40009 3.20001 3.10007 1.50001 5.20007 1.50001ZM5.20007 10.3C6.30007 10.3 7.40005 9.90001 8.30005 9.20001L11.0001 11.9L11.9001 11L9.20007 8.30001C9.90007 7.40001 10.3 6.30001 10.3 5.20001C10.3 2.40001 8.10005 0.200012 5.30005 0.200012C2.50005 0.200012 0.300049 2.40001 0.300049 5.20001C0.300049 8.00001 2.40007 10.3 5.20007 10.3Z" fill="#6B7A8C"/>
</svg>
