<svg width="83" height="83" viewBox="0 0 83 83" fill="none" xmlns="http://www.w3.org/2000/svg">
<path d="M41.1 82.2C63.7989 82.2 82.2 63.7989 82.2 41.1C82.2 18.4011 63.7989 0 41.1 0C18.4011 0 0 18.4011 0 41.1C0 63.7989 18.4011 82.2 41.1 82.2Z" fill="white"/>
<path d="M48.4 49.8L44.7 46.1L41.8 49H40.5L37.6 46.1L33.5 50.2L36.4 53.2L40.3 49.3H41.6L45.2 53L48.4 49.8Z" fill="url(#paint0_linear)"/>
<path d="M47.0002 29.6L41.8002 34.8H40.4002L35.2002 29.6L25.7002 39.1L33.8002 47.2L36.7002 44.3V41.4H35.7002L35.0002 41.1L31.9002 38.1L32.6002 36.5H34.7002L35.4002 36.8L38.3002 39.6L38.5002 40.3V43.8H43.8002V40.3L44.0002 39.6L46.9002 36.8L47.6002 36.5H49.7002L50.4002 38.1L47.3002 41.1L46.7002 41.4H45.6002V44.4L48.3002 47.1L56.4002 39L47.0002 29.6Z" fill="url(#paint1_linear)"/>
<path d="M42.5 45.7H39.8L41.2 47L42.5 45.7Z" fill="url(#paint2_linear)"/>
<path d="M26.8002 23.3H23.2002V26.9H26.8002V23.3Z" fill="url(#paint3_linear)"/>
<path d="M34.5 27.6H35.8L41 32.8L46.2 27.6H47.5L50.3 30.4L53.3 27.4V22.6L40.9 10.2L28.5 22.6V27.4L31.5 30.4L34.5 27.6ZM36.5 20.9L40.4 17H41.7L45.6 20.9V22.2L41.7 26.1H40.4L36.5 22.2V20.9Z" fill="url(#paint4_linear)"/>
<path d="M59.0002 23.3H55.4001V26.9H59.0002V23.3Z" fill="url(#paint5_linear)"/>
<path d="M43.7 21.6L41.1 19L38.5 21.6L41.1 24.2L43.7 21.6Z" fill="url(#paint6_linear)"/>
<path d="M38.6001 53.7L41.1001 56.2L43.4001 53.8L40.9001 51.3L38.6001 53.7Z" fill="url(#paint7_linear)"/>
<path d="M49.7002 48.4L54.8002 53.6H59.5002L65.3002 47.8L57.8002 40.3L49.7002 48.4Z" fill="url(#paint8_linear)"/>
<path d="M54.8 28.8L51.8 31.7L66.6001 46.5L72 41.1L59.6001 28.8H54.8Z" fill="url(#paint9_linear)"/>
<path d="M27.4 28.8H22.6001L10.3 41.1L15.6001 46.5L30.4 31.7L27.4 28.8Z" fill="url(#paint10_linear)"/>
<path d="M45.9002 55H44.9002L41.7002 58.2H40.4002L37.2002 55L37.1002 55.1H35.8002L32.1002 51.5L28.7002 54.9V59.6L37.2002 68.1L40.4002 64.9H41.8002L45.0002 68.1L53.5002 59.6V54.9L49.7002 51.1L45.9002 55Z" fill="url(#paint11_linear)"/>
<path d="M41.8001 8.3L54.9001 21.4H60.0001L60.9001 22.3V27.4L74.0001 40.5V41.8L60.6001 55.2L59.9001 55.5H55.4001V60L55.1001 60.7L41.8001 74H40.5001L27.2001 60.7L26.9001 60V55.5H22.4001L21.7001 55.2L8.30009 41.8V40.5L21.4001 27.4V22.3L22.3001 21.4H27.4001L40.5001 8.3H41.8001ZM42.1001 7.5H41.8001H40.5001H40.2001L40.0001 7.7L27.0001 20.6H22.2001H21.9001L21.7001 20.8L20.8001 21.7L20.6001 21.9V22.2V27L7.80009 39.8L7.6001 40V40.3V41.6V41.9L7.80009 42.1L21.2001 55.5L21.3001 55.6L21.4001 55.7L22.1001 56L22.2001 56.1H22.4001H26.1001V59.8V60L26.2001 60.1L26.5001 60.8L26.6001 60.9L26.7001 61L40.0001 74.3L40.2001 74.5H40.5001H41.8001H42.1001L42.3001 74.3L55.6001 61L55.7001 60.9L55.8001 60.8L56.1001 60.1L56.2001 60V59.8V56.1H59.9001H60.1001L60.2001 56L60.9001 55.7L61.0001 55.6L61.1001 55.5L74.5001 42.1L74.7001 41.9V41.6V40.5V40.2L74.5001 40L61.7001 27.2V22.4V22.1L61.5001 21.9L60.6001 21L60.4001 20.8H60.1001H55.3001L42.5001 8L42.1001 7.5Z" fill="url(#paint12_linear)"/>
<path d="M24.4001 40.4L16.9001 47.8L22.7001 53.6H27.4001L32.5002 48.5L24.4001 40.4Z" fill="url(#paint13_linear)"/>
<path d="M38.5 69.4L41.1 72L43.7 69.4L41.1 66.8L38.5 69.4Z" fill="url(#paint14_linear)"/>
<defs>
<linearGradient id="paint0_linear" x1="20.0725" y1="16.169" x2="55.0869" y2="72.9782" gradientUnits="userSpaceOnUse">
<stop stop-color="#DD9245"/>
<stop offset="1" stop-color="#754C24"/>
</linearGradient>
<linearGradient id="paint1_linear" x1="25.0645" y1="13.0923" x2="60.0789" y2="69.9015" gradientUnits="userSpaceOnUse">
<stop stop-color="#DD9245"/>
<stop offset="1" stop-color="#754C24"/>
</linearGradient>
<linearGradient id="paint2_linear" x1="22.1688" y1="14.8769" x2="57.1834" y2="71.6862" gradientUnits="userSpaceOnUse">
<stop stop-color="#DD9245"/>
<stop offset="1" stop-color="#754C24"/>
</linearGradient>
<linearGradient id="paint3_linear" x1="19.6956" y1="16.4014" x2="54.71" y2="73.2106" gradientUnits="userSpaceOnUse">
<stop stop-color="#DD9245"/>
<stop offset="1" stop-color="#754C24"/>
</linearGradient>
<linearGradient id="paint4_linear" x1="31.348" y1="9.21931" x2="66.3625" y2="66.0285" gradientUnits="userSpaceOnUse">
<stop stop-color="#DD9245"/>
<stop offset="1" stop-color="#754C24"/>
</linearGradient>
<linearGradient id="paint5_linear" x1="42.9845" y1="2.0472" x2="77.999" y2="58.8564" gradientUnits="userSpaceOnUse">
<stop stop-color="#DD9245"/>
<stop offset="1" stop-color="#754C24"/>
</linearGradient>
<linearGradient id="paint6_linear" x1="32.8871" y1="8.27071" x2="67.9016" y2="65.0799" gradientUnits="userSpaceOnUse">
<stop stop-color="#DD9245"/>
<stop offset="1" stop-color="#754C24"/>
</linearGradient>
<linearGradient id="paint7_linear" x1="18.4487" y1="17.1699" x2="53.4632" y2="73.979" gradientUnits="userSpaceOnUse">
<stop stop-color="#DD9245"/>
<stop offset="1" stop-color="#754C24"/>
</linearGradient>
<linearGradient id="paint8_linear" x1="32.8957" y1="8.26548" x2="67.9101" y2="65.0747" gradientUnits="userSpaceOnUse">
<stop stop-color="#DD9245"/>
<stop offset="1" stop-color="#754C24"/>
</linearGradient>
<linearGradient id="paint9_linear" x1="41.3241" y1="3.07049" x2="76.3386" y2="59.8797" gradientUnits="userSpaceOnUse">
<stop stop-color="#DD9245"/>
<stop offset="1" stop-color="#754C24"/>
</linearGradient>
<linearGradient id="paint10_linear" x1="11.1989" y1="21.6383" x2="46.2133" y2="78.4475" gradientUnits="userSpaceOnUse">
<stop stop-color="#DD9245"/>
<stop offset="1" stop-color="#754C24"/>
</linearGradient>
<linearGradient id="paint11_linear" x1="16.9644" y1="18.0848" x2="51.9789" y2="74.894" gradientUnits="userSpaceOnUse">
<stop stop-color="#DD9245"/>
<stop offset="1" stop-color="#754C24"/>
</linearGradient>
<linearGradient id="paint12_linear" x1="24.163" y1="13.6479" x2="59.1774" y2="70.4571" gradientUnits="userSpaceOnUse">
<stop stop-color="#DD9245"/>
<stop offset="1" stop-color="#754C24"/>
</linearGradient>
<linearGradient id="paint13_linear" x1="9.13315" y1="22.9116" x2="44.1477" y2="79.7207" gradientUnits="userSpaceOnUse">
<stop stop-color="#DD9245"/>
<stop offset="1" stop-color="#754C24"/>
</linearGradient>
<linearGradient id="paint14_linear" x1="11.5331" y1="21.4323" x2="46.5476" y2="78.2414" gradientUnits="userSpaceOnUse">
<stop stop-color="#DD9245"/>
<stop offset="1" stop-color="#754C24"/>
</linearGradient>
</defs>
</svg>
