<svg width="13" height="21" viewBox="0 0 13 21" fill="none" xmlns="http://www.w3.org/2000/svg">
<path d="M7.49991 10.8001C7.49991 14.0001 7.49991 17.2001 7.49991 20.3001C7.49991 20.9001 7.29992 21.1001 6.69992 20.8001C4.79992 20.1001 2.8999 19.4 0.899902 18.7C0.499902 18.6 0.399902 18.4 0.399902 18C0.399902 13.1 0.399902 8.30007 0.399902 3.40007C0.399902 3.00007 0.499902 2.79999 0.899902 2.69999C2.8999 1.99999 4.79992 1.30002 6.69992 0.600017C7.19992 0.400017 7.3999 0.600017 7.3999 1.10002C7.4999 4.40002 7.49991 7.60009 7.49991 10.8001ZM6.7999 1.50004C6.6999 1.50004 6.69991 1.50002 6.59991 1.60002C4.89991 2.20002 3.29991 2.80007 1.59991 3.40007C1.39991 3.50007 1.29991 3.60009 1.29991 3.80009C1.29991 8.40009 1.29991 13 1.29991 17.7C1.29991 17.9 1.39991 18 1.59991 18.1C2.59991 18.4 3.59991 18.8 4.49991 19.2C5.19991 19.5 5.99992 19.7 6.69992 20C6.79992 13.8 6.7999 7.70004 6.7999 1.50004Z" fill="#C19771"/>
<path d="M12.1999 3.60004C11.5999 3.60004 9.09985 3.60004 8.59985 3.60004C8.29985 3.60004 8.09985 3.40001 8.09985 3.20001C8.09985 3.00001 8.19985 2.80011 8.49985 2.80011C9.19985 2.80011 11.8999 2.80011 12.5999 2.80011C12.8999 2.80011 12.9998 2.90001 12.9998 3.20001C12.9998 3.30001 12.9998 3.50004 12.9998 3.60004C12.9998 8.40004 12.9998 13.1001 12.9998 17.9001C12.9998 18.0001 12.9998 18.1 12.9998 18.2C12.9998 18.5 12.7999 18.6 12.5999 18.6C11.8999 18.6 9.19985 18.6 8.49985 18.6C8.29985 18.6 8.09985 18.5 8.09985 18.2C8.09985 17.9 8.29985 17.8001 8.49985 17.8001C8.99985 17.8001 11.3998 17.8001 11.8998 17.8001C12.1998 17.8001 12.1999 17.7001 12.1999 17.5001C12.1999 16.8001 12.1999 16.1001 12.1999 15.4001C12.1999 11.6001 12.1999 7.80004 12.1999 4.10004C12.1999 3.90004 12.1999 3.80004 12.1999 3.60004Z" fill="#C19771"/>
<path d="M6.19995 11.4001C6.19995 11.7001 5.99995 12.0001 5.69995 12.0001C5.39995 12.0001 5.19995 11.7001 5.19995 11.4001C5.19995 11.1001 5.39995 10.8001 5.69995 10.8001C5.99995 10.8001 6.19995 11.0001 6.19995 11.4001Z" fill="#C19771"/>
</svg>
