<svg width="20" height="20" viewBox="0 0 20 20" fill="none" xmlns="http://www.w3.org/2000/svg">
<path d="M1.69995 8V1H0.699951V8H1.69995ZM8.19995 7.5H1.19995V8.5H8.19995V7.5ZM7.69995 1V8H8.69995V1H7.69995ZM1.19995 1.5H8.19995V0.5H1.19995V1.5ZM1.19995 8H0.699951C0.699951 8.3 0.899947 8.5 1.19995 8.5V8ZM8.19995 8V8.5C8.49995 8.5 8.69995 8.3 8.69995 8H8.19995ZM8.19995 1H8.69995C8.69995 0.7 8.49995 0.5 8.19995 0.5V1ZM1.19995 1V0.5C0.899947 0.5 0.699951 0.7 0.699951 1H1.19995Z" fill="#C19771"/>
<path d="M12.7 8V1H11.7V8H12.7ZM19.2 7.5H12.2V8.5H19.2V7.5ZM18.7 1V8H19.7V1H18.7ZM12.2 1.5H19.2V0.5H12.2V1.5ZM12.2 8H11.7C11.7 8.3 11.9 8.5 12.2 8.5V8ZM19.2 8V8.5C19.5 8.5 19.7 8.3 19.7 8H19.2ZM19.2 1H19.7C19.7 0.7 19.5 0.5 19.2 0.5V1ZM12.2 1V0.5C11.9 0.5 11.7 0.7 11.7 1H12.2Z" fill="#C19771"/>
<path d="M12.7 19V12H11.7V19H12.7ZM19.2 18.5H12.2V19.5H19.2V18.5ZM18.7 12V19H19.7V12H18.7ZM12.2 12.5H19.2V11.5H12.2V12.5ZM12.2 19H11.7C11.7 19.3 11.9 19.5 12.2 19.5V19ZM19.2 19V19.5C19.5 19.5 19.7 19.3 19.7 19H19.2ZM19.2 12H19.7C19.7 11.7 19.5 11.5 19.2 11.5V12ZM12.2 12V11.5C11.9 11.5 11.7 11.7 11.7 12H12.2Z" fill="#C19771"/>
<path d="M1.69995 19V12H0.699951V19H1.69995ZM8.19995 18.5H1.19995V19.5H8.19995V18.5ZM7.69995 12V19H8.69995V12H7.69995ZM1.19995 12.5H8.19995V11.5H1.19995V12.5ZM1.19995 19H0.699951C0.699951 19.3 0.899947 19.5 1.19995 19.5V19ZM8.19995 19V19.5C8.49995 19.5 8.69995 19.3 8.69995 19H8.19995ZM8.19995 12H8.69995C8.69995 11.7 8.49995 11.5 8.19995 11.5V12ZM1.19995 12V11.5C0.899947 11.5 0.699951 11.7 0.699951 12H1.19995Z" fill="#C19771"/>
</svg>
