<svg width="14" height="18" viewBox="0 0 14 18" fill="none" xmlns="http://www.w3.org/2000/svg">
<path d="M3.7999 9.20001H8.1999C9.5999 9.20001 10.6999 8.90001 11.3999 8.20001C12.0999 7.50001 12.4999 6.59999 12.4999 5.39999C12.4999 4.19999 12.0999 3.30001 11.3999 2.60001C10.6999 1.90001 9.5999 1.5 8.2999 1.5H3.7999V9.20001ZM3.7999 10.4V17.3H2.3999V0.200012H8.1999C9.9999 0.200012 11.3999 0.700006 12.3999 1.60001C13.3999 2.50001 13.8999 3.79999 13.8999 5.29999C13.8999 6.89999 13.3999 8.1 12.3999 9C11.3999 9.9 9.9999 10.3 8.0999 10.3H3.7999V10.4Z" fill="#C19771"/>
<path d="M12.2 13.4H0.199951V14.4H12.2V13.4Z" fill="#C19771"/>
</svg>
