<svg width="22" height="22" viewBox="0 0 22 22" fill="none" xmlns="http://www.w3.org/2000/svg">
<path d="M11.1999 1.60001C16.3999 1.60001 20.6999 5.90001 20.6999 11.1H21.6999C21.6999 5.30001 16.9999 0.600006 11.1999 0.600006V1.60001ZM1.69995 11.1C1.69995 5.90001 5.99995 1.60001 11.1999 1.60001V0.600006C5.39995 0.600006 0.699951 5.30001 0.699951 11.1H1.69995ZM11.1999 20.6C5.99995 20.6 1.69995 16.3 1.69995 11.1H0.699951C0.699951 16.9 5.39995 21.6 11.1999 21.6V20.6ZM20.6999 11.1C20.6999 16.3 16.3999 20.6 11.1999 20.6V21.6C16.9999 21.6 21.6999 16.9 21.6999 11.1H20.6999Z" fill="#C19771"/>
<path d="M11.2 5.60001C14.2 5.60001 16.7 8.10001 16.7 11.1H17.7C17.7 7.50001 14.8 4.60001 11.2 4.60001V5.60001ZM5.69995 11.1C5.69995 8.10001 8.19995 5.60001 11.2 5.60001V4.60001C7.59995 4.60001 4.69995 7.50001 4.69995 11.1H5.69995ZM11.2 16.6C8.19995 16.6 5.69995 14.1 5.69995 11.1H4.69995C4.69995 14.7 7.59995 17.6 11.2 17.6V16.6ZM16.7 11.1C16.7 14.1 14.2 16.6 11.2 16.6V17.6C14.8 17.6 17.7 14.7 17.7 11.1H16.7Z" fill="#C19771"/>
<path d="M11.2 9.60001C12 9.60001 12.7 10.3 12.7 11.1H13.7C13.7 9.70001 12.6 8.60001 11.2 8.60001V9.60001ZM9.69995 11.1C9.69995 10.3 10.4 9.60001 11.2 9.60001V8.60001C9.79995 8.60001 8.69995 9.70001 8.69995 11.1H9.69995ZM11.2 12.6C10.4 12.6 9.69995 11.9 9.69995 11.1H8.69995C8.69995 12.5 9.79995 13.6 11.2 13.6V12.6ZM12.7 11.1C12.7 11.9 12 12.6 11.2 12.6V13.6C12.6 13.6 13.7 12.5 13.7 11.1H12.7Z" fill="#C19771"/>
</svg>
