<svg width="22" height="22" viewBox="0 0 22 22" fill="none" xmlns="http://www.w3.org/2000/svg">
<path d="M11.1999 1.20001C16.3999 1.20001 20.6999 5.50001 20.6999 10.7H21.6999C21.6999 4.90001 16.9999 0.200012 11.1999 0.200012V1.20001ZM1.69995 10.7C1.69995 5.50001 5.99995 1.20001 11.1999 1.20001V0.200012C5.39995 0.200012 0.699951 4.90001 0.699951 10.7H1.69995ZM11.1999 20.2C5.99995 20.2 1.69995 15.9 1.69995 10.7H0.699951C0.699951 16.5 5.39995 21.2 11.1999 21.2V20.2ZM20.6999 10.7C20.6999 15.9 16.3999 20.2 11.1999 20.2V21.2C16.9999 21.2 21.6999 16.5 21.6999 10.7H20.6999Z" fill="#C19771"/>
<path d="M13.7 8.70001C13.7 9.40001 13.1 10.1 12.4 10.5C12.1 10.7 11.7 10.9 11.4 11C11.3 11.1 11.2 11.1 11.1 11.1H11C11 11.1 11 11.1 11.2 11.6C11.4 12.1 11.4 12.1 11.4 12.1H11.5C11.6 12.1 11.7 12 11.9 11.9C12.2 11.8 12.6 11.6 13 11.3C13.8 10.8 14.7 9.89998 14.7 8.59998H13.7V8.70001ZM13.1 7.09998C13.5 7.59998 13.7 8.10001 13.7 8.70001H14.7C14.7 7.90001 14.4 7.10003 13.9 6.40003L13.1 7.09998ZM11.6 6.20001C12.2 6.30001 12.7 6.59998 13.1 7.09998L13.9 6.5C13.4 5.9 12.6001 5.39999 11.8001 5.29999L11.6 6.20001ZM9.90005 6.5C10.4 6.2 11 6.10001 11.6 6.20001L11.8001 5.20001C11.0001 5.10001 10.1 5.19998 9.40005 5.59998L9.90005 6.5ZM8.80005 7.90003C9.00005 7.30003 9.40005 6.89998 9.90005 6.59998L9.40005 5.70001C8.70005 6.10001 8.10005 6.79998 7.90005 7.59998L8.80005 7.90003ZM11 11.2C10.7 11.3 10.6 11.6 10.7 11.8C10.8 12 11.1001 12.2 11.3001 12.1L11 11.2ZM14.2 8.70001H13.7H14.2ZM7.90005 7.5C7.80005 7.8 7.90004 7.99998 8.20004 8.09998C8.50004 8.19998 8.70005 8.09999 8.80005 7.79999L7.90005 7.5Z" fill="#C19771"/>
<path d="M11.2 16.2V15.2V16.2ZM11.3 16.2C11.6 16.2 11.8 16 11.8 15.7C11.8 15.4 11.6 15.2 11.3 15.2V16.2ZM11.2 15.2C10.9 15.2 10.7 15.4 10.7 15.7C10.7 16 10.9 16.2 11.2 16.2V15.2Z" fill="#C19771"/>
</svg>
