<svg width="18" height="16" viewBox="0 0 18 16" fill="none" xmlns="http://www.w3.org/2000/svg">
<path d="M17.25 0C17.455 0 17.63 0.0761904 17.775 0.228571C17.925 0.375873 18 0.553651 18 0.761905V15.2381C18 15.4463 17.925 15.6241 17.775 15.7714C17.63 15.9238 17.455 16 17.25 16H5.25C5.045 16 4.87 15.9238 4.725 15.7714C4.575 15.6241 4.5 15.4463 4.5 15.2381V12.5714H0.75C0.545 12.5714 0.37 12.4952 0.225 12.3429C0.075 12.1956 0 12.0178 0 11.8095V4.19048C0 3.98222 0.075 3.80444 0.225 3.65714C0.365 3.50476 0.54 3.42857 0.75 3.42857H4.5V0.761905C4.5 0.553651 4.575 0.375873 4.725 0.228571C4.87 0.0761904 5.045 0 5.25 0H17.25ZM4.5 8.97524L5.565 11.0019H7.17L5.385 8.05333L7.14 5.1581H5.595L4.62 6.98667L4.5825 7.04762L4.5525 7.11619L4.0725 6.14095L3.5775 5.1581H1.9425L3.645 8.06857L1.785 11.0019H3.405L4.5 8.97524ZM10.6875 14.8571V12.5714H5.625V14.8571H10.6875ZM10.6875 11.4286V8.57143H9V11.4286H10.6875ZM10.6875 7.42857V4.57143H9V7.42857H10.6875ZM10.6875 3.42857V1.14286H5.625V3.42857H10.6875ZM16.875 14.8571V12.5714H11.8125V14.8571H16.875ZM16.875 11.4286V8.57143H11.8125V11.4286H16.875ZM16.875 7.42857V4.57143H11.8125V7.42857H16.875ZM16.875 3.42857V1.14286H11.8125V3.42857H16.875Z" fill="#C19771"/>
</svg>
