<svg width="52" height="49" viewBox="0 0 52 49" fill="none" xmlns="http://www.w3.org/2000/svg">
<path d="M35.8 5.5H1.80005V9.20001H35.8V5.5Z" stroke="#C19771" stroke-width="1.3393" stroke-miterlimit="10"/>
<path d="M30.2001 1.29999H26.1001V5.40002H30.2001V1.29999Z" stroke="#C19771" stroke-width="1.3393" stroke-miterlimit="10"/>
<path d="M32.7001 9.09998H4.80005V43.5H32.7001V9.09998Z" stroke="#C19771" stroke-width="1.3393" stroke-miterlimit="10"/>
<path d="M32.7668 47.2853H46.9668V19.3853H32.7668V47.2853Z" stroke="#C19771" stroke-width="1.3393" stroke-miterlimit="10"/>
<path d="M32.8021 19.4965L50.1021 19.4965V16.4965L32.8021 16.4965V19.4965Z" stroke="#C19771" stroke-width="1.3393" stroke-miterlimit="10"/>
<path d="M32.7001 43.5H4.80005V47.3H32.7001V43.5Z" stroke="#C19771" stroke-width="1.3393" stroke-miterlimit="10"/>
<path d="M14.6001 12.6H8.20007V17H14.6001V12.6Z" stroke="#C19771" stroke-width="1.3393" stroke-miterlimit="10"/>
<path d="M24.3001 12.6H17.9001V17H24.3001V12.6Z" stroke="#C19771" stroke-width="1.3393" stroke-miterlimit="10"/>
<path d="M14.6001 19.5H8.20007V23.9H14.6001V19.5Z" stroke="#C19771" stroke-width="1.3393" stroke-miterlimit="10"/>
<path d="M24.3001 19.5H17.9001V23.9H24.3001V19.5Z" stroke="#C19771" stroke-width="1.3393" stroke-miterlimit="10"/>
<path d="M14.6001 26.3H8.20007V30.7H14.6001V26.3Z" stroke="#C19771" stroke-width="1.3393" stroke-miterlimit="10"/>
<path d="M24.3001 26.3H17.9001V30.7H24.3001V26.3Z" stroke="#C19771" stroke-width="1.3393" stroke-miterlimit="10"/>
<path d="M14.6001 33.2H8.20007V37.6H14.6001V33.2Z" stroke="#C19771" stroke-width="1.3393" stroke-miterlimit="10"/>
<path d="M24.3001 33.2H17.9001V37.6H24.3001V33.2Z" stroke="#C19771" stroke-width="1.3393" stroke-miterlimit="10"/>
<path d="M0.100098 47.3H52.0001" stroke="#C19771" stroke-width="1.3393" stroke-miterlimit="10"/>
<path d="M43.1001 23.1H36.7001V27.5H43.1001V23.1Z" stroke="#C19771" stroke-width="1.3393" stroke-miterlimit="10"/>
<path d="M43.1001 29.9H36.7001V34.3H43.1001V29.9Z" stroke="#C19771" stroke-width="1.3393" stroke-miterlimit="10"/>
<path d="M43.1001 36.8H36.7001V47.4H43.1001V36.8Z" stroke="#C19771" stroke-width="1.3393" stroke-miterlimit="10"/>
</svg>
