<svg width="33" height="33" viewBox="0 0 33 33" fill="none" xmlns="http://www.w3.org/2000/svg">
<path d="M16.5 32.2C25.3366 32.2 32.5 25.0366 32.5 16.2C32.5 7.36346 25.3366 0.200012 16.5 0.200012C7.66344 0.200012 0.5 7.36346 0.5 16.2C0.5 25.0366 7.66344 32.2 16.5 32.2Z" fill="#C19771"/>
<path d="M16.1001 5.20001C17.8001 5.20001 19.3001 5.80001 20.6001 6.90001C21.2001 7.50001 21.8001 8.00001 22.6001 8.40001C23.9001 9.20001 24.4001 10.5 24.2001 11.9C23.9001 14.5 23.5001 17 23.0001 19.5C22.6001 21.5 21.2001 22.7 19.6001 23.8C18.8001 24.4 17.8001 24.8 16.9001 25.1C16.6001 25.2 16.1001 25.2 15.8001 25.1C12.7001 24.1 10.7001 22 9.70005 18.9C8.90005 16.4 8.7001 13.7 9.0001 11.1C9.3001 8.10001 11.1001 6.20001 14.3001 5.40001C14.9001 5.30001 15.5001 5.30001 16.1001 5.20001ZM21.3001 20C21.3001 19.9 21.4001 19.8 21.4001 19.7C21.8001 17.8 22.2001 16 22.6001 14.1C22.7001 13.7 22.8001 13.2 22.6001 12.9C21.6001 10.6 19.6001 9.30001 17.0001 10.8C15.5001 11.6 14.0001 12.3 12.3001 12.6C11.9001 12.7 11.4001 12.9 11.0001 13.1C10.5001 13.3 10.2001 13.6 10.4001 14.2C10.5001 14.5 10.5001 14.9 10.5001 15.2C10.7001 16.8 11.0001 18.5 11.8001 20.1C12.1001 19.7 12.4001 19.4 12.6001 19.1C13.7001 17.5 15.6001 16.7 17.5001 17.1C18.7001 17.4 19.6001 18.2 20.3001 19.3C20.5001 19.7 20.8001 20 21.3001 20ZM18.7001 19.3C17.3001 19.3 15.9001 19.3 14.6001 19.3C14.5001 19.3 14.4001 19.3 14.3001 19.4C14.5001 20.2 15.2001 20.6 16.5001 20.6C17.8001 20.6 18.5001 20.2 18.7001 19.3Z" fill="white"/>
<path d="M11.7002 24.6C12.9002 25.6 14.3003 26.4 15.9003 26.8C16.2003 26.9 16.5002 26.9 16.7002 26.8C18.3002 26.4 19.8002 25.6 21.0002 24.6C21.5002 25.1 22.1002 25.5 22.6002 25.9C19.4002 30.4 13.4003 30.2 10.3003 25.9C10.8003 25.4 11.2002 25 11.7002 24.6Z" fill="white"/>
</svg>
