<svg width="78" height="78" viewBox="0 0 78 78" fill="none" xmlns="http://www.w3.org/2000/svg">
<path d="M21.5998 36.2H36.0998V21.7C36.0998 21.3 36.3998 20.9 36.8998 20.9H41.4998C41.8998 20.9 42.2998 21.2 42.2998 21.7V36.2H56.7999C57.1999 36.2 57.5998 36.5 57.5998 37V41.6C57.5998 42 57.2999 42.4 56.7999 42.4H42.2998V56.9C42.2998 57.3 41.9998 57.7 41.4998 57.7H36.8998C36.4998 57.7 36.0998 57.4 36.0998 56.9V42.4H21.5998C21.1998 42.4 20.7998 42.1 20.7998 41.6V37C20.7998 36.5 21.0998 36.2 21.5998 36.2Z" fill="#CDD7E3"/>
<path d="M70.5999 7.79999H7.79987V70.6H70.5999V7.79999ZM74.3999 77.5H3.99988C2.29988 77.5 0.899902 76.1 0.899902 74.4V4C0.899902 2.3 2.29988 0.900024 3.99988 0.900024H74.3999C76.0999 0.900024 77.4999 2.3 77.4999 4V74.4C77.3999 76.1 76.0999 77.5 74.3999 77.5Z" fill="#CDD7E3"/>
</svg>
