<svg width="22" height="22" viewBox="0 0 22 22" fill="none" xmlns="http://www.w3.org/2000/svg">
<path d="M21.5 5.80002L11.5 0.800018L11.0999 1.70001L21.0999 6.70001L21.5 5.80002ZM11.5 11.7L21.5 6.70001L21.0999 5.80002L11.0999 10.8L11.5 11.7ZM0.99995 6.70001L11 11.7L11.4 10.8L1.39995 5.80002L0.99995 6.70001ZM11 0.800018L0.99995 5.80002L1.39995 6.70001L11.4 1.70001L11 0.800018ZM21.1999 6.30002L21.4 6.70001C21.6 6.60001 21.6999 6.40002 21.6999 6.30002C21.6999 6.10002 21.6 5.90001 21.4 5.90001L21.1999 6.30002ZM11.1999 11.3L11 11.7C11.1 11.8 11.3 11.8 11.4 11.7L11.1999 11.3ZM1.19995 6.30002L0.99995 5.90001C0.79995 6.00001 0.699951 6.20002 0.699951 6.30002C0.699951 6.50002 0.79995 6.70001 0.99995 6.70001L1.19995 6.30002ZM11.1999 1.30002L11.4 0.900009C11.3 0.800009 11.1 0.800009 11 0.900009L11.1999 1.30002Z" fill="#C19771"/>
<path d="M11.5 21.7L21.5 16.7L21.1 15.8L11.1 20.8L11.5 21.7ZM0.999973 16.7L11 21.7L11.4 20.8L1.39997 15.8L0.999973 16.7ZM21.5 16.7C21.7 16.6 21.8 16.3 21.7 16C21.6 15.8 21.3 15.7 21 15.8L21.5 16.7ZM11.2 21.3L11 21.7C11.1 21.8 11.3 21.8 11.4 21.7L11.2 21.3ZM1.49997 15.8C1.29997 15.7 0.999973 15.8 0.799973 16C0.699973 16.2 0.799973 16.5 0.999973 16.7L1.49997 15.8Z" fill="#C19771"/>
<path d="M11.5 16.7L21.5 11.7L21.1 10.8L11.1 15.8L11.5 16.7ZM0.999973 11.7L11 16.7L11.4 15.8L1.39997 10.8L0.999973 11.7ZM21.5 11.7C21.7 11.6 21.8 11.3 21.7 11C21.6 10.8 21.3 10.7 21 10.8L21.5 11.7ZM11.2 16.3L11 16.7C11.1 16.8 11.3 16.8 11.4 16.7L11.2 16.3ZM1.49997 10.8C1.29997 10.7 0.999973 10.8 0.799973 11C0.699973 11.2 0.799973 11.5 0.999973 11.7L1.49997 10.8Z" fill="#C19771"/>
</svg>
