<svg width="18" height="18" viewBox="0 0 18 18" fill="none" xmlns="http://www.w3.org/2000/svg">
<path d="M4.86426 8.29504H8.27157V4.88773C8.27157 4.79373 8.34208 4.69974 8.45957 4.69974H9.5405C9.6345 4.69974 9.72849 4.77023 9.72849 4.88773V8.29504H13.1358C13.2298 8.29504 13.3238 8.36553 13.3238 8.48303V9.56396C13.3238 9.65795 13.2533 9.75196 13.1358 9.75196H9.72849V13.1593C9.72849 13.2533 9.658 13.3473 9.5405 13.3473H8.45957C8.36557 13.3473 8.27157 13.2768 8.27157 13.1593V9.75196H4.86426C4.77026 9.75196 4.67627 9.68145 4.67627 9.56396V8.48303C4.67627 8.36553 4.74676 8.29504 4.86426 8.29504Z" fill="#CDD7E3"/>
<path d="M16.3786 1.6214H1.6214V16.3786H16.3786V1.6214ZM17.2715 18H0.728454C0.328976 18 0 17.671 0 17.2715V0.728454C0 0.328976 0.328976 0 0.728454 0H17.2715C17.671 0 18 0.328976 18 0.728454V17.2715C17.9765 17.671 17.671 18 17.2715 18Z" fill="#CDD7E3"/>
</svg>
