<svg width="24" height="14" viewBox="0 0 24 14" fill="none" xmlns="http://www.w3.org/2000/svg">
<path d="M8.4 5.60001L0.9 13.1L1.6 13.8L9.1 6.29999L8.4 5.60001ZM14.1 10.6L9.1 5.60001L8.4 6.29999L13.4 11.3L14.1 10.6ZM22.9 1.10001L13.4 10.6L14.1 11.3L23.6 1.79999L22.9 1.10001ZM0.9 13.1C0.7 13.3 0.7 13.6 0.9 13.8C1.1 14 1.4 14 1.6 13.8L0.9 13.1ZM8.7 5.9L9.1 5.50001C8.9 5.30001 8.6 5.30001 8.4 5.50001L8.7 5.9ZM13.7 10.9L13.3 11.3C13.5 11.5 13.8 11.5 14 11.3L13.7 10.9ZM23.6 1.79999C23.8 1.59999 23.8 1.30001 23.6 1.10001C23.4 0.900012 23.1 0.900012 22.9 1.10001L23.6 1.79999Z" fill="#C19771"/>
<path d="M22.7 1.39999V7.39999H23.7V1.39999H22.7ZM17.2 1.89999H23.2V0.899994H17.2V1.89999ZM22.7 7.39999C22.7 7.69999 22.9 7.89999 23.2 7.89999C23.5 7.89999 23.7 7.69999 23.7 7.39999H22.7ZM23.2 1.39999H23.7C23.7 1.09999 23.5 0.899994 23.2 0.899994V1.39999ZM17.2 0.899994C16.9 0.899994 16.7 1.09999 16.7 1.39999C16.7 1.69999 16.9 1.89999 17.2 1.89999V0.899994Z" fill="#C19771"/>
</svg>
