<svg width="16" height="15" viewBox="0 0 16 15" fill="none" xmlns="http://www.w3.org/2000/svg">
<path d="M4.5999 6.9H7.39995V4.1C7.39995 4 7.49992 4 7.49992 4H8.39995C8.49995 4 8.49992 4.1 8.49992 4.1V6.9H11.2999C11.3999 6.9 11.3999 7 11.3999 7V7.9C11.3999 8 11.2999 8 11.2999 8H8.49992V10.8C8.49992 10.9 8.39995 10.9 8.39995 10.9H7.49992C7.39992 10.9 7.39995 10.8 7.39995 10.8V8H4.5999C4.4999 8 4.49992 7.9 4.49992 7.9V7C4.39992 7 4.4999 6.9 4.5999 6.9Z" fill="#6B7A8C"/>
<path d="M14.1 1.40001H1.90002V13.6H14.1V1.40001ZM14.8 14.9H1.09998C0.799976 14.9 0.5 14.6 0.5 14.3V0.700008C0.5 0.400008 0.799976 0.100006 1.09998 0.100006H14.8C15.1 0.100006 15.4 0.400008 15.4 0.700008V14.4C15.4 14.7 15.1 14.9 14.8 14.9Z" fill="#6B7A8C"/>
</svg>
