<svg width="24" height="24" viewBox="0 0 24 24" fill="none" xmlns="http://www.w3.org/2000/svg">
<path d="M12.2 9.5C13.6 9.5 14.7 10.6 14.7 12H15.7C15.7 10.1 14.1 8.5 12.2 8.5V9.5ZM9.69995 12C9.69995 10.6 10.8 9.5 12.2 9.5V8.5C10.3 8.5 8.69995 10.1 8.69995 12H9.69995ZM12.2 14.5C10.8 14.5 9.69995 13.4 9.69995 12H8.69995C8.69995 13.9 10.3 15.5 12.2 15.5V14.5ZM14.7 12C14.7 13.4 13.6 14.5 12.2 14.5V15.5C14.1 15.5 15.7 13.9 15.7 12H14.7Z" fill="#C19771"/>
<path d="M20 13.8C19.7 14 19.3999 14.4 19.1999 14.7L20.0999 15.1C20.1999 14.9 20.2999 14.7 20.5 14.6L20 13.8ZM21.1999 13.5C20.7999 13.5 20.4 13.6 20 13.9L20.5999 14.7C20.7999 14.6 20.9999 14.5 21.1999 14.5V13.5ZM21.1999 13.5L21.0999 14.5H21.1999V13.5ZM22.3 13C22 13.3 21.5999 13.4 21.1999 13.4V14.4C21.8999 14.4 22.5 14.1 23 13.7L22.3 13ZM22.6999 12C22.6999 12.4 22.5 12.8 22.3 13.1L23 13.8C23.5 13.3 23.6999 12.7 23.6999 12H22.6999ZM22.3 10.9C22.6 11.2 22.6999 11.6 22.6999 12H23.6999C23.6999 11.3 23.4 10.7 23 10.2L22.3 10.9ZM21.1999 10.5C21.5999 10.5 22 10.7 22.3 10.9L23 10.2C22.5 9.70001 21.8999 9.5 21.1999 9.5V10.5ZM21.0999 10.5H21.3V9.5H21.0999V10.5ZM19.9 10.1C20.2 10.3 20.6999 10.5 21.0999 10.5V9.5C20.8999 9.5 20.7 9.39999 20.5 9.29999L19.9 10.1ZM19.0999 9.20001C19.2999 9.60001 19.5 9.89998 19.9 10.1L20.5 9.29999C20.2999 9.19999 20.1999 8.99999 20.0999 8.79999L19.0999 9.20001ZM19.0999 8.90002L20.0999 9V8.90002H19.0999ZM19 7.79999C18.9 8.19999 18.9999 8.69998 19.0999 9.09998L20 8.70001C19.9 8.50001 19.9 8.3 19.9 8L19 7.79999ZM19.5 6.70001C19.2 7.00001 19 7.39999 18.9 7.79999L19.9 8C19.9 7.8 19.9999 7.60002 20.1999 7.40002L19.5 6.70001ZM19.5999 6.70001L20.1999 7.5L20.3 7.40002L19.5999 6.70001ZM19.9 6.20001C19.8 6.40001 19.6999 6.50001 19.5999 6.70001L20.3 7.40002C20.5 7.20002 20.7 6.89998 20.8 6.59998L19.9 6.20001ZM20 5.59998C20 5.79998 20 6.00001 19.9 6.20001L20.8 6.59998C20.9 6.29998 21 5.99998 21 5.59998H20ZM19.9 5C20 5.2 20 5.39998 20 5.59998H21C21 5.29998 20.9 4.89998 20.8 4.59998L19.9 5ZM19.5999 4.5C19.6999 4.6 19.9 4.8 19.9 5L20.8 4.59998C20.7 4.29998 20.5 3.99999 20.3 3.79999L19.5999 4.5ZM19.0999 4.20001C19.2999 4.30001 19.3999 4.4 19.5999 4.5L20.3 3.79999C20.1 3.59999 19.7999 3.39999 19.5 3.29999L19.0999 4.20001ZM18.5 4.09998C18.7 4.09998 18.8999 4.10001 19.0999 4.20001L19.5 3.29999C19.2 3.19999 18.9 3.09998 18.5 3.09998V4.09998ZM18 4.20001C18.2 4.10001 18.3999 4.09998 18.5999 4.09998V3.09998C18.2999 3.09998 17.8999 3.19999 17.5999 3.29999L18 4.20001ZM17.5 4.5C17.6 4.4 17.7999 4.20001 18 4.20001L17.5999 3.29999C17.2999 3.39999 17 3.59999 16.8 3.79999L17.5 4.5ZM17.4 4.59998L16.8 3.79999L16.6999 3.90002L17.4 4.59998ZM16.3 5.20001C16.7 5.10001 17.1 4.89998 17.4 4.59998L16.6999 3.90002C16.4999 4.10002 16.2999 4.20001 16.0999 4.20001L16.3 5.20001ZM15 5C15.4 5.2 15.8 5.19998 16.3 5.09998L16.0999 4.09998C15.8999 4.09998 15.6 4.1 15.4 4L15 5ZM14.0999 4.20001C14.2999 4.50001 14.7 4.8 15 5L15.4 4.09998C15.2 3.99998 15 3.90001 14.9 3.70001L14.0999 4.20001ZM13.6999 3.09998C13.6999 3.49998 13.7999 3.89999 14.0999 4.29999L14.9 3.70001C14.8 3.50001 14.6999 3.29998 14.6999 3.09998H13.6999ZM13.6999 3L14.6999 3.09998V3H13.6999ZM13.3 1.90002C13.6 2.20002 13.6999 2.6 13.6999 3H14.6999C14.6999 2.3 14.4 1.70001 14 1.20001L13.3 1.90002ZM12.1999 1.5C12.5999 1.5 13 1.70002 13.3 1.90002L14 1.20001C13.5 0.700012 12.8999 0.5 12.1999 0.5V1.5ZM11.1999 1.90002C11.4999 1.60002 11.9 1.5 12.3 1.5V0.5C11.6 0.5 11 0.800012 10.5 1.20001L11.1999 1.90002ZM10.6999 3C10.6999 2.6 10.8999 2.20002 11.0999 1.90002L10.4 1.20001C9.89995 1.70001 9.69995 2.3 9.69995 3H10.6999ZM10.6999 3.09998V3H9.69995V3.20001H10.6999V3.09998ZM10.4 4.29999C10.6 3.99999 10.8 3.49998 10.8 3.09998H9.79995C9.79995 3.29998 9.69995 3.50001 9.59995 3.70001L10.4 4.29999ZM9.39995 5.09998C9.79995 4.89998 10.1 4.69999 10.3 4.29999L9.49995 3.70001C9.39995 3.90001 9.19995 3.99998 8.99995 4.09998L9.39995 5.09998ZM9.19995 5.20001L9.29995 4.20001H9.19995V5.20001ZM8.09995 5.29999C8.49995 5.39999 8.99995 5.30001 9.39995 5.20001L8.99995 4.29999C8.79995 4.39999 8.59995 4.40002 8.29995 4.40002L8.09995 5.29999ZM6.99995 4.70001C7.29995 5.00001 7.69995 5.19999 8.09995 5.29999L8.29995 4.29999C8.09995 4.29999 7.89995 4.2 7.69995 4L6.99995 4.70001ZM6.89995 4.59998L7.69995 4L7.59995 3.90002L6.89995 4.59998ZM6.39995 4.29999C6.59995 4.39999 6.69995 4.49998 6.89995 4.59998L7.59995 3.90002C7.39995 3.70002 7.09995 3.50002 6.79995 3.40002L6.39995 4.29999ZM5.89995 4.20001C6.09995 4.20001 6.29995 4.19999 6.49995 4.29999L6.89995 3.40002C6.59995 3.30002 6.29995 3.20001 5.89995 3.20001V4.20001ZM5.29995 4.29999C5.49995 4.19999 5.69995 4.20001 5.89995 4.20001V3.20001C5.59995 3.20001 5.19995 3.30002 4.89995 3.40002L5.29995 4.29999ZM4.79995 4.59998C4.89995 4.49998 5.09995 4.29999 5.29995 4.29999L4.89995 3.40002C4.59995 3.50002 4.29995 3.70002 4.09995 3.90002L4.79995 4.59998ZM4.49995 5.09998C4.59995 4.89998 4.69995 4.79998 4.79995 4.59998L4.09995 3.90002C3.89995 4.10002 3.69995 4.40001 3.59995 4.70001L4.49995 5.09998ZM4.39995 5.70001C4.39995 5.50001 4.39995 5.29998 4.49995 5.09998L3.59995 4.70001C3.49995 5.00001 3.39995 5.30001 3.39995 5.70001H4.39995ZM4.49995 6.29999C4.39995 6.09999 4.39995 5.90001 4.39995 5.70001H3.39995C3.39995 6.00001 3.49995 6.40001 3.59995 6.70001L4.49995 6.29999ZM4.79995 6.70001C4.69995 6.60001 4.49995 6.40001 4.49995 6.20001L3.59995 6.59998C3.69995 6.89998 3.89995 7.20002 4.09995 7.40002L4.79995 6.70001ZM4.89995 6.79999L4.09995 7.40002L4.19995 7.5L4.89995 6.79999ZM5.39995 7.90002C5.29995 7.50002 5.09995 7.09999 4.79995 6.79999L4.09995 7.5C4.29995 7.7 4.39995 7.89998 4.39995 8.09998L5.39995 7.90002ZM5.29995 9.20001C5.49995 8.80001 5.49995 8.40002 5.39995 7.90002L4.39995 8.09998C4.39995 8.29998 4.39995 8.59999 4.29995 8.79999L5.29995 9.20001ZM4.49995 10.2C4.89995 9.90001 5.09995 9.60001 5.29995 9.20001L4.39995 8.90002C4.29995 9.10002 4.19995 9.30002 3.99995 9.40002L4.49995 10.2ZM3.29995 10.6C3.69995 10.6 4.09995 10.5 4.49995 10.2L3.89995 9.40002C3.69995 9.50002 3.49995 9.59998 3.29995 9.59998V10.6ZM3.19995 10.6L3.29995 9.59998H3.19995V10.6ZM2.19995 11C2.49995 10.7 2.89995 10.6 3.29995 10.6V9.59998C2.59995 9.59998 1.99995 9.89999 1.49995 10.3L2.19995 11ZM1.69995 12.1C1.69995 11.7 1.89995 11.3 2.09995 11L1.39995 10.3C0.899952 10.8 0.699951 11.4 0.699951 12.1H1.69995ZM2.19995 13.1C1.89995 12.8 1.79995 12.4 1.79995 12H0.79995C0.79995 12.7 1.09995 13.3 1.49995 13.8L2.19995 13.1ZM3.19995 13.6C2.79995 13.6 2.39995 13.4 2.09995 13.2L1.39995 13.9C1.89995 14.4 2.49995 14.6 3.19995 14.6V13.6ZM3.39995 13.6H3.19995V14.6H3.39995V13.6ZM4.59995 13.9C4.29995 13.7 3.79995 13.5 3.39995 13.5V14.5C3.59995 14.5 3.79995 14.6 3.99995 14.7L4.59995 13.9ZM5.39995 14.9C5.19995 14.5 4.99995 14.2 4.59995 14L3.99995 14.8C4.19995 14.9 4.29995 15.1 4.39995 15.3L5.39995 14.9ZM5.49995 16.1C5.59995 15.7 5.49995 15.2 5.39995 14.8L4.49995 15.2C4.59995 15.4 4.59995 15.6 4.59995 15.9L5.49995 16.1ZM4.99995 17.2C5.29995 16.9 5.49995 16.5 5.59995 16.1L4.59995 15.9C4.59995 16.1 4.49995 16.3 4.29995 16.5L4.99995 17.2ZM4.89995 17.3L4.29995 16.5L4.19995 16.6L4.89995 17.3ZM4.59995 17.8C4.69995 17.6 4.79995 17.5 4.89995 17.3L4.19995 16.6C3.99995 16.8 3.79995 17.1 3.69995 17.4L4.59995 17.8ZM4.39995 18.3C4.39995 18.1 4.39995 17.9 4.49995 17.7L3.59995 17.3C3.49995 17.6 3.39995 17.9 3.39995 18.3H4.39995ZM4.59995 18.9C4.49995 18.7 4.49995 18.5 4.49995 18.3H3.49995C3.49995 18.6 3.59995 19 3.69995 19.3L4.59995 18.9ZM4.89995 19.4C4.79995 19.3 4.59995 19.1 4.59995 18.9L3.69995 19.3C3.79995 19.6 3.99995 19.9 4.19995 20.1L4.89995 19.4ZM5.39995 19.7C5.19995 19.6 5.09995 19.5 4.89995 19.4L4.19995 20.1C4.39995 20.3 4.69995 20.5 4.99995 20.6L5.39995 19.7ZM5.89995 19.8C5.69995 19.8 5.49995 19.8 5.29995 19.7L4.89995 20.6C5.19995 20.7 5.49995 20.8 5.89995 20.8V19.8ZM6.49995 19.7C6.29995 19.8 6.09995 19.8 5.89995 19.8V20.8C6.19995 20.8 6.59995 20.7 6.89995 20.6L6.49995 19.7ZM6.99995 19.4C6.89995 19.5 6.69995 19.7 6.49995 19.7L6.89995 20.6C7.19995 20.5 7.49995 20.3 7.69995 20.1L6.99995 19.4ZM7.09995 19.3L7.69995 20.1L7.79995 20L7.09995 19.3ZM8.19995 18.8C7.79995 18.9 7.39995 19.1 7.09995 19.4L7.79995 20.1C7.99995 19.9 8.19995 19.8 8.39995 19.8L8.19995 18.8ZM9.39995 18.9C8.99995 18.7 8.59995 18.7 8.09995 18.8L8.29995 19.8C8.49995 19.8 8.79995 19.8 8.99995 19.9L9.39995 18.9ZM10.4 19.7C10.1 19.3 9.79995 19.1 9.39995 18.9L9.09995 19.8C9.29995 19.9 9.49995 20 9.59995 20.2L10.4 19.7ZM10.8 20.9C10.8 20.5 10.7 20.1 10.4 19.7L9.59995 20.3C9.69995 20.5 9.79995 20.7 9.79995 20.9H10.8ZM10.8 21L9.79995 20.9V21H10.8ZM11.3 22C11 21.7 10.9 21.3 10.9 20.9H9.89995C9.89995 21.6 10.1999 22.2 10.5999 22.7L11.3 22ZM12.3 22.5C11.9 22.5 11.4999 22.3 11.1999 22.1L10.5 22.8C11 23.3 11.6 23.5 12.3 23.5V22.5ZM13.4 22C13.1 22.3 12.7 22.4 12.3 22.4V23.4C13 23.4 13.5999 23.1 14.0999 22.7L13.4 22ZM13.8 21C13.8 21.4 13.6 21.8 13.4 22.1L14.0999 22.8C14.5999 22.3 14.8 21.7 14.8 21H13.8ZM13.8 20.8V21H14.8V20.8H13.8ZM14.1999 19.6C13.9999 19.9 13.8 20.4 13.8 20.8H14.8C14.8 20.6 14.9 20.4 15 20.2L14.1999 19.6ZM15.0999 18.8C14.6999 19 14.3999 19.2 14.1999 19.6L15 20.2C15.1 20 15.3 19.9 15.5 19.8L15.0999 18.8ZM16.4 18.7C16 18.6 15.4999 18.7 15.0999 18.8L15.5 19.7C15.7 19.6 15.8999 19.6 16.1999 19.6L16.4 18.7ZM17.5 19.3C17.2 19 16.8 18.8 16.4 18.7L16.1999 19.7C16.3999 19.7 16.6 19.8 16.8 20L17.5 19.3ZM17.5999 19.3L16.8 19.9L16.9 20L17.5999 19.3ZM18 19.7C17.7999 19.6 17.7 19.5 17.5 19.4L16.8 20.1C17 20.3 17.2999 20.5 17.5999 20.6L18 19.7ZM18.5999 19.8C18.3999 19.8 18.2 19.8 18 19.7L17.5999 20.6C17.8999 20.7 18.1999 20.8 18.5999 20.8V19.8ZM19.1999 19.7C18.9999 19.8 18.7999 19.8 18.5999 19.8V20.8C18.8999 20.8 19.2999 20.7 19.5999 20.6L19.1999 19.7ZM19.6999 19.3C19.5999 19.4 19.3999 19.6 19.1999 19.6L19.5999 20.5C19.8999 20.4 20.2 20.2 20.4 20L19.6999 19.3ZM20 18.8C19.9 19 19.7999 19.1 19.6999 19.3L20.4 20C20.6 19.8 20.8 19.5 20.9 19.2L20 18.8ZM20.0999 18.3C20.0999 18.5 20.1 18.7 20 18.9L20.9 19.3C21 19 21.0999 18.7 21.0999 18.3H20.0999ZM20 17.7C20.1 17.9 20.0999 18.1 20.0999 18.3H21.0999C21.0999 18 21 17.6 20.9 17.3L20 17.7ZM19.6999 17.2C19.7999 17.3 20 17.5 20 17.7L20.9 17.3C20.8 17 20.6 16.7 20.4 16.5L19.6999 17.2ZM19.5999 17.1L20.4 16.5L20.3 16.4L19.5999 17.1ZM19 16C19.1 16.4 19.2999 16.8 19.5999 17.1L20.3 16.4C20.1 16.2 20 16 20 15.8L19 16ZM19.1999 14.8C18.9999 15.2 18.9999 15.6 19.0999 16.1L20.0999 15.9C20.0999 15.7 20.0999 15.4 20.1999 15.2L19.1999 14.8ZM21.1999 14V13.5V14ZM21.0999 10V10.5V10ZM19.5999 9H19.0999C19.0999 9.1 19.0999 9.10001 19.0999 9.20001L19.5999 9ZM19.5999 8.90002H20.0999C20.0999 8.80002 20.0999 8.80001 20.0999 8.70001L19.5999 8.90002ZM19.9 7.09998L19.5 6.70001L19.9 7.09998ZM20 7L19.5999 6.59998L20 7ZM20 4.20001L19.5999 4.59998L20 4.20001ZM18.5 3.59998V4.09998V3.59998ZM17.0999 4.20001L17.5 4.59998L17.0999 4.20001ZM17.0999 4.20001L17.4 4.59998L17.0999 4.20001ZM15.1999 4.59998L15.4 4.09998L15.1999 4.59998ZM14.1999 3.09998H13.6999H14.1999ZM12.1999 1V0.5V1ZM10.1999 3.09998H10.6999H10.1999ZM9.19995 4.70001V5.20001C9.29995 5.20001 9.29995 5.20001 9.39995 5.20001L9.19995 4.70001ZM9.19995 4.70001V4.20001C9.09995 4.20001 9.09995 4.20001 8.99995 4.20001L9.19995 4.70001ZM7.29995 4.29999L6.89995 4.70001L7.29995 4.29999ZM7.29995 4.29999L6.89995 4.70001L7.29995 4.29999ZM4.49995 4.29999L4.89995 4.70001L4.49995 4.29999ZM4.49995 7.09998L4.89995 6.70001L4.49995 7.09998ZM4.49995 7.20001L4.89995 6.90002L4.49995 7.20001ZM4.79995 9L4.29995 8.79999L4.79995 9ZM3.29995 10.1V10.6V10.1ZM3.19995 10.1V10.6V10.1ZM1.19995 12.1H0.699951H1.19995ZM3.39995 14.1V13.6V14.1ZM4.89995 15.1L4.39995 15.3L4.89995 15.1ZM4.59995 16.9L4.99995 17.3L4.59995 16.9ZM4.49995 16.9L4.89995 17.3L4.49995 16.9ZM3.89995 18.3H4.39995H3.89995ZM4.49995 19.8L4.89995 19.4L4.49995 19.8ZM7.39995 19.8L6.99995 19.4L7.39995 19.8ZM7.39995 19.7L7.09995 19.3L7.39995 19.7ZM9.19995 19.4L8.99995 19.9L9.19995 19.4ZM10.3 20.9H10.8H10.3ZM14.3 20.8H13.8H14.3ZM15.3 19.3L15.5 19.8L15.3 19.3ZM17.0999 19.6L17.5 19.2L17.0999 19.6ZM17.1999 19.7L17.5999 19.3L17.1999 19.7ZM20 19.7L19.5999 19.3L20 19.7ZM20 16.9L19.5999 17.3L20 16.9ZM20 16.8L19.5999 17.1L20 16.8Z" fill="#C19771"/>
</svg>
