<svg width="103" height="74" viewBox="0 0 103 74" fill="none" xmlns="http://www.w3.org/2000/svg">
<path d="M50.9999 20.2L50.7999 20C50.0999 19.3 48.9999 19.3 48.2999 20C47.5999 20.7 47.5999 21.8 48.2999 22.5L48.4999 22.7C48.9999 22.4 49.4999 22 49.8999 21.6C50.2999 21.2 50.6999 20.7 50.9999 20.2Z" fill="#C19771"/>
<path d="M52.9 24.6C47.5 30 38.7 30 33.3 24.6C27.9 19.2 27.9 10.4 33.3 5.00001C38.7 -0.399988 47.5 -0.399988 52.9 5.00001C58.3 10.4 58.3 19.2 52.9 24.6ZM35.6 7.30001C31.5 11.4 31.5 18.1 35.6 22.2C39.7 26.3 46.4 26.3 50.5 22.2C54.6 18.1 54.6 11.4 50.5 7.30001C46.4 3.20001 39.7 3.20001 35.6 7.30001Z" fill="#C19771"/>
<path d="M65.1 33.4L61.8001 36.7C61.5001 37 60.9 37 60.6 36.7L60.4 36.5C60.1 36.2 60.1 35.6 60.4 35.3L63.7 32C64 31.7 64.6 31.7 64.9 32L65.1 32.2C65.4 32.5 65.4 33 65.1 33.4Z" fill="#C19771"/>
<path d="M71.8 40L68.5 43.3C68.2 43.6 67.6 43.6 67.3 43.3L67.1 43.1C66.8 42.8 66.8 42.2 67.1 41.9L70.4 38.6C70.7 38.3 71.3 38.3 71.6 38.6L71.8 38.8C72.1 39.2 72.1 39.7 71.8 40Z" fill="#C19771"/>
<path d="M54.8551 23.8885L52.3096 26.4341L60.2998 34.4243L62.8454 31.8788L54.8551 23.8885Z" fill="#C19771"/>
<path d="M65.1305 34.1378L62.585 36.6833L66.969 41.0673L69.5145 38.5218L65.1305 34.1378Z" fill="#C19771"/>
<path d="M70.9 33.6L71.7 34.4L71 35L70.2 34.2L69.4 35L68.7 34.4L69.5 33.6L68.7 32.8L69.4 32.1L70.2 32.9L71.5 31.6L69.7 29.8L65.8 33.7L70.1 37.9L73.9 34.1L72.1 32.3L70.9 33.6Z" fill="#C19771"/>
<path d="M34.4 6.1C33.2 7.3 31.4 7.3 30.2 6.1C29 4.9 29 3.1 30.2 1.9C31.4 0.7 33.2 0.7 34.4 1.9C35.5 3.1 35.5 4.9 34.4 6.1ZM31.3 3.1C30.8 3.6 30.8 4.4 31.3 4.9C31.8 5.4 32.6 5.4 33.1 4.9C33.6 4.4 33.6 3.6 33.1 3.1C32.7 2.6 31.9 2.6 31.3 3.1Z" fill="#C19771"/>
<path d="M5.55478 57.7231C5.55478 58.786 5.6977 59.7417 5.98352 60.5903C6.26935 61.4299 6.67576 62.1445 7.20275 62.734C7.73867 63.3146 8.38178 63.7612 9.13208 64.0738C9.8913 64.3864 10.7443 64.5427 11.6911 64.5427C12.6379 64.5427 13.4865 64.3864 14.2368 64.0738C14.996 63.7612 15.6391 63.3146 16.1661 62.734C16.6931 62.1445 17.0995 61.4299 17.3853 60.5903C17.6711 59.7417 17.814 58.786 17.814 57.7231C17.814 56.6602 17.6711 55.7089 17.3853 54.8693C17.0995 54.0207 16.6931 53.3017 16.1661 52.7122C15.6391 52.1227 14.996 51.6716 14.2368 51.359C13.4865 51.0464 12.6379 50.8901 11.6911 50.8901C10.7443 50.8901 9.8913 51.0464 9.13208 51.359C8.38178 51.6716 7.73867 52.1227 7.20275 52.7122C6.67576 53.3017 6.26935 54.0207 5.98352 54.8693C5.6977 55.7089 5.55478 56.6602 5.55478 57.7231ZM22.5034 71.2016H19.529C19.1003 71.2016 18.7117 71.1435 18.3634 71.0274C18.0239 70.9113 17.7113 70.6969 17.4255 70.3843L14.5851 67.2491C14.1296 67.3742 13.6606 67.468 13.1783 67.5305C12.7049 67.593 12.2092 67.6243 11.6911 67.6243C10.2263 67.6243 8.89091 67.3786 7.68508 66.8874C6.47925 66.3872 5.44313 65.695 4.57672 64.8107C3.71924 63.9264 3.05381 62.8814 2.58041 61.6755C2.10701 60.4608 1.87031 59.1433 1.87031 57.7231C1.87031 56.3029 2.10701 54.9899 2.58041 53.784C3.05381 52.5693 3.71924 51.5198 4.57672 50.6355C5.44313 49.7512 6.47925 49.0634 7.68508 48.5722C8.89091 48.072 10.2263 47.8219 11.6911 47.8219C12.6736 47.8219 13.5981 47.938 14.4645 48.1702C15.3309 48.3935 16.1259 48.7151 16.8494 49.1349C17.5729 49.5458 18.2205 50.0504 18.7921 50.6489C19.3727 51.2384 19.864 51.8994 20.2659 52.6318C20.6678 53.3642 20.9715 54.1592 21.177 55.0167C21.3913 55.8741 21.4985 56.7763 21.4985 57.7231C21.4985 58.5895 21.4092 59.4202 21.2306 60.2151C21.0519 61.0012 20.7929 61.738 20.4535 62.4258C20.123 63.1136 19.7166 63.7478 19.2342 64.3283C18.7519 64.9 18.2026 65.4047 17.5863 65.8423L22.5034 71.2016ZM35.7884 53.6635V67.4099H33.7653C33.3277 67.4099 33.0508 67.2089 32.9346 66.807L32.7069 65.7084C32.1442 66.28 31.5234 66.7445 30.8445 67.1018C30.1657 67.4501 29.3663 67.6243 28.4463 67.6243C27.696 67.6243 27.0305 67.4992 26.45 67.2491C25.8783 66.9901 25.396 66.6284 25.003 66.1639C24.61 65.6994 24.3107 65.1501 24.1053 64.5159C23.9088 63.8728 23.8105 63.1672 23.8105 62.399V53.6635H27.1199V62.399C27.1199 63.2386 27.3119 63.8907 27.696 64.3551C28.089 64.8107 28.674 65.0384 29.4511 65.0384C30.0228 65.0384 30.5587 64.9134 31.0589 64.6633C31.5591 64.4043 32.0325 64.0515 32.4791 63.6049V53.6635H35.7884ZM46.3315 61.5415C45.3758 61.5862 44.5719 61.6711 43.9198 61.7961C43.2678 61.9122 42.7453 62.0641 42.3522 62.2516C41.9592 62.4392 41.6779 62.6581 41.5082 62.9082C41.3385 63.1582 41.2536 63.4307 41.2536 63.7254C41.2536 64.306 41.4233 64.7214 41.7627 64.9715C42.1111 65.2216 42.5621 65.3466 43.1159 65.3466C43.7948 65.3466 44.3798 65.226 44.8711 64.9849C45.3713 64.7348 45.8581 64.3596 46.3315 63.8594V61.5415ZM38.7482 55.5794C40.3291 54.1324 42.2317 53.4089 44.4557 53.4089C45.2596 53.4089 45.9787 53.5429 46.6128 53.8108C47.247 54.0699 47.7829 54.4361 48.2206 54.9095C48.6583 55.374 48.9888 55.9322 49.2121 56.5842C49.4443 57.2363 49.5604 57.9509 49.5604 58.7279V67.4099H48.0598C47.7472 67.4099 47.506 67.3653 47.3363 67.2759C47.1666 67.1777 47.0326 66.9856 46.9344 66.6998L46.6396 65.7084C46.2913 66.021 45.9519 66.2979 45.6214 66.539C45.2909 66.7713 44.947 66.9678 44.5897 67.1286C44.2324 67.2893 43.8484 67.4099 43.4375 67.4903C43.0355 67.5796 42.5889 67.6243 42.0977 67.6243C41.5171 67.6243 40.9812 67.5484 40.4899 67.3965C39.9986 67.2357 39.5744 66.999 39.2171 66.6864C38.8598 66.3738 38.5829 65.9852 38.3864 65.5208C38.1899 65.0563 38.0916 64.5159 38.0916 63.8996C38.0916 63.5513 38.1497 63.2074 38.2658 62.868C38.3819 62.5196 38.5695 62.1891 38.8285 61.8765C39.0965 61.5639 39.4404 61.2691 39.8602 60.9922C40.28 60.7153 40.7936 60.4742 41.401 60.2687C42.0173 60.0633 42.7319 59.898 43.5447 59.773C44.3575 59.639 45.2864 59.5586 46.3315 59.5318V58.7279C46.3315 57.8079 46.135 57.1291 45.742 56.6914C45.349 56.2448 44.7818 56.0215 44.0404 56.0215C43.5045 56.0215 43.0579 56.0841 42.7006 56.2091C42.3522 56.3341 42.0441 56.4771 41.7761 56.6378C41.5082 56.7897 41.2625 56.9281 41.0392 57.0532C40.8249 57.1782 40.5837 57.2408 40.3157 57.2408C40.0835 57.2408 39.887 57.1827 39.7262 57.0666C39.5654 56.9415 39.4359 56.7986 39.3377 56.6378L38.7482 55.5794ZM55.7989 56.0483C56.2277 55.2266 56.7368 54.5835 57.3263 54.119C57.9158 53.6456 58.6125 53.4089 59.4164 53.4089C60.0506 53.4089 60.5597 53.5473 60.9438 53.8242L60.7294 56.3029C60.6848 56.4637 60.6178 56.5798 60.5284 56.6512C60.4481 56.7138 60.3364 56.745 60.1935 56.745C60.0595 56.745 59.8585 56.7227 59.5906 56.678C59.3315 56.6334 59.077 56.611 58.8269 56.611C58.4607 56.611 58.1346 56.6646 57.8488 56.7718C57.563 56.879 57.304 57.0353 57.0717 57.2408C56.8484 57.4373 56.6475 57.6784 56.4688 57.9643C56.2991 58.2501 56.1383 58.5761 55.9865 58.9423V67.4099H52.6772V53.6635H54.6199C54.9593 53.6635 55.196 53.726 55.33 53.851C55.464 53.9672 55.5533 54.1815 55.5979 54.4941L55.7989 56.0483ZM76.5404 67.4099H73.2311V56.1421H66.8536V63.5915C66.8536 64.0202 66.9563 64.3551 67.1618 64.5963C67.3761 64.8375 67.6664 64.9581 68.0326 64.9581C68.2381 64.9581 68.4078 64.9357 68.5418 64.8911C68.6847 64.8375 68.8053 64.7839 68.9035 64.7303C69.0107 64.6767 69.1045 64.6276 69.1849 64.5829C69.2653 64.5293 69.3456 64.5025 69.426 64.5025C69.5243 64.5025 69.6047 64.5293 69.6672 64.5829C69.7297 64.6276 69.7967 64.699 69.8682 64.7973L70.8596 66.4051C70.3773 66.807 69.8235 67.1107 69.1983 67.3161C68.573 67.5216 67.9254 67.6243 67.2555 67.6243C66.0586 67.6243 65.1386 67.2893 64.4955 66.6194C63.8614 65.9406 63.5443 65.0072 63.5443 63.8192V56.1421H62.1375C61.9588 56.1421 61.807 56.0841 61.6819 55.9679C61.5569 55.8518 61.4944 55.6776 61.4944 55.4454V54.1324L63.705 53.7572L64.4017 50.0192C64.4464 49.8405 64.5313 49.7021 64.6563 49.6038C64.7814 49.5056 64.9421 49.4565 65.1386 49.4565H66.8536V53.784H76.5404V67.4099ZM77.1165 49.6038C77.1165 49.8897 77.0585 50.1621 76.9424 50.4211C76.8263 50.6712 76.6699 50.8901 76.4734 51.0776C76.2859 51.2652 76.0581 51.417 75.7901 51.5332C75.5311 51.6403 75.2542 51.6939 74.9595 51.6939C74.6736 51.6939 74.4057 51.6403 74.1556 51.5332C73.9055 51.417 73.6866 51.2652 73.4991 51.0776C73.3115 50.8901 73.1596 50.6712 73.0435 50.4211C72.9363 50.1621 72.8827 49.8897 72.8827 49.6038C72.8827 49.3091 72.9363 49.0366 73.0435 48.7866C73.1596 48.5275 73.3115 48.3042 73.4991 48.1166C73.6866 47.9201 73.9055 47.7683 74.1556 47.6611C74.4057 47.545 74.6736 47.4869 74.9595 47.4869C75.2542 47.4869 75.5311 47.545 75.7901 47.6611C76.0581 47.7683 76.2859 47.9201 76.4734 48.1166C76.6699 48.3042 76.8263 48.5275 76.9424 48.7866C77.0585 49.0366 77.1165 49.3091 77.1165 49.6038ZM88.7744 58.9557C88.7744 58.527 88.7118 58.125 88.5868 57.7499C88.4707 57.3658 88.292 57.0308 88.0509 56.745C87.8097 56.4592 87.5015 56.2359 87.1264 56.0751C86.7602 55.9054 86.3314 55.8206 85.8402 55.8206C84.8844 55.8206 84.1297 56.093 83.5759 56.6378C83.031 57.1827 82.6827 57.9553 82.5308 58.9557H88.7744ZM82.4639 60.952C82.5174 61.6577 82.6425 62.2695 82.839 62.7876C83.0355 63.2967 83.2945 63.721 83.6161 64.0604C83.9376 64.3909 84.3173 64.641 84.7549 64.8107C85.2015 64.9715 85.6928 65.0518 86.2287 65.0518C86.7646 65.0518 87.2246 64.9893 87.6087 64.8643C88.0017 64.7392 88.3412 64.6008 88.627 64.4489C88.9217 64.2971 89.1763 64.1586 89.3907 64.0336C89.614 63.9085 89.8283 63.846 90.0338 63.846C90.3107 63.846 90.5161 63.9487 90.6501 64.1542L91.6014 65.36C91.2351 65.7887 90.8243 66.1505 90.3687 66.4452C89.9132 66.7311 89.4353 66.9633 88.9351 67.142C88.4439 67.3117 87.9392 67.4322 87.4212 67.5037C86.912 67.5752 86.4163 67.6109 85.934 67.6109C84.9782 67.6109 84.0895 67.4546 83.2677 67.142C82.446 66.8204 81.7314 66.3515 81.124 65.7351C80.5167 65.1099 80.0388 64.3417 79.6904 63.4307C79.3421 62.5107 79.1679 61.4478 79.1679 60.2419C79.1679 59.3041 79.3198 58.4243 79.6235 57.6025C79.9271 56.7718 80.3604 56.0528 80.9231 55.4454C81.4947 54.8291 82.187 54.3423 82.9998 53.985C83.8215 53.6277 84.746 53.4491 85.7732 53.4491C86.6396 53.4491 87.439 53.5875 88.1714 53.8644C88.9039 54.1413 89.5336 54.5477 90.0606 55.0837C90.5876 55.6107 90.9984 56.2627 91.2932 57.0398C91.5969 57.8079 91.7487 58.6877 91.7487 59.6792C91.7487 60.1794 91.6951 60.5188 91.588 60.6975C91.4808 60.8672 91.2753 60.952 90.9716 60.952H82.4639ZM97.354 56.0483C97.7827 55.2266 98.2918 54.5835 98.8813 54.119C99.4709 53.6456 100.168 53.4089 100.971 53.4089C101.606 53.4089 102.115 53.5473 102.499 53.8242L102.284 56.3029C102.24 56.4637 102.173 56.5798 102.083 56.6512C102.003 56.7138 101.891 56.745 101.749 56.745C101.615 56.745 101.414 56.7227 101.146 56.678C100.887 56.6334 100.632 56.611 100.382 56.611C100.016 56.611 99.6897 56.6646 99.4039 56.7718C99.118 56.879 98.859 57.0353 98.6268 57.2408C98.4035 57.4373 98.2025 57.6784 98.0239 57.9643C97.8542 58.2501 97.6934 58.5761 97.5415 58.9423V67.4099H94.2322V53.6635H96.1749C96.5143 53.6635 96.751 53.726 96.885 53.851C97.019 53.9672 97.1083 54.1815 97.153 54.4941L97.354 56.0483Z" fill="#1B232A"/>
</svg>
