<svg width="153" height="32" viewBox="0 0 153 32" fill="none" xmlns="http://www.w3.org/2000/svg">
<path d="M16.3477 14.4686L16.1973 14.3182C15.6712 13.7921 14.8444 13.7921 14.3183 14.3182C13.7922 14.8444 13.7922 15.6712 14.3183 16.1973L14.4686 16.3476C14.8444 16.1221 15.2202 15.8215 15.5209 15.5208C15.8215 15.2202 16.1222 14.8444 16.3477 14.4686Z" fill="#C19771"/>
<path d="M17.7757 17.7757C13.717 21.8344 7.10276 21.8344 3.04404 17.7757C-1.01468 13.717 -1.01468 7.10277 3.04404 3.04404C7.10276 -1.01468 13.717 -1.01468 17.7757 3.04404C21.8344 7.10277 21.8344 13.717 17.7757 17.7757ZM4.77276 4.77276C1.69113 7.85438 1.69113 12.8902 4.77276 15.9718C7.85438 19.0534 12.8902 19.0534 15.9718 15.9718C19.0534 12.8902 19.0534 7.85438 15.9718 4.77276C12.8902 1.69113 7.85438 1.69113 4.77276 4.77276Z" fill="#C19771"/>
<path d="M26.9454 24.3899L24.465 26.8703C24.2395 27.0957 23.7886 27.0957 23.5631 26.8703L23.4128 26.7199C23.1873 26.4944 23.1873 26.0435 23.4128 25.818L25.8931 23.3377C26.1186 23.1122 26.5695 23.1122 26.795 23.3377L26.9454 23.488C27.1708 23.7135 27.1708 24.0893 26.9454 24.3899Z" fill="#C19771"/>
<path d="M31.9813 29.3506L29.5009 31.8309C29.2754 32.0564 28.8245 32.0564 28.599 31.8309L28.4487 31.6806C28.2232 31.4551 28.2232 31.0041 28.4487 30.7786L30.929 28.2983C31.1545 28.0728 31.6054 28.0728 31.8309 28.2983L31.9813 28.4486C32.2067 28.7493 32.2067 29.1251 31.9813 29.3506Z" fill="#C19771"/>
<path d="M19.2452 17.2409L17.3319 19.1542L23.3375 25.1598L25.2508 23.2465L19.2452 17.2409Z" fill="#C19771"/>
<path d="M26.9683 24.9444L25.0551 26.8577L28.3502 30.1528L30.2634 28.2395L26.9683 24.9444Z" fill="#C19771"/>
<path d="M31.3049 24.5403L31.9062 25.1416L31.3801 25.5925L30.7788 24.9913L30.1775 25.5925L29.6514 25.1416L30.2527 24.5403L29.6514 23.939L30.1775 23.4129L30.7788 24.0142L31.7559 23.0371L30.403 21.6841L27.4717 24.6154L30.7036 27.7722L33.5598 24.9161L32.2069 23.5632L31.3049 24.5403Z" fill="#C19771"/>
<path d="M3.87084 3.87084C2.9689 4.77278 1.61599 4.77278 0.714051 3.87084C-0.187887 2.9689 -0.187887 1.61599 0.714051 0.714051C1.61599 -0.187887 2.9689 -0.187887 3.87084 0.714051C4.69761 1.61599 4.69761 2.9689 3.87084 3.87084ZM1.54083 1.61599C1.16502 1.9918 1.16502 2.59309 1.54083 2.9689C1.91663 3.34471 2.51793 3.34471 2.89373 2.9689C3.26954 2.59309 3.26954 1.9918 2.89373 1.61599C2.59309 1.24018 1.9918 1.24018 1.54083 1.61599Z" fill="#C19771"/>
<path d="M68.4809 13.791C68.4809 14.7043 68.3877 15.58 68.2013 16.4181C68.0149 17.2467 67.7446 18.0282 67.3904 18.7627C67.0456 19.4878 66.6215 20.1563 66.1183 20.7684C65.615 21.371 65.0418 21.903 64.3987 22.3644L69.5294 28H66.4258C65.9785 28 65.573 27.9388 65.2095 27.8164C64.8554 27.694 64.5292 27.468 64.2309 27.1384L61.2671 23.8333C60.7918 23.9652 60.3025 24.064 59.7992 24.1299C59.3053 24.1959 58.788 24.2288 58.2474 24.2288C56.7189 24.2288 55.3256 23.9699 54.0674 23.452C52.8092 22.9247 51.728 22.1949 50.824 21.2627C49.9293 20.3305 49.2349 19.2288 48.7409 17.9576C48.247 16.677 48 15.2881 48 13.791C48 12.2938 48.247 10.9096 48.7409 9.63842C49.2349 8.35782 49.9293 7.25141 50.824 6.31921C51.728 5.38701 52.8092 4.66196 54.0674 4.14407C55.3256 3.61676 56.7189 3.35311 58.2474 3.35311C59.2726 3.35311 60.2373 3.47552 61.1413 3.72034C62.0454 3.95574 62.8749 4.29473 63.6298 4.73729C64.3847 5.17043 65.0604 5.70245 65.6569 6.33333C66.2627 6.9548 66.7753 7.6516 67.1947 8.42373C67.6141 9.19586 67.931 10.0339 68.1454 10.9379C68.3691 11.8418 68.4809 12.7928 68.4809 13.791ZM64.6364 13.791C64.6364 12.6704 64.4872 11.6676 64.189 10.7825C63.8908 9.88795 63.4667 9.12994 62.9168 8.50848C62.3669 7.88701 61.6959 7.41149 60.9037 7.08192C60.1208 6.75236 59.2354 6.58757 58.2474 6.58757C57.2595 6.58757 56.3694 6.75236 55.5772 7.08192C54.7943 7.41149 54.1233 7.88701 53.5641 8.50848C53.0142 9.12994 52.5901 9.88795 52.2919 10.7825C51.9937 11.6676 51.8445 12.6704 51.8445 13.791C51.8445 14.9115 51.9937 15.919 52.2919 16.8136C52.5901 17.6987 53.0142 18.452 53.5641 19.0734C54.1233 19.6855 54.7943 20.1563 55.5772 20.4859C56.3694 20.8154 57.2595 20.9802 58.2474 20.9802C59.2354 20.9802 60.1208 20.8154 60.9037 20.4859C61.6959 20.1563 62.3669 19.6855 62.9168 19.0734C63.4667 18.452 63.8908 17.6987 64.189 16.8136C64.4872 15.919 64.6364 14.9115 64.6364 13.791Z" fill="#1B232A"/>
<path d="M74.3464 9.5113V18.7203C74.3464 19.6055 74.5468 20.2928 74.9476 20.7825C75.3577 21.2627 75.9681 21.5028 76.779 21.5028C77.3755 21.5028 77.9347 21.371 78.4566 21.1073C78.9785 20.8343 79.4725 20.4623 79.9385 19.9915V9.5113H83.3916V24.0028H81.2806C80.8239 24.0028 80.535 23.791 80.4138 23.3672L80.1762 22.209C79.8779 22.5104 79.5704 22.7881 79.2535 23.0424C78.9366 23.2872 78.5964 23.4991 78.2329 23.678C77.8694 23.8569 77.4827 23.9934 77.0726 24.0876C76.6625 24.1817 76.2151 24.2288 75.7305 24.2288C74.9476 24.2288 74.2532 24.097 73.6474 23.8333C73.0509 23.5603 72.5477 23.1789 72.1376 22.6893C71.7275 22.1996 71.4153 21.6205 71.2009 20.952C70.9959 20.274 70.8933 19.5301 70.8933 18.7203V9.5113H74.3464Z" fill="#1B232A"/>
<path d="M96.1961 24.0028C95.8699 24.0028 95.6182 23.9557 95.4412 23.8616C95.2641 23.758 95.1243 23.5556 95.0217 23.2542L94.7142 22.2232C94.3507 22.5527 93.9965 22.8446 93.6517 23.0989C93.3068 23.3437 92.948 23.5508 92.5752 23.7203C92.2024 23.8898 91.8017 24.0169 91.3729 24.1017C90.9535 24.1864 90.4875 24.2288 89.9749 24.2288C89.3691 24.2288 88.8099 24.1488 88.2973 23.9887C87.7847 23.8192 87.342 23.5697 86.9692 23.2401C86.5964 22.9105 86.3075 22.5009 86.1024 22.0113C85.8974 21.5217 85.7949 20.952 85.7949 20.3023C85.7949 19.7561 85.9347 19.2194 86.2143 18.6921C86.5032 18.1554 86.9785 17.6751 87.6402 17.2514C88.302 16.8183 89.1827 16.4605 90.2825 16.178C91.3823 15.8955 92.7523 15.7354 94.3926 15.6977V14.8503C94.3926 13.8804 94.1876 13.1648 93.7775 12.7034C93.3674 12.2326 92.7756 11.9972 92.002 11.9972C91.4428 11.9972 90.9768 12.0631 90.604 12.1949C90.2405 12.3267 89.919 12.4774 89.6394 12.6469C89.3598 12.807 89.1035 12.9529 88.8705 13.0847C88.6468 13.2166 88.3952 13.2825 88.1156 13.2825C87.8732 13.2825 87.6682 13.2213 87.5004 13.0989C87.3327 12.967 87.1975 12.8164 87.095 12.6469L86.4799 11.5311C88.1295 10.0056 90.1147 9.24294 92.4354 9.24294C93.2742 9.24294 94.0245 9.38418 94.6862 9.66667C95.3479 9.93974 95.9072 10.3258 96.3638 10.8249C96.8205 11.3145 97.1654 11.903 97.3984 12.5904C97.6407 13.2778 97.7619 14.0311 97.7619 14.8503V24.0028H96.1961ZM91.0374 21.8277C91.7457 21.8277 92.3562 21.7006 92.8688 21.4463C93.3907 21.1827 93.8987 20.7872 94.3926 20.2599V17.8164C93.3861 17.8635 92.5426 17.9529 91.8622 18.0847C91.1912 18.2072 90.6506 18.3672 90.2405 18.565C89.8305 18.7627 89.5369 18.9934 89.3598 19.2571C89.1827 19.5207 89.0942 19.8079 89.0942 20.1186C89.0942 20.7307 89.2713 21.1686 89.6254 21.4322C89.9889 21.6959 90.4596 21.8277 91.0374 21.8277Z" fill="#1B232A"/>
<path d="M101.014 24.0028V9.5113H103.041C103.395 9.5113 103.642 9.57721 103.782 9.70904C103.922 9.83145 104.015 10.0574 104.062 10.387L104.257 12.0254C104.714 11.1591 105.25 10.4812 105.865 9.99153C106.48 9.49247 107.207 9.24294 108.046 9.24294C108.708 9.24294 109.239 9.38889 109.64 9.68079L109.416 12.2938C109.369 12.4633 109.3 12.5857 109.206 12.661C109.122 12.7269 109.006 12.7599 108.857 12.7599C108.717 12.7599 108.507 12.7363 108.228 12.6893C107.957 12.6422 107.692 12.6186 107.431 12.6186C107.049 12.6186 106.709 12.6751 106.41 12.7881C106.112 12.9011 105.842 13.0659 105.599 13.2825C105.366 13.4896 105.157 13.7439 104.97 14.0452C104.793 14.3465 104.626 14.6902 104.467 15.0763V24.0028H101.014Z" fill="#1B232A"/>
<path d="M116.226 24.2288C114.977 24.2288 114.017 23.8757 113.346 23.1695C112.684 22.4539 112.353 21.4699 112.353 20.2175V12.1243H110.885C110.699 12.1243 110.54 12.0631 110.41 11.9407C110.279 11.8183 110.214 11.6347 110.214 11.3898V10.0057L112.521 9.62429L113.248 5.66949C113.295 5.48117 113.383 5.33522 113.514 5.23164C113.644 5.12806 113.812 5.07627 114.017 5.07627H115.806V9.63842H125.914V24.0028H122.461V12.1243H115.806V19.9774C115.806 20.4294 115.913 20.7825 116.128 21.0367C116.352 21.291 116.654 21.4181 117.037 21.4181C117.251 21.4181 117.428 21.3945 117.568 21.3475C117.717 21.291 117.843 21.2345 117.945 21.178C118.057 21.1215 118.155 21.0697 118.239 21.0226C118.323 20.9661 118.407 20.9379 118.49 20.9379C118.593 20.9379 118.677 20.9661 118.742 21.0226C118.807 21.0697 118.877 21.145 118.952 21.2486L119.986 22.9435C119.483 23.3672 118.905 23.6874 118.253 23.904C117.6 24.1205 116.925 24.2288 116.226 24.2288ZM126.515 5.23164C126.515 5.53296 126.454 5.82015 126.333 6.09322C126.212 6.35688 126.049 6.58757 125.844 6.78531C125.648 6.98305 125.411 7.14313 125.131 7.26554C124.861 7.37853 124.572 7.43503 124.264 7.43503C123.966 7.43503 123.686 7.37853 123.425 7.26554C123.164 7.14313 122.936 6.98305 122.74 6.78531C122.545 6.58757 122.386 6.35688 122.265 6.09322C122.153 5.82015 122.097 5.53296 122.097 5.23164C122.097 4.9209 122.153 4.63371 122.265 4.37006C122.386 4.09699 122.545 3.86158 122.74 3.66384C122.936 3.45669 123.164 3.29661 123.425 3.18362C123.686 3.06121 123.966 3 124.264 3C124.572 3 124.861 3.06121 125.131 3.18362C125.411 3.29661 125.648 3.45669 125.844 3.66384C126.049 3.86158 126.212 4.09699 126.333 4.37006C126.454 4.63371 126.515 4.9209 126.515 5.23164Z" fill="#1B232A"/>
<path d="M135.548 9.28531C136.452 9.28531 137.286 9.43126 138.05 9.72316C138.814 10.0151 139.472 10.4435 140.021 11.0085C140.571 11.564 141 12.2514 141.308 13.0706C141.624 13.8804 141.783 14.8079 141.783 15.8531C141.783 16.3804 141.727 16.7382 141.615 16.9266C141.503 17.1055 141.289 17.1949 140.972 17.1949H132.095C132.151 17.9388 132.281 18.5838 132.486 19.1299C132.691 19.6667 132.961 20.1139 133.297 20.4718C133.632 20.8202 134.029 21.0838 134.485 21.2627C134.951 21.4322 135.464 21.5169 136.023 21.5169C136.582 21.5169 137.062 21.451 137.463 21.3192C137.873 21.1874 138.227 21.0414 138.526 20.8814C138.833 20.7213 139.099 20.5753 139.322 20.4435C139.555 20.3117 139.779 20.2458 139.993 20.2458C140.282 20.2458 140.497 20.354 140.637 20.5706L141.629 21.8418C141.247 22.2938 140.818 22.6751 140.343 22.9859C139.868 23.2872 139.369 23.532 138.847 23.7203C138.334 23.8992 137.808 24.0264 137.267 24.1017C136.736 24.177 136.219 24.2147 135.716 24.2147C134.718 24.2147 133.791 24.0499 132.933 23.7203C132.076 23.3814 131.33 22.887 130.697 22.2373C130.063 21.5782 129.564 20.7684 129.201 19.8079C128.837 18.838 128.656 17.7175 128.656 16.4463C128.656 15.4576 128.814 14.5301 129.131 13.6638C129.448 12.7881 129.9 12.0301 130.487 11.3898C131.083 10.7401 131.806 10.2269 132.654 9.85028C133.511 9.47364 134.476 9.28531 135.548 9.28531ZM135.618 11.7853C134.611 11.7853 133.824 12.0725 133.255 12.6469C132.686 13.2213 132.323 14.0358 132.165 15.0904H138.679C138.679 14.6384 138.614 14.2147 138.484 13.8192C138.362 13.4143 138.176 13.0612 137.924 12.7599C137.673 12.4586 137.351 12.2232 136.96 12.0537C136.578 11.8748 136.13 11.7853 135.618 11.7853Z" fill="#1B232A"/>
<path d="M144.374 24.0028V9.5113H146.401C146.756 9.5113 147.003 9.57721 147.142 9.70904C147.282 9.83145 147.375 10.0574 147.422 10.387L147.618 12.0254C148.074 11.1591 148.61 10.4812 149.225 9.99153C149.84 9.49247 150.567 9.24294 151.406 9.24294C152.068 9.24294 152.599 9.38889 153 9.68079L152.776 12.2938C152.73 12.4633 152.66 12.5857 152.567 12.661C152.483 12.7269 152.366 12.7599 152.217 12.7599C152.077 12.7599 151.868 12.7363 151.588 12.6893C151.318 12.6422 151.052 12.6186 150.791 12.6186C150.409 12.6186 150.069 12.6751 149.771 12.7881C149.472 12.9011 149.202 13.0659 148.96 13.2825C148.727 13.4896 148.517 13.7439 148.331 14.0452C148.154 14.3465 147.986 14.6902 147.827 15.0763V24.0028H144.374Z" fill="#1B232A"/>
</svg>
