<svg width="16" height="17" viewBox="0 0 16 17" fill="none" xmlns="http://www.w3.org/2000/svg">
<path d="M7.80008 16.2C3.70008 16.2 0.100098 12.9001 0.100098 8.50006C0.100098 4.30006 3.60008 0.80011 7.80008 0.80011C12.0001 0.80011 15.5001 4.20006 15.5001 8.50006C15.5001 12.9001 11.9001 16.2 7.80008 16.2ZM1.40009 8.50006C1.40009 12.0001 4.2001 14.8001 7.7001 14.8001C11.2001 14.8001 14.0001 12.0001 14.0001 8.50006C14.0001 5.00006 11.2001 2.20001 7.7001 2.20001C4.3001 2.20001 1.40009 5.10006 1.40009 8.50006Z" fill="#C19771"/>
<path d="M6.40005 10.3001C7.30005 9.3001 8.20006 8.40007 9.10006 7.40007C9.40006 7.10007 9.70005 6.80005 10.0001 6.50005C10.3001 6.10005 10.7001 6.10007 11.0001 6.40007C11.3001 6.70007 11.3001 7.10007 11.0001 7.40007C10.1001 8.40007 9.20004 9.4001 8.30004 10.3001C7.90004 10.8001 7.40005 11.2 7.00005 11.7C6.60005 12.1 6.20005 12.1 5.90005 11.7C5.20005 11 4.60005 10.3 3.90005 9.60002C3.60005 9.20002 3.60005 8.80005 3.90005 8.50005C4.20005 8.20005 4.60005 8.30002 4.90005 8.60002C5.40005 9.20002 5.90005 9.7001 6.40005 10.3001Z" fill="#C19771"/>
</svg>
