<svg width="16" height="18" viewBox="0 0 16 18" fill="none" xmlns="http://www.w3.org/2000/svg">
<path d="M11 17.3001C11.7 17.3001 12.3 17.3001 12.7 16.9001C13.6 16.2001 14.4 15.4001 15 14.4001C15.3 13.8001 15.3 13.5 14.8 13.1C13.7 12.1 12.5 11.5 11.1 11.1C10.5 10.9 10.1 11.1 9.70002 11.5C9.50002 11.8 9.2 12.1001 9 12.4001C8.8 12.7001 8.8 12.7001 8.5 12.4001C8.2 12.1001 8.00001 11.9 7.70001 11.6C6.30001 10.2 5.20001 8.60007 4.30001 6.90007C4.20001 6.70007 4.2 6.70002 4.4 6.60002C4.7 6.50002 5 6.39999 5.4 6.19999C6.1 5.89999 6.39999 5.49999 6.29999 4.69999C6.29999 4.19999 6.20001 3.70002 6.10001 3.10002C5.90001 2.30002 5.70001 1.39999 5.30001 0.699993C5.00001 0.0999926 4.7 -7.39098e-06 4 0.199993C3.1 0.499993 2.3 1.00004 1.5 1.50004C1.1 1.70004 0.999999 1.90002 1.2 2.10002C1.3 2.30002 1.5 2.30004 1.9 2.00004C2.6 1.60004 3.30001 1.20009 4.10001 0.80009C4.50001 0.60009 4.70001 0.700017 4.80001 1.10002C5.00001 1.60002 5.20001 2.00004 5.30001 2.50004C5.50001 3.20004 5.6 3.90002 5.7 4.60002C5.8 4.90002 5.60001 5.20007 5.30001 5.40007C5.20001 5.50007 5.1 5.50002 5 5.60002C4.6 5.70002 4.3 5.90004 3.9 6.00004C3.5 6.20004 3.40001 6.40009 3.60001 6.80009C3.70001 7.00009 3.8 7.20009 3.9 7.30009C4.6 8.60009 5.4 9.80007 6.4 10.9001C7 11.6001 7.7 12.3 8.4 13C8.8 13.4 9.1 13.4001 9.5 12.9001C9.7 12.6001 10 12.2001 10.2 11.9001C10.4 11.6001 10.7 11.5 11.1 11.7C12.3 12.1 13.3 12.7 14.3 13.5C14.5 13.7 14.6 13.9 14.4 14.1C13.9 14.7 13.4 15.2001 12.9 15.8001C12.4 16.4001 11.8 16.6 11 16.5C10.1 16.4 9.3 16.1 8.5 15.6C7.4 14.9 6.5 14.1 5.7 13.2C4.2 11.6 3 9.90007 2 7.90007C1.3 6.50007 0.800009 5.00007 1.10001 3.40007C1.10001 3.20007 1.1 3.10004 0.899996 3.00004C0.699996 2.90004 0.500003 3.00009 0.500003 3.30009C0.400003 3.60009 0.399996 3.90002 0.399996 4.10002C0.299996 5.20002 0.600002 6.19999 1 7.19999C1.5 8.39999 2.2 9.59999 2.9 10.7C4.3 12.8 5.9 14.6 8 16.1C8.9 16.8 10 17.3001 11 17.3001Z" fill="#C19771"/>
</svg>
