<svg width="14" height="20" viewBox="0 0 14 20" fill="none" xmlns="http://www.w3.org/2000/svg">
<path d="M13.3 11.9001C13.3 11.1001 13.3 10.4 13.3 9.60004C13.3 8.50004 13 8.10001 11.9 7.70001C11.2 7.50001 10.6001 7.30004 10.1001 7.10004C9.10005 6.70004 8.00004 6.60004 6.90004 6.60004C6.30004 6.60004 5.60004 6.70011 4.90004 6.80011C3.90004 7.00011 2.80004 7.30001 1.90004 7.70001C1.70004 7.80001 1.50005 7.80009 1.30005 7.90009C0.600049 8.10009 0.300049 8.70009 0.300049 9.40009V11.2C0.300049 12.9 0.300049 14.6 0.300049 16.2C0.300049 17.1 0.700046 17.6001 1.50005 17.8001C1.70005 17.9001 2.00004 17.9001 2.20004 18.0001C2.70004 18.1001 3.10005 18.3001 3.60005 18.5001C5.10005 19.0001 6.70004 19.2001 8.40004 18.9001C9.50004 18.7001 10.7 18.3001 11.8 18.0001C12 17.9001 12.2 17.9001 12.4 17.8001C13 17.6001 13.4 17.1001 13.4 16.5001C13.4 15.7001 13.4 14.8001 13.4 14.0001V12.8001L13.3 11.9001ZM12.2001 12.7C12.2001 13.9 12.2001 15 12.2001 16.2C12.2001 16.4 12.1 16.8001 11.8 16.9001C11.6 17.0001 11.4001 17 11.2001 17.1C10.3001 17.4 9.30004 17.7001 8.40004 17.9001C7.80004 18.0001 7.20005 18.1 6.60005 18.1C5.40005 18.1 4.30004 17.9001 3.20004 17.4001C2.90004 17.3001 2.50005 17.2 2.10005 17.1L1.80005 17.0001C1.40005 16.9001 1.20004 16.7 1.20004 16.2C1.20004 15.4 1.20004 14.6001 1.20004 13.8001C1.20004 13.5001 1.20004 13.2001 1.20004 12.9001V12.1C1.20004 11.3 1.20004 10.4 1.20004 9.60004C1.20004 9.40004 1.20005 9.10006 1.60005 9.00006C1.90005 8.90006 2.30005 8.80001 2.60005 8.70001C3.30005 8.50001 4.00005 8.20004 4.80005 8.10004C6.60005 7.70004 8.40005 7.90006 10 8.50006C10.4 8.70006 10.8 8.80009 11.3 8.90009L11.6001 9.00006C12.0001 9.10006 12.2001 9.30011 12.2001 9.80011C12.2001 10.6001 12.2001 11.7 12.2001 12.7Z" fill="#C19771"/>
<path d="M9.20006 5.19997C9.20006 5.29997 9.20006 5.29997 9.20006 5.19997C9.20006 5.69997 9.50003 6.00002 9.80003 6.00002C9.90003 6.00002 10.1001 6.00005 10.2001 5.90005C10.3001 5.80005 10.4 5.60005 10.4 5.40005C10.4 4.80005 10.4 4.2 10.4 3.6C10.2 1.8 8.80005 0.400072 7.00005 0.300072C5.30005 0.200072 3.70004 1.40002 3.40004 3.00002C3.30004 3.70002 3.30005 4.4 3.30005 5.1C3.30005 5.3 3.30005 5.4 3.30005 5.6C3.30005 5.7 3.40005 5.80005 3.50005 5.90005C3.60005 6.00005 3.80004 6.1 3.90004 6.1C4.20004 6.1 4.40004 5.90002 4.40004 5.50002C4.40004 5.30002 4.40004 5.00007 4.40004 4.80007C4.40004 4.50007 4.40004 4.30002 4.40004 4.00002C4.40004 2.80002 5.20006 1.80002 6.20006 1.50002C7.40006 1.20002 8.50005 1.69997 9.00005 2.69997C9.20005 3.09997 9.20003 3.50005 9.30003 3.90005C9.30003 4.10005 9.40004 4.30005 9.40004 4.40005V4.50002H9.30003V5.19997H9.20006Z" fill="#C19771"/>
<path d="M6.1001 14.3001C6.1001 14.7001 6.4001 15.0001 6.7001 15.0001C7.0001 15.0001 7.30008 14.7001 7.30008 14.4001C7.30008 14.2001 7.30008 14.0001 7.30008 13.8001C7.30008 13.5001 7.30008 13.2001 7.30008 12.9001C7.30008 12.6001 7.4001 12.4 7.6001 12.2C7.9001 11.7 7.90009 11.1 7.50009 10.7C7.30009 10.5 7.0001 10.4001 6.7001 10.4001C6.5001 10.4001 6.3001 10.5 6.1001 10.6C5.8001 10.8 5.7001 11.1001 5.6001 11.4001C5.6001 11.6001 5.6001 11.8001 5.7001 12.0001C6.1001 12.5001 6.1001 13.0001 6.1001 13.4001V13.6V13.9001C6.1001 14.0001 6.1001 14.2001 6.1001 14.3001Z" fill="#C19771"/>
</svg>
