<svg width="529" height="451" viewBox="0 0 529 451" fill="none" xmlns="http://www.w3.org/2000/svg">
<path opacity="0.5" d="M515.4 259.9C513.5 232.8 498.1 221.1 479.8 216.8C496.2 188.4 524.9 114.6 434 46.7C361.1 -7.80001 321.7 56.5 321.7 56.5C321.7 56.5 332.2 3.89999 272.1 0.29999C212 -3.30001 195.5 35.1 162.1 49.1C128.6 63.2 118 35.9 59.1002 67.6C0.200226 99.3 74.4003 167.1 51.2003 179.6C27.9003 192.1 1.80024 220.6 0.800241 252.8C-0.199759 284.9 38.6003 281.3 44.4003 334C45.2003 341.4 46.9002 347.2 49.3002 351.6C49.0002 352.8 48.8002 354 48.8002 355.2C48.8002 374.6 61.8002 395 118.8 405.1C139.9 408.8 188.2 408.3 213.8 409.9C229.7 410.9 247.6 418.2 264.6 418.2C301.2 418.2 325.7 402.7 355.9 398.4C369.1 396.5 409.5 402.8 420.8 400.3C464 390.9 476 375 477.6 359C503.3 337.3 518.3 302.3 515.4 259.9Z" fill="#CDD7E3"/>
<path d="M502.9 210.7C508.478 210.7 513 205.909 513 200C513 194.091 508.478 189.3 502.9 189.3C497.322 189.3 492.8 194.091 492.8 200C492.8 205.909 497.322 210.7 502.9 210.7Z" fill="#CDD7E3"/>
<path d="M151 43.8C163.4 39 169.8 27.2 165.4 17.6C161 7.99999 147.3 4.09999 134.9 8.99999C122.5 13.8 116.1 25.6 120.5 35.2C125 44.8 138.6 48.7 151 43.8Z" fill="#CDD7E3"/>
<path d="M355.8 410.9C343 414.6 335.5 425.7 339 435.7C342.5 445.7 355.8 450.8 368.6 447.1C381.4 443.4 388.9 432.3 385.4 422.3C381.8 412.4 368.6 407.3 355.8 410.9Z" fill="#CDD7E3"/>
<path opacity="0.5" d="M198.5 417.3C180.3 415.6 166.4 421.7 167.3 430.8C168.2 439.9 183.8 448.6 201.9 450.2C220.1 451.9 234 445.8 233.1 436.7C232.2 427.6 216.7 418.9 198.5 417.3Z" fill="#CDD7E3"/>
<path d="M204.5 290.3L198.9 291.4C198.9 291.4 182 251.9 173.2 241.3C173.2 241.3 114.7 261.6 90.2003 222.1C90.2003 222.1 129.9 191.7 171 234.9C171 234.9 154.4 196.8 131 162.9C131 162.9 89.9003 186.2 69.9003 150.2C69.9003 150.2 92.0003 128.1 120.7 144.7C120.7 144.7 103.8 117 91.2003 104.2C91.2003 104.2 59.9003 121.2 38.4003 91.9C38.4003 91.9 61.5003 80 83.1003 92L60.0003 64.5C60.0003 64.5 25.6003 53 21.8003 18.8C21.8003 18.8 56.9003 21.3 62.4003 59.6L86.1003 89.9C86.1003 89.9 79.4003 55.7 102.7 47.2C102.7 47.2 117.6 86.6 95.5003 101.3C95.5003 101.3 118.2 128.9 129.7 150.8C129.7 150.8 113.4 109.2 146.2 90.4C146.2 90.4 168.2 119.6 135.6 156.5C135.6 156.5 155.8 188.5 174.7 231.1C174.7 231.1 151.7 192.3 184.4 155.3C184.4 155.3 219.7 183.4 181.3 240.1C181.2 240.2 194.7 262.7 204.5 290.3Z" fill="#95A484"/>
<path d="M324.6 306.7L320.2 304.1C320.2 304.1 332.3 267.4 332.7 255.1C332.7 255.1 281.2 234 288.2 192.8C288.2 192.8 333 195.9 335 249.4C335 249.4 346.5 213.9 350.8 177.1C350.8 177.1 309.3 168.4 317.2 132.3C317.2 132.3 345.2 130.6 354.7 158.8C354.7 158.8 359.8 130.1 358.9 113.9C358.9 113.9 327.8 106.7 330.6 74.2C330.6 74.2 353.3 79.9 360.6 100.8L361.3 68.5C361.3 68.5 344.9 40.3 362.7 15C362.7 15 384.8 37.5 365.8 66.7L363.7 101.2C363.7 101.2 379.5 74.2 400.3 82.3C400.3 82.3 386.9 117.7 363.3 114.5C363.3 114.5 362.2 146.6 356.9 168.1C356.9 168.1 370.7 130.4 403.9 137.3C403.9 137.3 401.4 170.1 357.5 175.5C357.5 175.5 352.1 209.1 339.5 249C339.5 249 347.1 209.2 391.1 203.7C391.1 203.7 398.2 243.6 338.6 259C338.7 259.1 334.5 282.3 324.6 306.7Z" fill="#95A484"/>
<path d="M436 361.4L434.6 359.1C434.6 359.1 449.6 344.9 452.9 339.2C452.9 339.2 434.1 316.3 447.7 298.7C447.7 298.7 468 311.5 455.4 337.1C455.4 337.1 469.8 323.3 481.1 307.2C481.1 307.2 463.8 292.6 476.6 277.6C476.6 277.6 490.2 283.9 487.5 299.5C487.5 299.5 497.1 287.3 500.8 279.5C500.8 279.5 488 268.3 497.5 253.7C497.5 253.7 506.7 262.1 504.9 273.8L513.4 258.8C513.4 258.8 512.8 241.4 527.6 234C527.6 234 532.3 250.2 516 259L506.3 274.7C506.3 274.7 520.5 266 528.2 275.1C528.2 275.1 513 288.4 502.7 280.9C502.7 280.9 494.1 295.7 486.2 304.5C486.2 304.5 502.2 290.2 516.1 301.9C516.1 301.9 506.7 316.7 484.6 308.1C484.6 308.1 473.6 322.5 457.6 338.1C457.6 338.1 471.2 321.3 493.3 329.8C493.3 329.8 486.6 350.3 454.7 342.5C454.6 342.6 446.8 352.4 436 361.4Z" fill="#95A484"/>
<path d="M402.8 352.6L407.1 352.2C407.1 352.2 411.2 320.7 415.4 311.4C415.4 311.4 462.1 313.8 471.8 280.8C471.8 280.8 436.7 267.4 415.7 306.4C415.7 306.4 419.9 276 429.9 247.3C429.9 247.3 464.6 255.4 471.7 225.8C471.7 225.8 451.1 214.7 433.6 232.3C433.6 232.3 440.2 209.2 446.7 197.6C446.7 197.6 472.9 203.2 482.6 178.1C482.6 178.1 463.3 174.4 450.1 187.3L461.3 163.1C461.3 163.1 484 147.9 479.7 122.9C479.7 122.9 454.7 131.8 458.6 160.1L447.6 186.4C447.6 186.4 445.4 160.8 426.7 159.6C426.7 159.6 424 190.6 443.1 196.4C443.1 196.4 432.3 220.6 428.5 238.4C428.5 238.4 431.8 205.6 404 199C404 199 394 224.2 425.4 243.6C425.4 243.6 417.3 270.4 412.4 304.4C412.4 304.4 421.1 272.2 389.7 252.7C389.7 252.7 369.9 279.8 409.5 312.1C409.4 312.3 404.2 331 402.8 352.6Z" fill="#95A484"/>
<path d="M97.2 389L99.8 387C99.8 387 89.2 364.8 88.1 357C88.1 357 119.5 338.9 111.9 313.4C111.9 313.4 83.4 319.4 86.2 353.6C86.2 353.6 76.1 332.1 70.6 309.2C70.6 309.2 96.5 299.9 88.7 277.7C88.7 277.7 70.6 279.2 66.7 297.9C66.7 297.9 61.3 280.1 60.6 269.8C60.6 269.8 80 262.4 75.7 242C75.7 242 61.6 247.7 58.5 261.6L55.6 241.2C55.6 241.2 63.9 221.8 50.6 207.4C50.6 207.4 38.1 223.7 52.5 240.5L56.4 262.2C56.4 262.2 44.2 246.5 31.5 253.6C31.5 253.6 42.8 274.9 57.6 270.7C57.6 270.7 60.7 290.9 65.8 304.2C65.8 304.2 54.1 281.5 33.3 288.9C33.3 288.9 37.4 309.5 66 308.9C66 308.9 72 329.7 83.1 353.9C83.1 353.9 75.2 329.3 46.6 329.8C46.6 329.8 45.1 355.7 84.4 360.1C84.6 360.1 89.1 374.4 97.2 389Z" fill="#95A484"/>
<path d="M181.3 174.7C181.3 183.1 175.5 189.9 171.1 189.9C166.6 189.9 159.2 184 159.2 175.6C159.2 167.2 166.6 159.4 171.1 159.4C175.6 159.4 181.3 166.3 181.3 174.7Z" fill="#CDD7E3"/>
<path d="M165.621 351.123C171.629 349.242 174.466 341.223 171.958 333.212C169.45 325.201 162.546 320.231 156.537 322.113C150.529 323.994 147.692 332.013 150.2 340.024C152.708 348.036 159.612 353.005 165.621 351.123Z" fill="#CDD7E3"/>
<path d="M433.701 366.5V189.9C433.701 179.3 425.101 170.6 414.401 170.6H117.901C107.301 170.6 98.6006 179.2 98.6006 189.9V366.5H433.701Z" fill="#727289"/>
<path d="M460 365.2V367.4C460 376.8 450 384.4 437.7 384.4H94.7004C82.4004 384.4 72.4004 376.8 72.4004 367.4V365.2H460Z" fill="#4D576D"/>
<path d="M416.5 187.8H115.8V349.2H416.5V187.8Z" fill="white"/>
<path d="M171.4 194.5H121.7V202.3H171.4V194.5Z" fill="#D9E3EF"/>
<path d="M272.8 194.5H240.7V199.4H272.8V194.5Z" fill="#D9E3EF"/>
<path d="M314.8 194.5H282.7V199.4H314.8V194.5Z" fill="#D9E3EF"/>
<path d="M356.701 194.5H324.601V199.4H356.701V194.5Z" fill="#D9E3EF"/>
<path d="M398.701 194.5H366.601V199.4H398.701V194.5Z" fill="#D9E3EF"/>
<path d="M404.6 212.6H123.8V290.8H404.6V212.6Z" fill="#A7B8D3"/>
<path d="M226.5 301.7H124.9V307.9H226.5V301.7Z" fill="#D9E3EF"/>
<path d="M226.5 316.8H124.9V323H226.5V316.8Z" fill="#D9E3EF"/>
<path d="M226.5 331.8H124.9V338H226.5V331.8Z" fill="#D9E3EF"/>
<path d="M405.201 301.8H239.101V337.6H405.201V301.8Z" fill="#D9E3EF"/>
<path d="M312.3 365.2V365.9C312.3 368.8 309.9 371.2 307 371.2H225.3C222.4 371.2 220 368.8 220 365.9V365.2H312.3Z" fill="#A7B8D3"/>
<path d="M264.4 324.5C268.377 324.5 271.6 321.276 271.6 317.3C271.6 313.324 268.377 310.1 264.4 310.1C260.424 310.1 257.2 313.324 257.2 317.3C257.2 321.276 260.424 324.5 264.4 324.5Z" fill="#4D576D"/>
<path d="M293.201 324.5C297.177 324.5 300.401 321.276 300.401 317.3C300.401 313.324 297.177 310.1 293.201 310.1C289.224 310.1 286 313.324 286 317.3C286 321.276 289.224 324.5 293.201 324.5Z" fill="#4D576D"/>
<path d="M321.9 324.5C325.877 324.5 329.1 321.276 329.1 317.3C329.1 313.324 325.877 310.1 321.9 310.1C317.924 310.1 314.7 313.324 314.7 317.3C314.7 321.276 317.924 324.5 321.9 324.5Z" fill="#4D576D"/>
<path d="M350.6 324.5C354.577 324.5 357.8 321.276 357.8 317.3C357.8 313.324 354.577 310.1 350.6 310.1C346.624 310.1 343.4 313.324 343.4 317.3C343.4 321.276 346.624 324.5 350.6 324.5Z" fill="#4D576D"/>
<path d="M451.1 395.4C451.1 395.4 451.6 400.3 450.6 401.5C450.1 402.2 440.6 402.5 440.2 401.6C439.8 400.7 441.9 398.7 444.5 397.9C447.1 397.1 446.6 395.1 446.6 395.1L451.1 395.4Z" fill="#4D576D"/>
<path d="M479.8 390.3C479.8 390.3 483.4 394.6 483 396.5C482.6 398.4 473.8 402 473.8 402C473.8 402 471.6 400.7 474 397.8C478 393.2 476.5 391.6 476.5 391.6L479.8 390.3Z" fill="#4D576D"/>
<path d="M447.6 338.8C447.6 338.8 443.9 358.7 444.7 370.5C445.6 382.4 445.7 395.9 445.7 395.9L452 396.3C452 396.3 453.7 367.6 454.9 365C456.1 362.4 458.2 354.6 458.2 354.6L460 355.2C460 355.2 460.5 369.5 462.1 372.5C463.7 375.4 475.7 393.3 475.7 393.3L480.4 390.6C480.4 390.6 470.4 368.6 470.7 367.2C471.1 365.7 471.4 342.6 471.4 342.6L461.1 341.2L447.6 338.8Z" fill="#827393"/>
<path d="M433.3 307.6L433 307.7C432.3 308 431.5 307.8 431.1 307.1L429.5 304C429.2 303.3 429.4 302.5 430.1 302.1L430.4 302C431.1 301.7 431.9 301.9 432.3 302.6L433.9 305.7C434.3 306.4 434 307.2 433.3 307.6Z" fill="#FFC6CA"/>
<path d="M455 294.2C455 294.2 445.4 300.3 443.8 313.2C442.2 326 433.8 304.7 433.8 304.7L430.1 307.4C430.1 307.4 433.7 324.5 440.5 324.8C447.3 325.1 454.3 316.8 454.3 316.8L455 294.2Z" fill="#C1987C"/>
<path d="M456.8 292.7C456.8 292.7 459.8 294.8 461.6 294.7C463.4 294.6 465.9 292.5 465.9 292.5C465.9 292.5 472.3 294.1 475.1 301.2L475.8 304L472.2 342.6C473 343.3 455.5 343.7 447.5 340C447.1 339.8 447.5 339.4 447.5 339.4C447.5 339.4 450.9 305.1 450.9 302.5C450.9 300.1 451.9 292.8 456.8 292.7Z" fill="#DFB388"/>
<path d="M458.9 292.7L459 290.5C459 290.5 455.4 289.6 454.7 286.9C454 284.2 453.8 278.5 453.8 278.5L456.6 274.8L460.1 274.5L463.6 278L466 280.7L465.6 283.8L463.4 288.3V292.5L466.9 293.4C466.9 293.4 467.1 297.6 461.8 297C456.6 296.5 456.4 293.4 456.4 293.4L458.9 292.7Z" fill="#FFC6CA"/>
<path d="M449.5 321C449 321.6 449.1 322.5 449.6 323L452.3 325.3C452.9 325.8 453.8 325.7 454.3 325.2C454.8 324.6 454.7 323.7 454.2 323.2L451.5 320.9C450.9 320.3 450 320.4 449.5 321Z" fill="#FFC6CA"/>
<path d="M462.8 288.9C462 288.2 464.6 283.4 464.3 281.7C464.3 281.7 461.8 282.1 460.8 281C459.7 279.8 455.6 279.7 456.7 276.9C456.7 276.9 454.3 277.9 454.4 281C454.4 281 450.8 280.6 451.7 279.2C452.6 277.8 455.1 270.5 461.1 271.4C467 272.3 468.6 276.8 468.3 280.9C468 284.9 464.3 288.9 464.3 288.9H462.8Z" fill="#4D576D"/>
<path d="M422.7 336.6L463.5 347.4C463.8 347.5 464 347 463.8 346.7L447.3 326.6C447.2 326.5 447.1 326.5 447 326.5L422.7 335.8C422.5 336 422.4 336.5 422.7 336.6Z" fill="#727289"/>
<path d="M428.3 311.1L422 334.9C421.7 336 422.4 337 423.3 336.7L444.6 328.6C445.6 328.2 446 326.6 445.2 325.9L430.2 310.3C429.7 309.5 428.6 310 428.3 311.1Z" fill="#A7B8D3"/>
<path d="M465.1 346.3L471.4 322.5C471.7 321.4 471 320.5 470.2 320.7L449.4 326.8C448.4 327.1 448 328.7 448.6 329.5L463.1 347.1C463.7 347.9 464.8 347.4 465.1 346.3Z" fill="#A7B8D3"/>
<path d="M428.3 311.1C428.1 311.7 428.3 312.3 428.6 312.6L443.2 328.6C444.1 329.5 445.2 330.2 446.3 330.5C447.5 330.8 448.7 330.8 449.9 330.4L470.3 323.7C470.8 323.6 471.2 323.1 471.3 322.5C471.5 321.7 471.2 320.9 470.6 320.7L429.8 309.9C429.2 309.7 428.6 310.2 428.3 311.1Z" fill="#727289"/>
<path d="M428.6 310.2C428.4 310.8 428.6 311.4 428.9 311.7L443.6 327C445.4 328.9 447.9 329.5 450.4 328.8L470.7 322.8C471.2 322.7 471.6 322.2 471.7 321.6C471.9 320.8 471.6 320 471 319.8L430.1 309C429.4 308.9 428.8 309.4 428.6 310.2Z" fill="#A7B8D3"/>
<path d="M449.7 320.8C449.2 321.4 449.3 322.3 449.8 322.8L452.5 325.1C453.1 325.6 454 325.5 454.5 325C455 324.4 454.9 323.5 454.4 323L451.7 320.7C451 320.2 450.2 320.2 449.7 320.8Z" fill="#FFC6CA"/>
<path d="M215.7 121.7C216.8 121.9 221.9 123.7 222.4 127.6C222.9 131.5 224.3 143.8 224.3 143.8L229.3 129.7L233 129.4C233 129.4 231 145.8 226.4 150C221.8 154.2 219.8 147.1 219.8 147.1L217.4 139.1L215.7 121.7Z" fill="#DFB388"/>
<path d="M232.201 130C232.201 130 232.201 128.1 232.801 127.8C233.401 127.5 235.801 125.6 236.201 125C236.601 124.4 238.001 120.6 237.101 120.8C236.201 121 233.001 124 233.001 124C233.001 124 233.701 121.9 233.401 121.5C233.101 121.1 231.501 123.8 231.301 124.3C231.101 124.8 230.601 130.2 230.601 130.2L232.201 130Z" fill="#FFC6CA"/>
<path d="M215.6 102.4C215.9 103.4 217.1 110.9 216.2 112.7C215.4 114.5 214.7 116.3 211.6 116.6L215.4 125.3L213.1 133.8L204.5 130.9C204.5 130.9 199.1 126.1 199.5 125.1C199.8 124.1 205.4 115.1 205.4 115.1L207.9 102.4L214.2 101.1L215.2 102.2L215.6 102.4Z" fill="#FFC6CA"/>
<path d="M208.9 106C208.9 106 208.3 114.7 206.4 117.6C204.6 120.5 206.9 126.2 204.5 127.9C203 129 198.6 135.1 197.1 136.3C194.4 138.2 190.9 137.3 187.9 131.7C184.9 126.1 182.8 119.6 194.3 110.6C194.3 110.6 192.3 103.8 196 102.5C199.7 101.2 200.7 100.4 200.7 100.4C200.7 100.4 202.3 93.5 210.8 95.8C219.3 98.1 217.4 102.8 217.4 102.8C217.4 102.8 222.3 117.3 212.9 120.8L211.5 116.6C211.5 116.6 215.7 115.5 216.1 112.7C216.5 109.9 215.5 102.4 215.5 102.4C215.5 102.4 213.8 106 208.9 106Z" fill="#00848A"/>
<path d="M212.201 124.9C210.301 125.6 208.001 121.4 205.901 118.9C205.901 118.9 199.401 122.5 200.201 122.2C200.201 122.2 199.801 129.9 199.601 138.2C199.201 154.8 197.101 155.3 197.101 155.3C197.101 155.3 205.801 156.7 206.001 156.4C206.201 156.1 213.001 156 213.201 155.2C213.401 154.4 216.901 142.9 218.001 141.1C219.101 139.3 220.801 131.6 219.501 129.3C218.301 127 215.801 121.8 215.801 121.8L212.501 119.6C212.301 119.5 214.501 124.1 212.201 124.9Z" fill="#C1987C"/>
<path d="M235 202.2L235.401 207.7L238.201 207.4L238.5 201.7L235 202.2Z" fill="#FAC5CA"/>
<path d="M209.101 198.8L207.101 204L209.701 204.9L212.501 199.9L209.101 198.8Z" fill="#FAC5CA"/>
<path d="M234.201 206.2L238.801 206.9C238.801 206.9 243.401 210 245.201 210.1C247.001 210.2 248.801 211.9 247.001 212.2C245.201 212.5 233.601 211.6 233.601 211.6L234.201 206.2Z" fill="#004E4A"/>
<path d="M202.5 161.8C202.5 161.8 227 165 226.3 172C225.6 179 233.6 202.6 233.6 202.6L240.201 202.5C240.201 202.5 235.6 172.6 235.6 168.4C235.6 164.2 212.701 155 212.701 155L202.5 161.8Z" fill="#004E4A"/>
<path d="M206.701 203.1L211.401 204.9C211.401 204.9 211.701 208.2 213.501 208.7C215.301 209.1 218.101 210.5 217.801 211.6C217.501 212.7 209.401 211 209.401 211L204.101 206.8L206.701 203.1Z" fill="#004E4A"/>
<path d="M197.3 155.1C197.3 155.1 191.8 162.3 197.8 166.4C202.9 169.9 218.5 170.4 217.9 171.5C216.8 174 206.3 200.1 206.3 200.1L212.6 201.6C212.6 201.6 228.3 179 229.3 172C230.3 165 212.1 156 212.1 156L197.3 155.1Z" fill="#00848A"/>
<path d="M224.901 150.8H250.701C251.301 150.8 251.801 150.3 251.801 149.7L254.201 131.4C254.201 130.8 253.701 130.3 253.101 130.3H227.301C226.701 130.3 226.201 130.8 226.201 131.4L223.801 149.7C223.801 150.2 224.301 150.8 224.901 150.8Z" fill="#4D576D"/>
<path d="M226.801 150.8H252.601C253.201 150.8 253.701 150.3 253.701 149.7L256.101 131.4C256.101 130.8 255.601 130.3 255.001 130.3H229.201C228.601 130.3 228.101 130.8 228.101 131.4L225.701 149.7C225.601 150.2 226.101 150.8 226.801 150.8Z" fill="#727289"/>
<path d="M253.301 152.2H207.501C207.001 152.2 206.601 151.8 206.601 151.3C206.601 150.8 207.001 150.4 207.501 150.4H253.301C253.801 150.4 254.201 150.8 254.201 151.3C254.201 151.8 253.801 152.2 253.301 152.2Z" fill="#4D576D"/>
<path d="M241.701 143C242.639 143 243.401 142.06 243.401 140.9C243.401 139.74 242.639 138.8 241.701 138.8C240.762 138.8 240 139.74 240 140.9C240 142.06 240.762 143 241.701 143Z" fill="#007EE3"/>
<path d="M215.4 153C215.5 153 215.7 153.1 215.8 153.1C216 153.1 216.1 153.2 216.3 153.2C216.6 153.3 217 153.3 217.3 153.3C218 153.3 218.6 153.3 219.2 153.2C219.8 153.1 220.4 152.9 221 152.7C221.6 152.5 222 152.1 222.5 151.7L222.6 151.6C223 151.2 223.7 151.2 224.1 151.7C224.5 152.1 224.5 152.7 224.1 153.1C223.6 153.8 222.9 154.4 222.1 154.9C221.3 155.4 220.5 155.7 219.7 155.9C218.9 156.1 218 156.3 217.2 156.3C216.8 156.3 216.4 156.3 216 156.3C215.8 156.3 215.6 156.3 215.4 156.3C215.2 156.3 215 156.3 214.7 156.2H214.6C213.7 156.1 213 155.2 213.2 154.3C213.3 153.4 214.2 152.7 215.1 152.9C215.2 152.9 215.3 152.9 215.4 153Z" fill="#FAC5CA"/>
<path d="M203.4 121.4C203.4 121.4 207.2 123 204.2 132.8C201.3 142.6 197.8 146.5 204.5 148.7C211.2 150.9 217.5 153.1 217.5 153.1L217.1 156.5C217.1 156.5 195.1 155.2 194.6 148C194 140.8 197.7 125.7 198.4 124.2C199 122.6 199.6 121.4 203.4 121.4Z" fill="#DFB388"/>
<path d="M211.3 323.1C211.3 323.1 211.3 320.3 211.1 319.1C210.9 317.9 209.3 314.2 209.3 314.2C209.3 314.2 210.7 312.7 211.4 315.1L211.9 316.2C211.9 316.2 215.4 311.2 215.9 311.4C216.4 311.6 219 313.7 218.1 316.8C217.3 319.8 213.2 324.4 213.2 324.4L211.3 323.1Z" fill="#FFC6CA"/>
<path d="M211.6 320.9L214.7 322.7C214.7 322.7 215.5 355 207.4 349.7C207.1 349.5 197.4 339.1 197.4 339.1L193.2 319.6C193.2 319.6 203.8 330.3 206.8 336.3C206.8 336.3 210.6 320.9 211.6 320.9Z" fill="#C78B99"/>
<path d="M178.8 321.4L173.7 325C173.7 325 175.6 368.1 176.1 368.4C176.6 368.7 200.8 366.1 200.8 366.1C200.8 366.1 203.6 347.5 200.8 336.6C198 325.7 193.4 319.6 193.4 319.6L189.2 320.3L189.7 321.4L189.2 323.9C189.2 323.9 186.8 324 186.5 324.5C186.2 325 185.2 324.9 184.4 325C183.6 325.2 178.8 321.4 178.8 321.4Z" fill="#B36F80"/>
<path d="M179.7 320.5C179.7 321.2 178.8 322.5 184.8 324.8C184.8 324.8 185.1 330.8 182.5 329.1C179.8 327.3 177.8 325.1 178 322.9C178.2 320.7 179.7 320.5 179.7 320.5Z" fill="#C78B99"/>
<path d="M185 325C185 325 190.1 327.9 190.1 326C190.1 325.3 189.6 321 189.6 321L185 325Z" fill="#FF9A00"/>
<path d="M175.9 427.5L175.8 430.6C175.8 430.6 173.3 435.4 173.5 436.3C173.7 437.2 179.4 436.9 179.4 436.9C179.4 436.9 178.7 432.4 177.7 431C176.7 429.6 178.4 426.9 178.4 426.9L175.9 427.5Z" fill="#004E4A"/>
<path d="M185.9 426.1L186 429.7L184.1 431.8L183.9 433.1C183.9 433.1 196.5 434.1 197.2 433.8C198 433.5 197 432.1 197 432.1L188.1 429.7L188.5 425.8L185.9 426.1Z" fill="#004E4A"/>
<path d="M184.8 325C182.5 325 180.601 323.4 180.201 321.1L179 313.3L190 313.1L189.3 320.9C189.1 323.2 187.2 324.9 184.8 325Z" fill="#FFC6CA"/>
<path d="M184.534 313.609C188.51 313.546 191.682 310.271 191.619 306.295C191.555 302.319 188.281 299.147 184.305 299.211C180.329 299.274 177.157 302.548 177.22 306.524C177.283 310.5 180.558 313.672 184.534 313.609Z" fill="#FFC6CA"/>
<path d="M191.601 306.4C191.701 310.4 188.601 320.2 184.701 320.3C180.701 320.4 177.401 310.6 177.301 306.6C177.201 302.6 180.501 306 184.401 305.9C188.401 306 191.501 302.5 191.601 306.4Z" fill="#FFC6CA"/>
<path d="M180.2 316C180.2 316 181.3 321.8 184.6 321.7C187.9 321.6 189 315.8 189 315.8L180.2 316Z" fill="#004E4A"/>
<path d="M191.601 306.4C191.701 310.4 188.601 320.2 184.701 320.3C180.701 320.4 177.401 310.6 177.301 306.6C177.201 302.6 180.501 306 184.401 305.9C188.401 306 191.501 302.5 191.601 306.4Z" fill="#FFC6CA"/>
<path d="M191.6 306.3C191.5 302.3 188.3 299.1 184.3 299.2C180.3 299.3 177.2 302.5 177.3 306.5C177.3 306.5 177.3 306.5 177.3 306.6V306.7C177.3 307.3 177.4 308.1 177.6 309C178.6 309 179.8 308 180.4 306.5C180.6 306.1 180.7 305.6 180.7 305.2C181.9 305.5 183.3 305.7 184.7 305.7C186 305.7 187.1 305.5 188.2 305.3C188.3 305.7 188.4 306 188.5 306.4C189.1 307.9 190.3 308.8 191.3 308.8C191.4 307.9 191.5 307.2 191.5 306.5C191.6 306.4 191.6 306.4 191.6 306.3Z" fill="#004E4A"/>
<path d="M179.3 314.9C178.3 314.9 177.4 314 177.4 312.8L177.2 306.1L179.1 306.6L179.3 314.9Z" fill="#004E4A"/>
<path d="M179.8 313.3C179.8 313.3 178.8 313.6 178.7 312.4C178.6 311.3 178.7 310.6 178.2 310.8C177.7 311 177.9 313.7 178.9 314.4C179.9 315 179.8 314.3 180 315.3C180.2 316.3 180.5 315.4 180.5 315.4L181.1 313.7L179.8 313.3Z" fill="#FFC6CA"/>
<path d="M189.8 314.7C190.8 314.7 191.6 313.7 191.6 312.5V305.8L189.7 306.4L189.8 314.7Z" fill="#004E4A"/>
<path d="M189.3 313.2C189.3 313.2 190.3 313.4 190.3 312.3C190.3 311.2 190.3 310.5 190.8 310.6C191.3 310.8 191.2 313.5 190.2 314.2C189.2 314.9 189.3 314.1 189.1 315.1C189 316.1 188.6 315.2 188.6 315.2L187.9 313.6L189.3 313.2Z" fill="#FFC6CA"/>
<path d="M178.3 310.9H178.8L178.7 307C178.7 307 179.7 308.7 182.3 308.7C184.9 308.7 185.9 307.2 186.5 306.6C187.1 306 187.6 305.2 188.4 305.2C189.3 305.2 189.5 305.9 189.5 306.8C189.5 307.6 189.6 311 189.6 311H190.2C190.2 311 190.9 305.8 190.9 304.4C190.8 303 189.8 298.9 186 299C182.2 299.1 182.5 300.9 179.4 301.6C176.4 302.2 178.3 310.9 178.3 310.9Z" fill="#004E4A"/>
<path d="M179 313L179.1 320.5C179.1 320.5 179.2 324.4 184.3 324.3C189.4 324.2 190.1 321.6 190 320.6C190 319.6 189.901 312.7 189.901 312.7C189.901 312.7 189.201 312.9 189.201 313.7C189.201 314.5 189.101 315.6 188.401 315.6C187.701 315.6 187.7 313.1 186.3 313.1C184.9 313.1 182.5 313.2 182.5 313.2C182.5 313.2 181.6 313.5 181.5 314.6C181.4 315.8 180.401 315.9 180.401 315.9C180.401 315.9 179.6 316 179.6 313.8C179.6 314 179.6 313.2 179 313Z" fill="#004E4A"/>
<path d="M176.2 368.3L173.5 427.4L180 428.2C180 428.2 185.8 387.5 186.6 386.8C187.4 386.1 188.6 384.7 188.6 384.7L187.8 389.8L184.6 426.4H190C190 426.4 193.9 399.1 195.5 395.3C197 391.5 203 371.5 200.8 365.9C200.7 365.3 176.2 368.3 176.2 368.3Z" fill="#00848A"/>
<path d="M195.7 347.4L189.9 354.7L193.9 358L188.3 364.6L184.3 361.3L183.2 362.6L187.2 365.9L181.6 372.5L177.6 369.2L176.1 371L169.5 365.4L189.1 341.8L189.2 340.9C191.4 343.3 193.8 345.5 196.5 347.2L195.7 347.4Z" fill="#927961"/>
<path d="M196.8 311.7C186.9 315.5 182 326.6 185.8 336.5C186.6 338.7 187.9 340.7 189.3 342.3C190.4 343.6 191.7 344.7 193.2 345.6C198.2 348.9 204.6 349.8 210.6 347.5C220.5 343.7 225.4 332.6 221.6 322.7C217.8 312.9 206.7 307.9 196.8 311.7ZM192.8 333.7C190.5 327.8 193.5 321.1 199.4 318.8C205.3 316.5 212 319.5 214.3 325.4C216.6 331.3 213.6 338 207.7 340.3C201.7 342.6 195.1 339.6 192.8 333.7Z" fill="#927961"/>
<path d="M194 345.7L188.2 353L192.2 356.3L186.6 362.9L182.6 359.6L181.5 360.9L185.5 364.2L179.9 370.8L175.9 367.5L174.4 369.3L167.8 363.7L187.4 340.1L187.5 339.2C189.7 341.6 192.1 343.8 194.8 345.5L194 345.7Z" fill="#DFB388"/>
<path d="M195.1 310C185.2 313.8 180.3 324.9 184.1 334.8C184.9 337 186.2 339 187.6 340.6C188.7 341.9 190 343 191.5 343.9C196.5 347.2 202.9 348.1 208.9 345.8C218.8 342 223.7 330.9 219.9 321C216.1 311.2 205 306.2 195.1 310ZM191.1 332C188.8 326.1 191.8 319.4 197.7 317.1C203.6 314.8 210.3 317.8 212.6 323.7C214.9 329.6 211.9 336.3 206 338.6C200.1 340.9 193.4 337.9 191.1 332Z" fill="#DFB388"/>
<path d="M189.2 349.1C189.2 349.1 191.8 344 192.3 344.2C192.8 344.4 191.5 347.3 191.5 347.3C191.5 347.3 197.4 346.5 197.4 347.9C197.4 349.3 199.2 351.8 193.3 352.8C187.4 353.8 186.4 353.6 186.4 353.6V350.3L189.2 349.1Z" fill="#FFC6CA"/>
<path d="M173.8 324.4C175.7 322.9 176.4 340.3 177.7 352.5L188.3 347.9L190.3 354C190.3 354 176.8 366.8 173.1 361.4C169.4 356 160.8 334.6 173.8 324.4Z" fill="#C78B99"/>
<path d="M392.7 123.7C398.7 123.4 411.6 126.2 414.8 147C418 167.8 416.9 172 416.9 172H370.5L374.8 126.5L392.7 123.7Z" fill="#4D576D"/>
<path d="M299.2 123.7H392.7C392.7 123.7 380 128.3 380 155.7C380 183.1 391.8 267.5 369.5 280.5H275.5C275.5 280.5 287.3 267.5 287.7 250.3C288.1 233.1 277.7 136.2 299.2 123.7Z" fill="white"/>
<path d="M275.6 280.5C270.3 281 262.8 279.6 261.7 273.1H358C358 273.1 361.1 280.5 369.6 280.5H275.6Z" fill="#4D576D"/>
<path d="M295.6 144.5H323.7C324.2 144.5 324.7 144 324.7 143.5V143.3C324.7 142.8 324.3 142.3 323.7 142.3H295.6C295.1 142.3 294.6 142.8 294.6 143.3V143.5C294.6 144 295 144.5 295.6 144.5Z" fill="#727289"/>
<path d="M295.6 153.5H323.7C324.2 153.5 324.7 153 324.7 152.5V152.3C324.7 151.8 324.3 151.3 323.7 151.3H295.6C295.1 151.3 294.6 151.8 294.6 152.3V152.5C294.6 153 295 153.5 295.6 153.5Z" fill="#727289"/>
<path d="M291.3 177.4H308.3C308.6 177.4 308.9 176.9 308.9 176.3V176.1C308.9 175.5 308.6 175 308.3 175H291.3C291 175 290.7 175.5 290.7 176.1V176.3C290.7 176.9 290.9 177.4 291.3 177.4Z" fill="#727289"/>
<path d="M291.3 182.2H308.3C308.6 182.2 308.9 181.7 308.9 181.1V180.9C308.9 180.3 308.6 179.8 308.3 179.8H291.3C291 179.8 290.7 180.3 290.7 180.9V181.1C290.7 181.7 290.9 182.2 291.3 182.2Z" fill="#727289"/>
<path d="M291.3 190.1H308.3C308.6 190.1 308.9 189.6 308.9 189V188.8C308.9 188.2 308.6 187.7 308.3 187.7H291.3C291 187.7 290.7 188.2 290.7 188.8V189C290.7 189.6 290.9 190.1 291.3 190.1Z" fill="#727289"/>
<path d="M291.3 194.9H308.3C308.6 194.9 308.9 194.4 308.9 193.8V193.6C308.9 193 308.6 192.5 308.3 192.5H291.3C291 192.5 290.7 193 290.7 193.6V193.8C290.7 194.4 290.9 194.9 291.3 194.9Z" fill="#727289"/>
<path d="M291.3 203H308.3C308.6 203 308.9 202.5 308.9 201.9V201.7C308.9 201.1 308.6 200.6 308.3 200.6H291.3C291 200.6 290.7 201.1 290.7 201.7V201.9C290.7 202.5 290.9 203 291.3 203Z" fill="#727289"/>
<path d="M291.3 207.8H308.3C308.6 207.8 308.9 207.3 308.9 206.7V206.5C308.9 205.9 308.6 205.4 308.3 205.4H291.3C291 205.4 290.7 205.9 290.7 206.5V206.7C290.7 207.3 290.9 207.8 291.3 207.8Z" fill="#727289"/>
<path d="M293.1 218.5H365C366.3 218.5 367.4 218 367.4 217.4V217.2C367.4 216.6 366.3 216.1 365 216.1H293.1C291.8 216.1 290.7 216.6 290.7 217.2V217.4C290.7 218 291.8 218.5 293.1 218.5Z" fill="#727289"/>
<path d="M293.1 226.4H365C366.3 226.4 367.4 225.9 367.4 225.3V225.1C367.4 224.5 366.3 224 365 224H293.1C291.8 224 290.7 224.5 290.7 225.1V225.3C290.7 225.9 291.8 226.4 293.1 226.4Z" fill="#727289"/>
<path d="M293.1 235.5H365C366.3 235.5 367.4 235 367.4 234.4V234.2C367.4 233.6 366.3 233.1 365 233.1H293.1C291.8 233.1 290.7 233.6 290.7 234.2V234.4C290.7 235 291.8 235.5 293.1 235.5Z" fill="#727289"/>
<path d="M293.1 243.8H365C366.3 243.8 367.4 243.3 367.4 242.7V242.5C367.4 241.9 366.3 241.4 365 241.4H293.1C291.8 241.4 290.7 241.9 290.7 242.5V242.7C290.7 243.3 291.8 243.8 293.1 243.8Z" fill="#727289"/>
<path d="M364.3 182.5H316.3C315.3 182.5 314.5 181.7 314.5 180.6V176.3C314.5 175.3 315.3 174.4 316.3 174.4H364.3C365.3 174.4 366.1 175.2 366.1 176.3V180.6C366.1 181.7 365.3 182.5 364.3 182.5Z" fill="#CDD7E3"/>
<path d="M364.3 194.9H316.3C315.3 194.9 314.5 194.1 314.5 193V188.7C314.5 187.7 315.3 186.8 316.3 186.8H364.3C365.3 186.8 366.1 187.6 366.1 188.7V193C366.1 194.1 365.3 194.9 364.3 194.9Z" fill="#CDD7E3"/>
<path d="M322.1 208.4H315.4C314.9 208.4 314.6 208 314.6 207.5V201.2C314.6 200.7 315 200.3 315.4 200.3H322.1C322.6 200.3 322.9 200.7 322.9 201.2V207.5C323 208 322.6 208.4 322.1 208.4Z" fill="#CDD7E3"/>
<path d="M333 208.4H326.3C325.8 208.4 325.5 208 325.5 207.5V201.2C325.5 200.7 325.9 200.3 326.3 200.3H333C333.5 200.3 333.8 200.7 333.8 201.2V207.5C333.9 208 333.5 208.4 333 208.4Z" fill="#CDD7E3"/>
<path d="M343.9 208.4H337.2C336.7 208.4 336.4 208 336.4 207.5V201.2C336.4 200.7 336.8 200.3 337.2 200.3H343.9C344.4 200.3 344.7 200.7 344.7 201.2V207.5C344.7 208 344.4 208.4 343.9 208.4Z" fill="#CDD7E3"/>
<path d="M354.8 208.4H348C347.5 208.4 347.2 208 347.2 207.5V201.2C347.2 200.7 347.6 200.3 348 200.3H354.7C355.2 200.3 355.5 200.7 355.5 201.2V207.5C355.6 208 355.2 208.4 354.8 208.4Z" fill="#CDD7E3"/>
<path d="M365.7 208.4H359C358.5 208.4 358.2 208 358.2 207.5V201.2C358.2 200.7 358.6 200.3 359 200.3H365.7C366.2 200.3 366.5 200.7 366.5 201.2V207.5C366.5 208 366.1 208.4 365.7 208.4Z" fill="#CDD7E3"/>
<path d="M363.9 257.9H341.5C340.8 257.9 340.2 257.3 340.2 256.5V251.2C340.2 250.4 340.8 249.8 341.5 249.8H363.9C364.6 249.8 365.2 250.4 365.2 251.2V256.5C365.2 257.3 364.6 257.9 363.9 257.9Z" fill="#CDD7E3"/>
<path d="M120.701 238.7C139.312 238.7 154.401 223.612 154.401 205C154.401 186.388 139.312 171.3 120.701 171.3C102.089 171.3 87.0005 186.388 87.0005 205C87.0005 223.612 102.089 238.7 120.701 238.7Z" fill="#C9DDE5"/>
<path d="M93.2006 272.2L93.4006 272.1L93.6006 272C93.7006 271.9 93.9006 271.8 94.0006 271.7C94.3006 271.5 94.6006 271.3 94.9006 271.1C95.5006 270.7 96.0006 270.2 96.6006 269.7C97.7006 268.8 98.7006 267.7 99.7006 266.7C101.701 264.6 103.401 262.2 104.901 259.7C106.401 257.2 107.601 254.5 108.601 251.8C109.601 249.1 110.401 246.2 110.901 243.4C111.001 242.9 111.501 242.6 112.101 242.7C112.601 242.8 113.001 243.2 112.901 243.7C112.601 246.7 112.001 249.7 111.201 252.6C110.401 255.5 109.301 258.4 108.001 261.2C106.601 264 105.001 266.7 103.001 269.2C102.001 270.5 101.001 271.7 99.8006 272.8C99.2006 273.4 98.6006 273.9 98.0006 274.5C97.7006 274.8 97.4006 275 97.0006 275.3C96.8006 275.4 96.7006 275.6 96.5006 275.7L96.2006 275.9L96.1006 276L95.9006 276.1C94.8006 276.8 93.2006 276.5 92.5006 275.5C91.8006 274.3 92.1006 272.9 93.2006 272.2Z" fill="#FFC6CA"/>
<path d="M90.2002 355.8L91.3002 360.1L93.5002 359.7L92.8002 355L90.2002 355.8Z" fill="#FFC6CA"/>
<path d="M89.1003 356.6L94.4003 356.2C94.4003 356.2 95.9003 322.4 95.2003 316C94.5003 309.7 95.2003 297.3 95.2003 297.3L89.2003 301.1L86.2003 321.8L84.8003 325C84.8003 325 87.4003 330.9 87.5003 335.1C87.5003 339.2 85.2003 346.1 89.1003 356.6Z" fill="#004E4A"/>
<path d="M90.3005 359.2L94.5005 359.8C94.5005 359.8 98.9005 362.1 98.2005 363.6C97.5005 365.1 90.1005 362.9 90.1005 362.9C90.1005 362.9 89.8005 359.5 90.3005 359.2Z" fill="#004E4A"/>
<path d="M64.6003 323.8L61.4003 320.7L59.8003 322.7L63.4003 325.7L64.6003 323.8Z" fill="#FFC6CA"/>
<path d="M94.5002 250.8C94.5002 250.8 96.2002 254.5 96.2002 254.8C96.7002 256.5 98.2002 263.1 93.1002 263.8L94.2002 269L96.4002 271.9C96.4002 271.9 92.5002 271.5 88.9002 270L85.2002 256.9L88.3002 253.6L92.6002 251.2L94.5002 250.8Z" fill="#FFC6CA"/>
<path d="M91.4005 269.3L95.2005 269.7C95.2005 269.7 100.7 278.1 100 280.5C99.3004 283 95.7005 293.1 95.7005 296.4L84.7005 295.3C84.7005 295.3 83.7005 279.4 83.9005 275C84.1005 270.6 86.1004 268.9 86.1004 268.9L91.4005 269.3Z" fill="#C1987C"/>
<path d="M95.7003 296.5C95.7003 296.5 88.8003 332.6 80.5003 338.3C70.8003 345 59.3003 326.7 59.3003 326.7L66.3003 321.1C66.3003 321.1 75.0003 335.9 77.8003 328.6C80.7003 321.4 77.4003 307.7 79.2003 303.9C81.0003 300.2 84.7003 295.3 84.7003 295.3L95.7003 296.5Z" fill="#00848A"/>
<path d="M62.5004 320.4L59.6004 323.5C59.6004 323.5 55.2005 325.8 54.4005 324.3C53.6005 322.9 59.7004 318.1 59.7004 318.1C59.7004 318.1 62.6004 319.9 62.5004 320.4Z" fill="#004E4A"/>
<path d="M96.4004 249.4C96.4004 249.4 98.3004 252.8 92.5004 253.3C86.7004 253.7 87.9004 255.5 87.9004 255.5C87.9004 255.5 95.4004 264.7 86.9004 267.6C82.1004 269.2 75.1004 262.2 78.2004 255.4C81.2004 248.6 78.1004 249.5 84.2004 248.3C90.3004 247.1 90.3004 244.5 96.4004 249.4Z" fill="#00848A"/>
<path d="M86.2005 249.7C86.2005 249.3 89.2005 241.7 83.5005 243.1C77.8005 244.5 70.5006 249.3 74.4006 251.7C78.3006 254.1 81.5005 254.4 82.8005 253.6C83.9005 252.7 86.2005 249.7 86.2005 249.7Z" fill="#00848A"/>
<path d="M84.4005 274.7C84.4005 274.7 84.4005 274.6 84.4005 274.7V274.5V274.3C84.4005 274.1 84.4004 274 84.5004 273.8C84.5004 273.5 84.6004 273.1 84.6004 272.7C84.6004 272 84.6004 271.3 84.6004 270.5C84.6004 269 84.4005 267.6 84.2005 266.2C83.8005 263.3 83.0004 260.5 82.1004 257.7C81.1004 255 79.8005 252.3 78.4005 249.8C76.9005 247.3 75.2004 244.9 73.3004 242.7C73.0004 242.3 73.0004 241.7 73.5004 241.3C73.9004 241 74.5004 241 74.8004 241.3C76.9004 243.4 78.9004 245.8 80.6004 248.3C82.4004 250.8 83.9005 253.5 85.2005 256.3C86.5005 259.1 87.5005 262.1 88.2005 265.2C88.5005 266.8 88.8004 268.3 89.0004 270C89.1004 270.8 89.1005 271.6 89.2005 272.5C89.2005 272.9 89.2005 273.3 89.2005 273.8C89.2005 274 89.2005 274.2 89.2005 274.4V274.7V274.9V275.1C89.0005 276.4 87.8004 277.4 86.5004 277.3C85.2004 277.1 84.3005 276 84.4005 274.7Z" fill="#FFC6CA"/>
<path d="M81.8003 200.7C80.7003 209.3 82.5003 217.6 86.5003 224.6L81.9003 228.2L56.1002 248C54.1002 249.6 50.7003 254.7 52.2003 256.7C53.8003 258.7 59.5003 257 61.5003 255.5L91.9003 232C97.8003 238.3 105.9 242.7 115.1 243.8C136.2 246.5 155.5 231.6 158.2 210.4C160.9 189.3 146 170 124.8 167.3C103.8 164.6 84.5003 179.5 81.8003 200.7ZM88.0003 201.4C90.3003 183.7 106.4 171.2 124.1 173.5C141.8 175.8 154.3 191.9 152 209.6C149.7 227.3 133.6 239.8 115.9 237.5C98.3003 235.3 85.8003 219.1 88.0003 201.4Z" fill="#4D576D"/>
<path d="M52.3003 256.8C53.9003 258.8 56.7004 259.2 58.7004 257.6L83.3003 238.6C85.3003 237 85.7003 234.2 84.1003 232.2C82.5003 230.2 79.7004 229.8 77.7004 231.4L53.1003 250.4C51.1003 251.9 50.8003 254.8 52.3003 256.8Z" fill="#727289"/>
<path d="M84.4005 274.7C84.4005 274.7 84.4005 274.6 84.4005 274.7V274.5V274.3C84.4005 274.1 84.4004 274 84.5004 273.8C84.5004 273.5 84.6004 273.1 84.6004 272.7C84.6004 272 84.6004 271.3 84.6004 270.5C84.6004 269 84.4005 267.6 84.2005 266.2C83.8005 263.3 83.0004 260.5 82.1004 257.7C81.1004 255 79.8005 252.3 78.4005 249.8C76.9005 247.3 75.2004 244.9 73.3004 242.7C73.0004 242.3 73.0004 241.7 73.5004 241.3C73.9004 241 74.5004 241 74.8004 241.3C76.9004 243.4 78.9004 245.8 80.6004 248.3C82.4004 250.8 83.9005 253.5 85.2005 256.3C86.5005 259.1 87.5005 262.1 88.2005 265.2C88.5005 266.8 88.8004 268.3 89.0004 270C89.1004 270.8 89.1005 271.6 89.2005 272.5C89.2005 272.9 89.2005 273.3 89.2005 273.8C89.2005 274 89.2005 274.2 89.2005 274.4V274.7V274.9V275.1C89.0005 276.4 87.8004 277.4 86.5004 277.3C85.2004 277.1 84.3005 276 84.4005 274.7Z" fill="#FFC6CA"/>
<path d="M119.7 194.8C123.511 194.8 126.6 191.711 126.6 187.9C126.6 184.089 123.511 181 119.7 181C115.89 181 112.8 184.089 112.8 187.9C112.8 191.711 115.89 194.8 119.7 194.8Z" fill="white"/>
<path d="M103 199.3C105.21 199.3 107 197.509 107 195.3C107 193.091 105.21 191.3 103 191.3C100.791 191.3 99.0005 193.091 99.0005 195.3C99.0005 197.509 100.791 199.3 103 199.3Z" fill="white"/>
<path d="M364.5 152.2V143.3H333.9V167.9H364.5V159.4" stroke="#727289" stroke-width="2.3137" stroke-miterlimit="10" stroke-linecap="round" stroke-linejoin="round"/>
<path d="M364.5 159.4H372.1" stroke="#727289" stroke-width="2.3137" stroke-miterlimit="10" stroke-linecap="round" stroke-linejoin="round"/>
<path d="M346.4 167.9V153.9" stroke="#727289" stroke-width="2.3137" stroke-miterlimit="10" stroke-linecap="round" stroke-linejoin="round"/>
<path d="M346.4 143.3V146.5" stroke="#727289" stroke-width="2.3137" stroke-miterlimit="10" stroke-linecap="round" stroke-linejoin="round"/>
<path d="M474.2 300.4C474.2 300.4 471.9 298.4 468.8 299.1C465.8 299.8 466.9 306.6 466.9 306.6C466.9 306.6 471.2 319.3 471.9 323.9C472.4 327.3 460.8 323.7 454.1 321.5C453.5 321.3 452.7 322.3 452.7 322.3L451.9 325.4C455.5 329.5 474.4 340.9 478.1 329.2C481.8 317.4 478.5 309.7 475.7 302.5L474.2 300.4Z" fill="#C1987C"/>
</svg>
