<svg width="24" height="20" viewBox="0 0 24 20" fill="none" xmlns="http://www.w3.org/2000/svg">
<path d="M0.699951 16.6V18.6H1.69995V16.6H0.699951ZM2.09995 13.4C1.29995 14.2 0.79995 15.4 0.79995 16.6H1.79995C1.79995 15.7 2.19995 14.8 2.79995 14.1L2.09995 13.4ZM5.19995 12.1C3.99995 12.1 2.89995 12.6 1.99995 13.4L2.69995 14.1C3.39995 13.4 4.19995 13.1 5.19995 13.1V12.1ZM13.1999 12.1H5.19995V13.1H13.1999V12.1ZM16.4 13.4C15.6 12.6 14.3999 12.1 13.1999 12.1V13.1C14.0999 13.1 14.9999 13.5 15.6999 14.1L16.4 13.4ZM17.6999 16.6C17.6999 15.4 17.2 14.3 16.4 13.4L15.6999 14.1C16.3999 14.8 16.6999 15.6 16.6999 16.6H17.6999ZM17.6999 18.6V16.6H16.6999V18.6H17.6999ZM0.699951 18.6C0.699951 18.9 0.899951 19.1 1.19995 19.1C1.49995 19.1 1.69995 18.9 1.69995 18.6H0.699951ZM1.19995 16.6H0.699951H1.19995ZM5.19995 12.6V12.1V12.6ZM13.1999 12.6V12.1V12.6ZM16.6999 18.6C16.6999 18.9 16.8999 19.1 17.1999 19.1C17.4999 19.1 17.6999 18.9 17.6999 18.6H16.6999Z" fill="#C19771"/>
<path d="M9.19995 1.10002C11.1 1.10002 12.7 2.70002 12.7 4.60002H13.7C13.7 2.10002 11.7 0.100021 9.19995 0.100021V1.10002ZM5.69995 4.60002C5.69995 2.70002 7.29995 1.10002 9.19995 1.10002V0.100021C6.69995 0.100021 4.69995 2.10002 4.69995 4.60002H5.69995ZM9.19995 8.10002C7.29995 8.10002 5.69995 6.50002 5.69995 4.60002H4.69995C4.69995 7.10002 6.69995 9.10002 9.19995 9.10002V8.10002ZM12.7 4.60002C12.7 6.50002 11.1 8.10002 9.19995 8.10002V9.10002C11.7 9.10002 13.7 7.10002 13.7 4.60002H12.7Z" fill="#C19771"/>
<path d="M22.7999 13.8C22.1999 13 21.2999 12.4 20.3999 12.2L20.0999 13.2C20.8999 13.4 21.4999 13.8 21.9999 14.4L22.7999 13.8ZM23.6999 16.6C23.6999 15.6 23.3999 14.6 22.7999 13.8L21.9999 14.4C22.4999 15 22.6999 15.8 22.6999 16.5L23.6999 16.6ZM23.6999 18.6V16.6H22.6999V18.6H23.6999ZM20.3999 12.2C20.0999 12.1 19.8999 12.3 19.7999 12.6C19.6999 12.9 19.8999 13.1 20.1999 13.2L20.3999 12.2ZM23.1999 16.6H23.6999H23.1999ZM22.6999 18.6C22.6999 18.9 22.8999 19.1 23.1999 19.1C23.4999 19.1 23.6999 18.9 23.6999 18.6H22.6999Z" fill="#C19771"/>
<path d="M18 6.70004C17.5 7.30004 16.9 7.80002 16.1 7.90002L16.3 8.90002C17.3 8.70002 18.1 8.10002 18.7 7.30002L18 6.70004ZM18.8 4.60003C18.8 5.40003 18.5 6.10004 18.1 6.70004L18.9 7.30002C19.5 6.50002 19.8 5.50003 19.8 4.50003H18.8V4.60003ZM18 2.40002C18.5 3.00002 18.7 3.80003 18.7 4.50003H19.7C19.7 3.50003 19.4 2.50004 18.8 1.70004L18 2.40002ZM16.1 1.20004C16.9 1.40004 17.5 1.80002 18 2.40002L18.8 1.80002C18.2 1.00002 17.3 0.40004 16.4 0.20004L16.1 1.20004ZM16.1 8.00003C15.8 8.10003 15.7 8.30003 15.7 8.60003C15.8 8.90003 16 9.00003 16.3 9.00003L16.1 8.00003ZM19.3 4.60003H19.8H19.3ZM16.4 0.20004C16.1 0.10004 15.9 0.300034 15.8 0.600034C15.7 0.900034 15.9 1.10004 16.2 1.20004L16.4 0.20004Z" fill="#C19771"/>
</svg>
