<svg width="120" height="120" viewBox="0 0 120 120" fill="none" xmlns="http://www.w3.org/2000/svg">
<path d="M32.2998 55.5C32.2998 48 32.2998 40.5 32.2998 32.9C32.2998 32.8 32.2998 32.7 32.2998 32.6C32.2998 31.6 32.4998 31.4 33.4998 31.4C44.5998 31.4 55.5998 31.4 66.6998 31.4C67.0998 31.4 67.5998 31.4 67.9998 31.4C68.8998 31.4 69.1998 31.7 69.1998 32.6C69.1998 43 69.1998 53.3 69.1998 63.7C69.1998 63.9 69.1998 64.2 69.0998 64.3C68.8998 64.5 68.5998 64.8 68.2998 64.9C67.8998 65 67.6998 64.7 67.5998 64.3C67.4998 64.1 67.4998 63.8 67.4998 63.5C67.4998 53.7 67.4998 43.9 67.4998 34.1C67.4998 33.4 67.3998 33.3 66.6998 33.4C66.1998 33.4 65.7998 33.4 65.2998 33.4C55.1998 33.4 44.9998 33.4 34.8998 33.4C34.2998 33.4 34.1998 33.4 34.1998 34.1C34.1998 47.4 34.1998 60.7 34.1998 74C34.1998 75.1 34.1998 75.1 35.2998 74.9C35.7998 74.8 36.2998 74.8 36.6998 74.8C43.0998 74.8 49.4998 74.8 55.8998 74.8C56.0998 74.8 56.3998 74.8 56.5998 74.9C56.9998 75 57.1998 75.3 57.1998 75.7C57.1998 76.1 56.8998 76.5 56.4998 76.6C56.2998 76.7 55.9998 76.6 55.6998 76.6C49.1998 76.6 42.7998 76.6 36.2998 76.6C35.3998 76.6 34.7998 76.9 34.2998 77.7C33.5998 78.8 34.4998 80.4 35.6998 80.7C35.9998 80.7 36.1998 80.8 36.4998 80.8C42.9998 80.8 49.3998 80.8 55.8998 80.8C55.9998 80.8 56.0998 80.8 56.1998 80.8C56.7998 80.9 57.1998 81.3 57.1998 81.7C57.1998 82.1 56.7998 82.5 56.1998 82.6C56.0998 82.6 55.8998 82.6 55.7998 82.6C49.3998 82.6 42.9998 82.6 36.5998 82.6C35.3998 82.6 34.2998 82.3 33.4998 81.5C32.8998 81 32.3998 80.3 32.3998 79.5C32.3998 78.5 32.2998 77.6 32.2998 76.6C32.2998 69.4 32.2998 62.4 32.2998 55.5Z" fill="#C19771"/>
<path d="M5.2001 4.20004C5.2001 4.30004 5.10006 4.5 5.10006 4.6C5.10006 9.8 5.10006 14.9 5.10006 20.1C5.10006 21.8 5.10006 23.5 5.10006 25.2C5.10006 25.3 5.2001 25.5 5.2001 25.6C5.3001 25.5 5.40009 25.5 5.50009 25.4C7.00009 23.5 8.60006 21.5 10.1001 19.5C11.1001 18.2 12.1001 17 13.0001 15.7C13.1001 15.5 13.2001 15.2 13.1001 15C12.7001 13.7 13.3001 12.4 14.7001 11.8C15.8001 11.4 17.4001 12 17.7001 13.2C17.9001 14.1 18.5001 14.3 19.1001 14.6C21.0001 15.4 22.9001 16.3 24.7001 17.1C24.9001 17.2 25.1001 17.1 25.3001 17C25.9001 16.7 26.5001 16.3 27.2001 16.5C27.4001 16.5 27.7001 16.3 27.8001 16.1C29.6001 13.1 31.4001 10.1 33.2001 7.1C33.3001 6.9 33.5001 6.70002 33.6001 6.50002C33.7001 6.40002 33.7001 6.2 33.7001 6.1C33.5001 6.1 33.4001 6 33.2001 6.1C32.6001 6.2 32.0001 6.4 31.3001 6.6C30.6001 6.8 29.9001 6.9 29.2001 7.1C28.6001 7.2 28.2001 6.90005 28.1001 6.40005C28.0001 6.00005 28.3001 5.50005 28.8001 5.40005C30.3001 5.00005 31.9001 4.70001 33.4001 4.30001C34.1001 4.10001 34.8001 3.90001 35.6001 3.80001C36.3001 3.70001 36.5001 3.80002 36.7001 4.50002C37.1001 6.20002 37.5001 7.90004 37.9001 9.70004C38.0001 10.2 38.1001 10.6 38.2001 11.1C38.3001 11.8 38.1001 12.3 37.5001 12.4C37.0001 12.5 36.5001 12.1 36.3001 11.5C36.0001 10.3 35.8001 9.10005 35.5001 7.90005C35.5001 7.70005 35.3001 7.60005 35.2001 7.40005C35.1001 7.50005 35.0001 7.70001 34.9001 7.80001C34.1001 9.10001 33.4001 10.5 32.6001 11.8C31.4001 13.7 30.3001 15.7 29.1001 17.6C29.0001 17.8 29.0001 18.1 29.1001 18.3C29.4001 19.3 29.1001 20.3 28.3001 20.9C26.9001 22 25.1001 21.3 24.6001 19.8C24.4001 19.2 24.0001 18.9 23.4001 18.6C21.5001 17.8 19.7001 17 17.8001 16.2C17.5001 16 17.2001 16.1 16.9001 16.3C16.4001 16.7 15.8001 17 15.0001 16.8C14.8001 16.8 14.5001 16.9 14.4001 17.1C13.3001 18.5 12.1001 19.9 11.0001 21.3C9.70009 22.9 8.5001 24.5 7.2001 26.1C6.5001 27 5.80006 27.8 5.10006 28.7C5.00006 28.9 4.90011 29.1 4.90011 29.3C4.90011 30.8 4.90011 32.4 4.90011 33.9C4.90011 34.3 5.00009 34.5 5.50009 34.4C5.80009 34.4 6.10011 34.4 6.40011 34.4C13.6001 34.4 20.9001 34.4 28.1001 34.4C28.6001 34.4 29.1001 34.5 29.7001 34.6C30.1001 34.7 30.3001 35 30.2001 35.3C30.2001 35.7 30.1001 36 29.7001 36.2C29.5001 36.3 29.2001 36.3 28.9001 36.3C20.7001 36.3 12.5001 36.3 4.40011 36.3C3.40011 36.3 3.00009 35.9 3.00009 35C3.00009 27.3 3.00009 19.7 3.00009 12C3.00009 9.70002 3.00009 7.30002 3.00009 5.00002C3.00009 4.90002 2.90007 4.7 2.80007 4.6C2.70007 4.7 2.50011 4.70001 2.40011 4.80001C2.20011 5.00001 2.10011 5.10001 1.90011 5.30001C1.40011 5.60001 1.1001 5.5 0.700098 5.1C0.400098 4.8 0.400098 4.30002 0.700098 4.00002C1.6001 3.10002 2.50011 2.20001 3.40011 1.30001C3.80011 1.00001 4.20009 1.00001 4.50009 1.30001C5.40009 2.20001 6.30006 3.00005 7.10006 3.90005C7.50006 4.40005 7.40011 5.00005 6.90011 5.40005C6.60011 5.60005 6.20007 5.60004 5.80007 5.20004C5.50007 4.90004 5.30006 4.70005 5.10006 4.40005C5.30006 4.10005 5.2001 4.20004 5.2001 4.20004ZM16.1001 14.3C16.1001 13.9 15.8001 13.6 15.5001 13.7C15.1001 13.7 14.9001 14 14.9001 14.3C14.9001 14.6 15.2001 14.9 15.5001 14.9C15.9001 14.8 16.1001 14.6 16.1001 14.3ZM26.9001 18.4C26.5001 18.4 26.3001 18.6 26.3001 18.9C26.3001 19.3 26.6001 19.6 26.9001 19.6C27.2001 19.6 27.5001 19.3 27.5001 19C27.5001 18.5 27.2001 18.4 26.9001 18.4Z" fill="#C19771"/>
<path d="M100.3 119.3C99.1998 119.3 97.9999 119.4 96.8999 119.3C95.7999 119.2 94.6998 118.8 93.6998 118.4C91.4998 117.7 89.4998 116.4 87.6998 114.9C86.0998 113.5 84.6998 111.8 83.6998 110C82.7998 108.3 81.9998 106.5 81.5998 104.5C81.2998 102.8 81.0998 101.2 81.1998 99.5C81.3998 97.4 81.7998 95.4 82.5998 93.4C83.6998 90.7 85.2998 88.4 87.4998 86.4C89.0998 84.9 90.8999 83.8 92.8999 83C94.7999 82.2 96.7999 81.7 98.8999 81.6C100.6 81.5 102.2 81.7 103.9 82C105.9 82.4 107.8 83.1 109.6 84.1C110.1 84.4 110.6 84.8 111.1 85.1C111.4 85.3 111.6 85.3 111.8 85C112.3 84.4 112.8 83.8 113.3 83.2C113.6 82.8 113.6 82.7 113.2 82.3C112.9 82 112.5 81.8 112.3 81.5C112 81.1 112 80.8 112.3 80.3C112.6 79.9 112.9 79.9 113.3 80.1C113.4 80.2 113.5 80.2 113.6 80.3C114.9 81.4 116.2 82.4 117.4 83.5C118 84 117.9 84.5 117.3 85C117 85.3 116.6 85.3 116.3 85C116 84.7 115.7 84.5 115.4 84.2C115.1 83.9 114.9 84 114.6 84.3C114.1 84.9 113.6 85.6 113.1 86.2C112.9 86.5 113 86.7 113.2 86.9C114.1 88 115.1 89.1 116 90.2C117.3 92 118.1 94 118.6 96.2C119.2 98.4 119.1 100.7 119 103C118.8 105.6 117.9 108 116.6 110.3C115.1 112.8 113.2 115 110.8 116.6C109 117.8 107.1 118.6 105.1 119.2C103.6 119.5 101.9 119.4 100.3 119.3ZM100.3 117.6C110.1 117.4 117.3 110.1 117.5 100.4C117.6 91 110 83.3 100.4 83.4C91.0999 83.4 83.3999 90.8 83.3999 100.3C83.2999 110 90.4998 117.3 100.3 117.6Z" fill="#C19771"/>
<path d="M89.7002 68.3C89.7002 71.9 89.7002 75.5 89.7002 79.1C89.7002 81 88.6002 82.1001 87.1002 82.9001C85.3002 83.8001 83.4002 84.2 81.5002 84.2C80.9002 84.2 80.4002 84.3 79.8002 84.3C79.3002 84.3 78.9002 84.2 78.4002 84.1C77.9002 84 77.6002 83.5 77.7002 83.1C77.8002 82.6 78.3002 82.3 78.8002 82.3C80.0002 82.3 81.2002 82.3 82.4002 82.2C83.7002 82.1 85.0002 81.9 86.1002 81.3C86.6002 81 87.1002 80.8001 87.5002 80.4001C87.7002 80.2001 87.8002 79.8 87.8002 79.5C87.9002 79.2 87.8002 78.8001 87.8002 78.4001C87.8002 78.0001 87.6002 77.9 87.2002 78.1C85.2002 79.2 83.1002 79.7 80.9002 79.6C80.3002 79.6 79.7002 79.6 79.2002 79.6C78.8002 79.6 78.4002 79.4 78.0002 79.2C77.6002 79 77.6002 78.6 77.7002 78.3C77.8002 77.9 78.1002 77.7 78.5002 77.6C78.7002 77.6 79.0002 77.6 79.2002 77.6C80.5002 77.8 81.7002 77.6 82.9002 77.5C84.2002 77.3 85.5002 77 86.6002 76.3C87.6002 75.7 88.0002 74.8 87.7002 73.6C87.6002 73.2 87.4002 73.3001 87.2002 73.4001C86.8002 73.6001 86.4002 73.8 86.0002 74C84.4002 74.7 82.7002 74.9 81.0002 75C80.2002 75 79.5002 75.0001 78.7002 74.9001C78.4002 74.9001 78.1002 74.7 77.9002 74.6C77.4002 74.2 77.6002 73.3 78.3002 73.2C78.7002 73.1 79.2002 73.2 79.6002 73.2C81.5002 73.2 83.4002 73.1001 85.2002 72.4001C85.9002 72.2001 86.5002 71.8 87.1002 71.5C87.6002 71.2 87.8002 70.7 87.8002 70.1C87.8002 69.8 87.8002 69.5 87.8002 69.2C87.8002 68.8 87.6002 68.7001 87.3002 68.9001C85.6002 69.9001 83.8002 70.3001 81.8002 70.4001C80.8002 70.4001 79.8002 70.4001 78.7002 70.4001C78.1002 70.4001 77.6002 69.9001 77.6002 69.4001C77.7002 68.9001 78.3002 68.5 78.9002 68.5C80.1002 68.5 81.3002 68.5001 82.5002 68.4001C83.9002 68.4001 85.2002 67.9 86.4002 67.3C88.0002 66.5 87.8002 66.1 87.8002 64.6C87.8002 64.2 87.5002 64.2001 87.2002 64.4001C86.8002 64.6 86.5002 64.8 86.1002 64.9001C84.7002 65.4001 83.4002 65.8 81.9002 65.8C80.7002 65.8 79.5002 65.9 78.4002 65.8C76.9002 65.6 75.3002 65.3 73.9002 64.5C73.3002 64.2 73.2002 64.2 72.9002 64.8C72.7002 65.2 72.4002 65.3 71.9002 65.3C71.5002 65.2 71.2002 65 71.2002 64.6C71.2002 64.3 71.2002 64.1 71.2002 63.8C71.2002 61.6 71.2002 59.4 71.2002 57.2C71.2002 55.8 71.8002 54.9 72.9002 54.2C74.8002 53 76.9002 52.5001 79.1002 52.4001C80.6002 52.4001 82.1002 52.3 83.6002 52.6C85.4002 52.9 87.0002 53.4 88.4002 54.6C89.3002 55.3 89.7002 56.3001 89.7002 57.4001C89.7002 61 89.7002 64.7 89.7002 68.3ZM80.7002 59.7C81.2002 59.6 82.0002 59.6 82.8002 59.5C83.6002 59.4 84.4002 59.2001 85.2002 58.9001C85.9002 58.6 86.6002 58.2 87.3002 57.7C87.9002 57.2 87.9002 56.6 87.3002 56.1C86.6002 55.4 85.7002 55.1 84.7002 54.8C81.7002 53.9 78.6002 54.0001 75.6002 54.9001C74.8002 55.2001 74.0002 55.5 73.4002 56.2C73.0002 56.7 72.9002 57.1 73.4002 57.6C73.8002 58 74.3002 58.4 74.8002 58.6C76.6002 59.3 78.5002 59.6 80.7002 59.7ZM80.3002 64.2C82.4002 64.1 84.4002 63.9001 86.3002 62.9001C87.2002 62.4001 87.9002 61.9 87.7002 60.7C87.7002 60.5 87.7002 60.4 87.7002 60.2C87.7002 59.8 87.6002 59.7001 87.2002 59.9001C86.8002 60.1 86.4002 60.3 86.0002 60.5C84.6002 61.1 83.1002 61.3 81.6002 61.4001C80.3002 61.5001 79.1002 61.4 77.9002 61.3C76.3002 61.2 74.9002 60.7001 73.5002 59.9001C73.2002 59.7001 73.0002 59.8 73.0002 60.2C73.0002 60.6 73.0002 60.9 73.0002 61.3C73.1002 61.6 73.2002 62 73.4002 62.3C74.2002 63.1 75.2002 63.5 76.3002 63.7C77.7002 63.9 79.0002 64 80.3002 64.2Z" fill="#C19771"/>
<path d="M58.1 77.4C58.1 75.3 58.1 73.3 58.1 71.2C58.1 69.6 58.8 68.6 60 67.8C61.3 67 62.8 66.5 64.3 66.3C67.2 65.9 70 66 72.8 67C73.8 67.4 74.8 67.9 75.6 68.7C76.2 69.4 76.5 70.1 76.5 71C76.5 75.1 76.5 79.3 76.5 83.4C76.5 85.3 75.7 86.5 74.2 87.3C72.7 88.2 71 88.5 69.2 88.7C67.3 89 65.4 88.8 63.5 88.4C61.8 88.1 60.2 87.5 59 86.3C58.3 85.6 58 84.8 58 83.9C58.1 81.7 58.1 79.5 58.1 77.4ZM67.3 73.4C68.3 73.3 69.3 73.2 70.3 73C71.5 72.8 72.8 72.5 73.8 71.7C74.9 70.8 75.2 70.3 73.6 69.3C72.6 68.6 71.4 68.4 70.3 68.2C69.5 68 68.7 68 68 68C66.3 67.9 64.6 68.1 62.9 68.6C62 68.9 61.1 69.2 60.4 70C59.9 70.6 59.9 70.8 60.4 71.3C61 72 61.8 72.4 62.7 72.6C64.2 73.1 65.7 73.3 67.3 73.4ZM69 86.9C70.1 86.9 71.4 86.6 72.6 86C73.2 85.7 73.8 85.3 74.3 84.8C74.9 84.2 74.6 83.4 74.6 82.7C74.6 82.4 74.4 82.5 74.2 82.6C73.8 82.8 73.4 83.1 73 83.2C71.1 83.9 69.1 84.2 67.1 84.2C66.6 84.2 66.2 84.1 65.7 84.1C65 84 64.2 84 63.6 83.8C62.5 83.5 61.5 83 60.4 82.6C60.1 82.5 59.9 82.5 59.9 82.9C59.9 83.2 59.9 83.4 59.9 83.7C59.8 84.3 60.1 84.8 60.6 85.2C62.2 86.3 64 86.7 65.9 86.8C66.9 86.9 67.8 86.9 69 86.9ZM67.4 82.5C67.8 82.4 68.3 82.4 68.7 82.3C70.2 82.1 71.6 82 73 81.3C74.3 80.7 74.8 79.9 74.8 78.5C74.8 78.1 74.6 77.9 74.3 78.1C73.5 78.5 72.7 78.9 71.8 79.2C71.1 79.4 70.3 79.6 69.5 79.7C67.4 79.8 65.4 79.9 63.4 79.3C62.5 79 61.7 78.7 60.8 78.3C60.6 78.2 60.5 78.1 60.3 78.1C60.2 78.1 60 78.2 59.9 78.3C59.6 79.6 60.3 80.7 61.5 81.3C63.4 82.1 65.4 82.3 67.4 82.5ZM67.3 77.8C67.3 77.9 67.3 77.9 67.3 78C68.5 77.8 69.7 77.6 70.9 77.5C71.8 77.4 72.6 77 73.4 76.6C74.5 76 74.9 75.2 74.7 74C74.6 73.6 74.5 73.5 74.2 73.8C73.9 74 73.7 74.1 73.4 74.3C71.4 75.2 69.2 75.4 67.1 75.5C66.6 75.5 66.1 75.4 65.7 75.4C64 75.3 62.4 74.9 60.9 74.1C60.7 74 60.5 74 60.2 73.9C60.2 74.1 60.1 74.3 60.1 74.6C60.1 74.8 60.1 74.9 60.1 75.1C60 75.7 60.3 76.2 60.7 76.4C61.5 76.9 62.2 77.3 63 77.6C64.4 77.7 65.8 77.9 67.3 77.8Z" fill="#C19771"/>
<path d="M60.1002 119.4C56.0002 119.5 52.0002 119.1 48.0002 118.3C45.0002 117.7 42.0002 117 39.2002 115.8C36.5002 114.7 33.8002 113.6 31.3002 112.2C27.8002 110.3 24.5002 108 21.5002 105.3C19.6002 103.6 17.7002 101.9 16.0002 100.1C14.7002 98.7 13.5002 97.1 12.3002 95.5C11.6002 94.7 11.0002 93.8 10.4002 92.9C9.50021 91.6 8.70021 90.2 7.90021 88.8C6.50021 86.2 5.3002 83.5 4.2002 80.7C3.2002 78.3 2.60018 75.8 2.00018 73.3C1.50018 71.3 1.00021 69.2 0.900208 67.1C0.900208 66.6 0.800195 66 0.700195 65.5C0.700195 65.2 0.700171 64.9 0.800171 64.6C1.00017 64 1.70016 63.8 2.10016 64.2C2.30016 64.4 2.50016 64.8 2.60016 65.1C2.80016 66.3 2.90016 67.4 3.10016 68.6C3.50016 71.1 4.0002 73.5 4.7002 75.9C5.5002 78.8 6.60017 81.7 7.80017 84.4C9.20017 87.5 10.9002 90.4 12.8002 93.1C14.7002 95.7 16.9002 98.1 19.0002 100.5C21.0002 102.8 23.4002 104.7 25.8002 106.5C29.6002 109.3 33.7002 111.6 38.1002 113.3C39.9002 114 41.8002 114.6 43.7002 115.3C45.6002 116 47.7002 116.3 49.7002 116.7C53.8002 117.5 58.0002 117.8 62.1002 117.6C64.7002 117.5 67.3002 117.4 69.8002 116.7C71.2002 116.3 72.7002 116.1 74.1002 115.8C76.1002 115.4 78.0002 114.8 79.9002 114C80.3002 113.8 80.8002 113.7 81.3002 113.5C81.8002 113.3 82.0002 113.7 82.2002 113.9C82.4002 114.2 82.5002 114.5 82.2002 114.8C82.0002 115 81.7002 115.3 81.4002 115.4C79.7002 116 78.1002 116.6 76.4002 117.1C75.0002 117.5 73.5002 117.8 72.0002 118.1C69.9002 118.5 67.9002 118.9 65.8002 119.1C64.4002 119.3 63.1002 119.2 61.7002 119.3C61.1002 119.4 60.6002 119.4 60.1002 119.4Z" fill="#C19771"/>
<path d="M59.7999 2.70004C57.3999 2.90004 54.9999 2.90004 52.5999 3.20004C49.5999 3.60004 46.6 4.1 43.7 5.1C43.4 5.2 43.2 5.20002 42.9 5.30002C42.2 5.40002 41.9999 5.2 41.7999 4.6C41.6999 4.1 41.9 3.7 42.5 3.6C43.2 3.4 43.8999 3.20003 44.5999 3.00003C46.1999 2.70003 47.6999 2.30003 49.2999 2.00003C50.5999 1.70003 51.9999 1.50002 53.2999 1.30002C56.4999 0.900015 59.8 0.800028 63 1.00003C65.5 1.20003 68 1.30005 70.4 1.90005C71.8 2.30005 73.3 2.40002 74.7 2.80002C76.2 3.20002 77.7999 3.70004 79.2999 4.20004C82.4999 5.30004 85.7 6.60002 88.7 8.30002C91.4 9.80002 93.8999 11.5 96.2999 13.3C98.8999 15.3 101.4 17.5001 103.5 19.9001C105.8 22.5001 108 25.2 109.9 28.2C111.3 30.4 112.5 32.7 113.7 35.1C114.4 36.4 114.9 37.8 115.4 39.2C116.3 41.7 117.1 44.3001 117.8 46.9001C118.2 48.4001 118.4 49.9 118.6 51.5C118.7 52.3 118.5 52.6 117.8 52.7C117.3 52.8 116.9 52.4 116.7 51.8C116.4 50.4 116.2 49.1 115.8 47.7C115.5 46.6 115.2 45.5 114.9 44.3C114.2 41.6 113.2 39 112 36.4001C110.8 33.8001 109.5 31.3001 107.9 28.9001C106.5 26.8001 105.1 24.6 103.4 22.8C101.4 20.6 99.1999 18.6 97.0999 16.5C94.8999 14.4 92.3999 12.8 89.7999 11.2C86.8999 9.50004 83.9 7.90004 80.7 6.70004C78.6 5.90004 76.3999 5.10003 74.2999 4.50003C72.7999 4.10003 71.2 3.8 69.7 3.6C67.7 3.3 65.5999 3.00005 63.5999 2.90005C62.2999 2.80005 61 2.90005 59.7 2.90005C59.8 2.80005 59.7999 2.80004 59.7999 2.70004Z" fill="#C19771"/>
<path d="M58.9 111.9C57.5 111.8 56.2 111.8 54.9 111.7C53.5 111.6 52 111.3 50.6 111.1C48.6 110.7 46.7 110.2 44.7 109.7C43.8 109.5 43 109.1 42.1 108.8C39.8 108.1 37.7 107 35.6 105.9C33.1 104.6 30.6 103.1 28.4 101.2C26.6 99.7 24.8 98.1 23 96.5C22.4 96 22.4 95.6 22.7 95.2C23.1 94.7 23.5 94.6 24 95C25.2 96.1 26.4 97.2 27.6 98.3C30 100.4 32.6 102.3 35.5 103.7C37.6 104.8 39.7 105.9 41.9 106.8C43.7 107.5 45.6 108 47.5 108.5C49.2 108.9 51 109.3 52.7 109.5C55.2 109.8 57.7 110 60.1 110.1C62.5 110.2 64.9 109.9 67.2 109.6C68.9 109.4 70.5 109 72.2 108.6C74.2 108.1 76.2 107.4 78.2 106.8C78.6 106.7 78.9 106.8 79.1 107.1C79.3 107.4 79.4 107.8 79.1 108.1C78.9 108.3 78.7 108.4 78.5 108.5C76.9 109.1 75.3 109.6 73.7 110.1C73 110.3 72.3 110.6 71.6 110.7C69.5 111.1 67.4 111.4 65.3 111.7C63.2 112.1 61 112.1 58.9 111.9Z" fill="#C19771"/>
<path d="M57.5003 8.29999C59.9003 8.39999 62.4004 8.4 64.9004 8.5C65.7004 8.5 66.4003 8.69999 67.2003 8.79999C69.8003 9.29999 72.5003 9.6 75.0003 10.5C77.2003 11.2 79.3004 11.9 81.4004 12.9C85.9004 15 90.0003 17.5 93.7003 20.8C93.8003 20.9 93.8004 20.9 93.9004 21C94.4004 21.5 94.4003 21.8 94.0003 22.3C93.7003 22.7 93.1003 22.7 92.7003 22.4C92.2003 22 91.7003 21.5 91.1003 21.1C88.7003 19.2 86.2003 17.5 83.5003 16.1C81.2003 14.9 78.7003 13.8 76.3003 13C73.4003 12 70.4004 11.3 67.4004 11C65.2004 10.7 63.0003 10.5 60.8003 10.4C59.5003 10.3 58.1003 10.6 56.8003 10.6C53.7003 10.7 50.7003 11.4 47.6003 11.9C46.4003 12.1 45.2003 12.6 44.0003 12.9C43.2003 13.2 42.9003 13.1 42.6003 12.5C42.4003 12.2 42.4003 11.9 42.7003 11.7C42.9003 11.5 43.2003 11.2 43.5003 11.1C45.8003 10.3 48.2003 9.70002 50.7003 9.40002C51.5003 9.30002 52.3003 9.1 53.2003 9C54.5003 8.6 55.9003 8.49999 57.5003 8.29999Z" fill="#C19771"/>
<path d="M100.3 76C101.9 76 103.5 76 105 76C106 76 106.3 76.3 106.3 77.3C106.3 78 106.3 78.7 106.3 79.5C106.3 80.4 105.8 80.8 104.9 80.9C104.4 80.9 103.8 80.9 103.3 80.9C100.8 80.9 98.3002 80.9 95.8002 80.9C95.6002 80.9 95.3002 80.8 95.1002 80.8C94.5002 80.6 94.2002 80.2 94.2002 79.6C94.2002 78.9 94.2002 78.1 94.2002 77.4C94.2002 76.5 94.6002 76.1 95.6002 76.1C97.2002 76 98.8002 76 100.3 76ZM100.3 78.9C101.5 78.9 102.7 78.9 103.9 78.9C104.2 78.9 104.5 78.9 104.5 78.5C104.5 78.1 104.3 77.9 103.9 77.9C101.6 77.9 99.2002 77.9 96.9002 77.9C96.4002 77.9 96.1002 78.1 96.1002 78.4C96.1002 78.9 96.5002 78.8 96.8002 78.8C98.0002 78.9 99.1002 78.9 100.3 78.9Z" fill="#C19771"/>
<path d="M19.2002 65.8C19.2002 66.4 19.0002 66.8 18.5002 66.9C17.7002 67.1 16.9002 67.3 16.1002 67.4C15.7002 67.5 15.6002 67.6 15.5002 68C15.3002 69.1 15.1002 70.1 14.9002 71.2C14.9002 71.4 14.8002 71.6 14.7002 71.8C14.5002 72.2 14.2002 72.3 13.8002 72.3C13.4002 72.2 13.1002 72 13.0002 71.6C12.8002 70.5 12.6002 69.4 12.4002 68.3C12.3002 67.8 12.0002 67.4 11.5002 67.4C10.7002 67.3 10.0002 67.1 9.20023 67C8.70023 66.9 8.50024 66.6 8.40024 66.1C8.30024 65.7 8.60022 65.4 9.00022 65.3C9.90022 65.1 10.8002 64.8 11.7002 64.6C12.1002 64.5 12.2002 64.4 12.3002 64C12.5002 62.8 12.7002 61.7 12.9002 60.5C13.0002 60 13.2002 59.8 13.7002 59.7C14.2002 59.7 14.5002 59.8 14.6002 60.3C14.8002 61.2 14.9002 62.1 15.1002 63C15.4002 64.4 15.4002 64.4 16.8002 64.7C17.3002 64.8 17.8002 64.9 18.2002 65C18.8002 65.2 19.2002 65.4 19.2002 65.8ZM14.5002 66C14.3002 65.8 14.1002 65.6 14.0002 65.6C13.8002 65.6 13.7002 65.8 13.5002 65.9C13.6002 66 13.8002 66.3 13.9002 66.3C14.1002 66.3 14.2002 66.1 14.5002 66Z" fill="#C19771"/>
<path d="M42.7 63C42.4 62.7 42.1 62.6 41.9 62.3C41.7 61.9 41.7999 61.5 42.0999 61.2C42.9999 60.3 43.9 59.5 44.7 58.6C49.1 54.2 53.3999 49.9 57.7999 45.5C58.2999 45 58.5999 44.9 58.9999 45.1C59.6999 45.5 59.7999 46.1 59.0999 46.8C57.2999 48.5 55.5999 50.3 53.7999 52C50.3999 55.4 46.8999 58.9 43.4999 62.3C43.2999 62.6 43 62.8 42.7 63Z" fill="#C19771"/>
<path d="M87.4 40.5C86.8 40.5 86.5 40.3 86.4 39.7C86.3 39 86.1 38.3 86 37.6C85.9 37 85.6 36.7 85 36.5C84.4 36.4 83.8 36.2 83.2 36.1C82.7 36 82.5 35.7 82.5 35.2C82.5 34.8 82.8 34.5 83.2 34.4C83.8 34.3 84.4 34.1 84.9 34C85.5 33.8 86 33.5 86 32.8C86.1 32.1 86.3 31.4 86.4 30.7C86.5 30.2 86.9 30.1 87.3 30.1C87.7 30.1 88 30.2 88.1 30.6C88.2 31 88.3 31.3 88.4 31.7C88.5 32.3 88.6 32.9 88.8 33.5C88.9 33.7 89.1 33.9 89.3 33.9C89.9 34.1 90.6 34.3 91.2 34.5C91.6 34.6 91.9 34.9 91.9 35.4C91.9 35.9 91.6 36.2 91.1 36.3C90.6 36.5 90.1 36.6 89.6 36.7C89.1 36.8 88.8 37 88.7 37.6C88.5 38.5 88.3 39.3 88.1 40.2C87.9 40.3 87.7 40.5 87.4 40.5ZM87.3 35.7C87.5 35.4 87.6 35.3 87.6 35.1C87.6 35 87.4 34.8 87.3 34.8C87.2 34.8 87 35 87 35C87 35.3 87.1 35.4 87.3 35.7Z" fill="#C19771"/>
<path d="M56.4002 55.7C58.6002 55.8 60.2002 57.6 60.2002 59.5C60.2002 61.8 58.1002 63.4 56.4002 63.3C54.1002 63.2 52.5001 61.5 52.6001 59.2C52.6001 57.3 54.4002 55.7 56.4002 55.7ZM56.3002 57.6C55.3002 57.6 54.3002 58.5 54.3002 59.5C54.3002 60.5 55.3002 61.5 56.3002 61.5C57.3002 61.5 58.3002 60.5 58.3002 59.6C58.3002 58.5 57.4002 57.6 56.3002 57.6Z" fill="#C19771"/>
<path d="M41.2998 48.3C41.2998 46.3 42.8998 44.6999 44.6998 44.5999C47.0998 44.3999 48.9998 46.3 48.8998 48.4C48.7998 50.5 47.3998 52.1 45.1998 52.2C43.0998 52.2 41.2998 50.5 41.2998 48.3ZM45.1998 46.4C44.0998 46.4 43.1998 47.3 43.0998 48.3C43.0998 49.3 43.9998 50.2 45.0998 50.3C45.9998 50.4 47.0998 49.4 47.0998 48.4C47.0998 47.3 46.1998 46.4 45.1998 46.4Z" fill="#C19771"/>
<path d="M62.8 96.5C63.4 96.5 63.7 96.8 63.8 97.2C64 97.9 64.1 98.5 64.2 99.2C64.3 99.5 64.4 99.7 64.7 99.8C65.2 99.9 65.7 100.1 66.2 100.2C66.7 100.3 67 100.6 67.1 101C67.2 101.5 66.8 101.8 66.4 101.9C66 102 65.6 102.1 65.2 102.2C64.7 102.3 64.3 102.5 64.3 103.1C64.2 103.6 64.1 104.2 64 104.7C63.9 105.2 63.5 105.5 63.1 105.5C62.7 105.5 62.3 105.2 62.2 104.7C62.1 104.2 62 103.6 61.9 103C61.8 102.5 61.5 102.2 61 102.1C60.6 102 60.2 102 59.8 101.8C59.3 101.6 59 101.3 59 100.8C59 100.3 59.4 100 59.9 99.9C60.1 99.9 60.3 99.8 60.5 99.8C61.7 99.4 61.9 99.2 62 97.9C62 97.5 62.2 97.1 62.4 96.7C62.4 96.7 62.7 96.6 62.8 96.5Z" fill="#C19771"/>
<path d="M19.1001 89.3C19.0001 89.8 18.7001 90.1 18.3001 90.2C17.8001 90.4 17.5001 90.2 17.3001 89.8C16.9001 89.2 16.4001 88.5 16.0001 87.8C15.6001 87.2 15.2002 86.6 14.9002 86C14.5002 85.4 14.6001 84.9 15.0001 84.5C15.5001 84.1 15.9001 84.1 16.3001 84.7C16.7001 85.3 17.0001 85.9 17.3001 86.4C17.8001 87.2 18.4002 88 18.9002 88.8C19.0002 89 19.0001 89.1 19.1001 89.3Z" fill="#C19771"/>
<path d="M102.6 30.7C102.3 31 102.1 31.3001 101.8 31.4001C101.6 31.5001 101.2 31.4 101 31.3C100.7 31.1 100.5 30.8 100.3 30.5C99.6001 29.6 98.9001 28.7 98.2001 27.8C98.1001 27.6 97.9001 27.4 97.8001 27.2C97.5001 26.6 97.6001 26.3001 98.1001 25.9001C98.4001 25.7001 98.9001 25.8 99.3001 26.2C100.3 27.4 101.2 28.6 102.1 29.8C102.3 30.1 102.4 30.4 102.6 30.7Z" fill="#C19771"/>
<path d="M0.700195 56C0.900195 54.7 1.0002 53.1 1.2002 51.6C1.3002 51.1 1.70016 50.8 2.10016 50.8C2.60016 50.8 3.00018 51.2 3.00018 51.7C3.00018 52.4 2.8002 53.2 2.7002 53.9C2.6002 54.6 2.60016 55.3 2.60016 56C2.60016 56.5 2.40021 57 1.90021 57.2C1.30021 57.6 0.700195 57 0.700195 56Z" fill="#C19771"/>
<path d="M119.2 61.6C119.2 62.3 119.2 63.1 119.2 63.8C119.2 64.3 118.8 64.8 118.3 64.8C117.9 64.8 117.4 64.4 117.3 63.9C117.3 63.6 117.3 63.4 117.3 63.1C117.3 61.9 117.4 60.7 117.4 59.5C117.4 59 117.9 58.6 118.4 58.7C118.8 58.8 119.1 59 119.1 59.4C119.2 60.1 119.2 60.9 119.2 61.6Z" fill="#C19771"/>
<path d="M93.2998 91.4C92.7998 91.9 92.1998 92.4 91.6998 93C90.5998 94.3 89.8998 95.7 89.3998 97.3C89.1998 98 88.9998 98.7999 88.9998 99.5999C88.9998 100.9 88.9998 102.2 89.3998 103.5C89.8998 105.2 90.6998 106.7 91.7998 108.1C92.8998 109.4 94.1998 110.2 95.6998 111C97.0998 111.7 98.5998 112 100.1 112C101 112 102 111.8 102.9 111.6C104.7 111.2 106.3 110.4 107.7 109.2C108.9 108.3 109.8 107.1 110.4 105.8C111.2 104.4 111.6 102.9 111.6 101.2C111.6 100.1 111.6 98.9 111.4 97.8C111.1 96.4 110.5 95.1 109.7 94C108.7 92.5 107.3 91.3 105.7 90.4C105.4 90.2 105.1 90 104.8 89.8C104.4 89.4 104.3 89 104.6 88.5C104.9 88.1 105.3 88.1 105.7 88.3C106.6 88.8 107.5 89.2 108.2 89.8C109.5 90.9 110.6 92 111.5 93.5C112.3 94.7 112.9 96.1 113.1 97.5C113.3 98.5 113.4 99.5 113.4 100.5C113.5 102.8 112.7 105 111.7 107C110.9 108.5 109.7 109.7 108.4 110.8C107.1 111.9 105.7 112.5 104.2 113.1C103.4 113.4 102.4 113.5 101.6 113.6C98.5998 113.9 95.6998 113.1 93.1998 111.5C91.2998 110.3 89.5998 108.6 88.5998 106.5C88.2998 105.9 87.8998 105.3 87.7998 104.6C87.0998 102.3 86.8998 99.9999 87.3998 97.5999C87.6998 95.9999 88.3998 94.6 89.1998 93.3C89.9998 92.1 90.9998 91 92.0998 90C92.2998 89.8 92.4998 89.5 92.6998 89.3C92.4998 89.2 92.1998 89.1 91.9998 89C91.7998 88.9 91.4998 88.7999 91.2998 88.5999C90.9998 88.3999 90.7998 88.0999 90.9998 87.5999C91.2998 86.9999 91.4998 86.9 91.9998 87C93.0998 87.3 94.1998 87.6 95.2998 88C96.0998 88.3 96.2998 88.6 96.0998 89.4C95.7998 90.5 95.4998 91.4999 95.0998 92.5999C94.8998 93.0999 94.2998 93.3 93.8998 93.2C93.3998 93 93.1998 92.5 93.3998 92C93.4998 91.8 93.4998 91.5 93.4998 91.3C93.4998 91.5 93.3998 91.5 93.2998 91.4Z" fill="#C19771"/>
<path d="M101.2 92.6C101.2 94.1 101.2 95.5 101.2 97C101.2 97.4 101.4 97.6 101.7 97.7C102.5 98.1 103.1 98.7 103.3 99.5C103.7 101.1 103.2 102.3 101.8 103.1C101.5 103.3 101.3 103.5 101.3 103.9C101.3 104.5 100.9 104.8 100.4 104.8C99.8999 104.8 99.5999 104.5 99.5999 103.9C99.5999 103.5 99.4999 103.3 99.0999 103.1C97.9999 102.6 97.3999 101.8 97.3999 100.5C97.3999 99.2 97.9999 98.2 99.0999 97.7C99.4999 97.5 99.5999 97.2 99.5999 96.8C99.5999 93.9 99.5999 91 99.5999 88.1C99.5999 87.4 99.8999 87.1 100.6 87.2C101 87.2 101.3 87.4 101.3 87.9C101.3 88.1 101.3 88.3 101.3 88.4C101.2 89.8 101.2 91.2 101.2 92.6ZM100.4 99.3C99.5999 99.3 99.0999 99.7 99.0999 100.5C99.0999 101.2 99.5999 101.7 100.3 101.7C101.1 101.7 101.6 101.2 101.6 100.5C101.6 99.8 101 99.3 100.4 99.3Z" fill="#C19771"/>
</svg>
