<svg width="48" height="48" viewBox="0 0 48 48" fill="none" xmlns="http://www.w3.org/2000/svg">
<path d="M47.2001 1H0.800049V47H47.2001V1Z" stroke="#C19771" stroke-width="1.3393" stroke-miterlimit="10"/>
<path d="M13.9001 47C13.9001 47 13.5001 38.9 6.6001 32.4C6.6001 32.4 21.1001 24.7 22.2001 1.10001" stroke="#C19771" stroke-width="1.3393" stroke-miterlimit="10"/>
<path d="M7.5 47C7.5 47 7.3 38.9 3.5 32.4C3.5 32.4 11.4 24.7 12 1.10001" stroke="#C19771" stroke-width="1.3393" stroke-miterlimit="10"/>
<path d="M39.3002 47H31.6002L29.7002 38.3H41.2002L39.3002 47Z" stroke="#C19771" stroke-width="1.3393" stroke-miterlimit="10"/>
<path d="M35.5001 31.4C37.5435 31.4 39.2001 29.7435 39.2001 27.7C39.2001 25.6566 37.5435 24 35.5001 24C33.4566 24 31.8 25.6566 31.8 27.7C31.8 29.7435 33.4566 31.4 35.5001 31.4Z" stroke="#C19771" stroke-width="1.3393" stroke-miterlimit="10"/>
<path d="M35.5 38.3V31.4" stroke="#C19771" stroke-width="1.3393" stroke-miterlimit="10"/>
<path d="M30.3 32.2C30.3 33.2 30.6001 34.2 31.4001 35C32.2001 35.8 33.2001 36.1 34.2001 36.1C34.2001 35.1 33.9001 34.1 33.1001 33.3C32.3001 32.5 31.4 32.2 30.3 32.2Z" stroke="#C19771" stroke-width="1.3393" stroke-miterlimit="10"/>
</svg>
