<svg width="19" height="19" viewBox="0 0 19 19" fill="none" xmlns="http://www.w3.org/2000/svg">
<path d="M10.4001 18.5L8.80005 16.8L6.90009 18.2L6.10004 15.9L3.70007 16.4L3.90009 14.1L1.60004 13.6L2.70007 11.5L0.800049 10.1L2.60004 8.59998L1.50006 6.59998L3.70007 6L3.50006 3.59998L5.80005 4L6.60004 1.80005L8.50006 3.09998L10.1 1.30005L11.4001 3.40002L13.5001 2.40002L13.9001 4.69995H16.2001L15.6 7L17.8 8L16.2001 9.80005L17.8 11.5L15.7001 12.6L16.4001 14.8L14.1 14.9L13.8 17.3L11.6 16.4L10.4001 18.5Z" stroke="#C19771" stroke-width="0.8" stroke-miterlimit="10" stroke-linejoin="round"/>
<path d="M10.4002 12.6H8.7002V14H7.7002V12.6H6.7002V11.8H7.7002V11.1H6.7002V10.3H7.7002V6.69995H10.4002C11.2002 6.69995 11.8002 6.90005 12.3002 7.30005C12.8002 7.70005 13.0002 8.20002 13.0002 8.90002C13.0002 9.60002 12.8002 10.2 12.3002 10.5C11.9002 10.9 11.2002 11.1 10.4002 11.1H8.7002V11.8H10.4002V12.6ZM8.7002 10.3H10.4002C10.9002 10.3 11.3002 10.2 11.6002 9.90002C11.9002 9.70002 12.0002 9.30005 12.0002 8.80005C12.0002 8.40005 11.9002 8.00005 11.6002 7.80005C11.3002 7.50005 10.9002 7.40002 10.5002 7.40002H8.7002V10.3Z" fill="#C19771"/>
</svg>
