<svg width="15" height="16" viewBox="0 0 15 16" fill="none" xmlns="http://www.w3.org/2000/svg">
<path d="M4.6001 4.20001V14.7H6.00012V4.20001H4.6001ZM4.6001 14.7C4.6001 15 4.90011 15.2 5.30011 15.2C5.70011 15.2 6.00012 15 6.00012 14.7H4.6001ZM6.1001 4.20001C6.1001 3.90001 5.80015 3.70001 5.40015 3.70001C5.00015 3.70001 4.70013 3.90001 4.70013 4.20001H6.1001Z" fill="#6B7A8C"/>
<path d="M0.300049 1.20001V14.7H1.70007V1.20001H0.300049ZM0.300049 14.7C0.300049 15 0.600061 15.2 1.00006 15.2C1.40006 15.2 1.70007 15 1.70007 14.7H0.300049ZM1.80005 1.20001C1.80005 0.900012 1.50004 0.700012 1.10004 0.700012C0.700037 0.700012 0.400085 0.900012 0.400085 1.20001H1.80005Z" fill="#6B7A8C"/>
<path d="M8.90015 1.20001V14.7H10.3001V1.20001H8.90015ZM8.90015 14.7C8.90015 15 9.2001 15.2 9.6001 15.2C10.0001 15.2 10.3001 15 10.3001 14.7H8.90015ZM10.4001 1.20001C10.4001 0.900012 10.1001 0.700012 9.70013 0.700012C9.30013 0.700012 9.00012 0.900012 9.00012 1.20001H10.4001Z" fill="#6B7A8C"/>
<path d="M13.2002 4.20001V14.7H14.6002V4.20001H13.2002ZM13.2002 14.7C13.2002 15 13.5002 15.2 13.9002 15.2C14.3002 15.2 14.6002 15 14.6002 14.7H13.2002ZM14.7002 4.20001C14.7002 3.90001 14.4002 3.70001 14.0002 3.70001C13.6002 3.70001 13.3002 3.90001 13.3002 4.20001H14.7002Z" fill="#6B7A8C"/>
</svg>
