<svg width="120" height="119" viewBox="0 0 120 119" fill="none" xmlns="http://www.w3.org/2000/svg">
<path d="M58.3998 28.3C65.9998 28.3 73.6998 28.3 81.2998 28.3C82.8998 28.3 84.2998 28.7 85.5998 29.6C86.9998 30.6 87.7998 32.1 87.8998 33.8C87.9998 37 87.8998 40.2 87.8998 43.5C87.8998 51.7 87.8998 59.9 87.8998 68.1C87.8998 68.4 87.7998 68.8 87.6998 69.1C87.5998 69.5 87.1998 69.7 86.7998 69.6C86.2998 69.5 86.0998 69.2 85.9998 68.8C85.9998 68.5 85.9998 68.1 85.9998 67.8C85.9998 60.9 85.9998 54 85.9998 47.1C85.9998 46.9 85.9998 46.7 85.8998 46.6C85.7998 46.4 85.5998 46.3 85.3998 46.2C84.7998 46.2 84.1998 46.2 83.5998 46.2C66.5998 46.2 49.4998 46.2 32.4998 46.2C31.9998 46.2 31.4998 46.2 30.9998 46.2C30.6998 46.2 30.4998 46.3 30.4998 46.7C30.4998 47 30.4998 47.3 30.4998 47.6C30.4998 58.8 30.4998 70 30.4998 81.1C30.4998 82.9 31.2998 84.1 32.7998 84.9C33.4998 85.3 34.3998 85.4 35.1998 85.4C44.9998 85.4 54.7998 85.4 64.5998 85.4C64.9998 85.4 65.3998 85.3 65.5998 85.7C65.9998 86.4 65.6998 87.1 64.8998 87.3C64.6998 87.3 64.4998 87.3 64.2998 87.3C54.5998 87.3 44.7998 87.3 35.0998 87.3C32.2998 87.3 30.0998 85.8 29.0998 83.1C28.7998 82.4 28.7998 81.5 28.7998 80.8C28.7998 69.3 28.7998 57.9 28.7998 46.4C28.7998 42.5 28.7998 38.7 28.7998 34.8C28.7998 34.2 28.7998 33.5 28.8998 32.9C29.2998 30.9 30.4998 29.5 32.2998 28.7C33.1998 28.3 34.1998 28.1 35.0998 28.1C42.8998 28.3 50.5998 28.3 58.3998 28.3ZM58.2998 44.4C67.2998 44.4 76.2998 44.4 85.2998 44.4C86.0998 44.4 86.0998 44.4 86.0998 43.6C86.0998 40.6 85.9998 37.6 86.0998 34.6C86.1998 32.5 84.3998 30.2 82.3998 30.1C81.8998 30.1 81.2998 30 80.7998 30C65.4998 30 50.2998 30 34.9998 30C32.3998 30 30.4998 31.9 30.4998 34.5C30.4998 37.6 30.4998 40.6 30.4998 43.7C30.4998 44.4 30.4998 44.4 31.1998 44.4C40.2998 44.4 49.2998 44.4 58.2998 44.4Z" fill="#C19771"/>
<path d="M103.3 117.1C100.6 117.1 97.9 117.1 95.3 117.1C94.9 117.1 94.6 117 94.2 116.8C93.7 116.6 93.6 116.7 93.6 117.2C93.6 118.1 93.3 118.4 92.4 118.4C88.6 118.4 84.8 118.4 80.9 118.4C80 118.4 79.8 118.2 79.7 117.4C79.5 115.6 79.3 113.7 79.1 111.9C78.9 110 78.7 108.1 78.5 106.1C78.4 105 78.3 103.9 78.2 102.8C78.1 102 78 101.2 78 100.4C78 99.8 78.2 99.5 78.8 99.5C83.2 99.5 87.6 99.5 92 99.5C92.5 99.5 92.8 99.4 93 99C94.5 96.8 95.9 94.5 97.4 92.3C97.7 91.8 97.9 91.2 98 90.6C98.2 89.1 98.1 87.6 97.9 86.1C97.8 85.5 98 85 98.5 84.6C99.7 83.8 101 83.5 102.4 84C102.6 84.1 102.9 84.3 103.1 84.4C105.1 86.3 106.3 88.7 106.3 91.5C106.3 92.9 105.9 94.3 105.7 95.6C105.7 95.7 105.6 95.9 105.6 96C105.5 96.5 105.6 96.6 106.1 96.6C109.3 96.6 112.4 96.6 115.6 96.6C116.9 96.6 117.9 97.1 118.5 98.3C118.6 98.6 118.7 98.9 118.8 99.2C118.8 99.7 118.8 100.2 118.8 100.7C118.9 101.6 118.4 102.2 117.7 102.7C117.3 103 117.2 103.2 117.4 103.7C118 105.2 117.6 106.6 116.3 107.6C116.1 107.8 116 108 116.1 108.2C116.8 109.5 116.1 111.4 114.9 112.1C114.4 112.4 114.3 112.6 114.5 113.2C114.8 113.9 114.6 114.7 114.2 115.4C113.5 116.6 112.4 117.1 111.1 117.1C108.6 117.1 105.9 117.1 103.3 117.1ZM103.4 115.3C105.9 115.3 108.5 115.3 111 115.3C111.2 115.3 111.4 115.3 111.6 115.3C112.1 115.2 112.6 115.1 112.8 114.5C112.9 113.9 112.9 113.3 112.4 112.9C112.2 112.7 111.9 112.5 111.8 112.3C111.7 112 111.6 111.7 111.7 111.4C111.8 110.9 112.3 110.8 112.8 110.9C113.3 111 113.8 110.8 114.1 110.4C114.4 110 114.7 109.5 114.4 109C114.1 108.6 113.8 108.3 113.5 108C113.2 107.7 113.1 107.4 113.3 107.1C113.4 106.8 113.7 106.6 114 106.5C114.2 106.4 114.5 106.5 114.7 106.4C115.4 106.3 115.8 105.8 115.8 105.1C115.8 104.6 115.7 104.1 115.2 103.7C115 103.5 114.8 103.4 114.7 103.2C114.3 102.7 114.5 102.1 115.1 101.9C115.4 101.8 115.7 101.8 116 101.7C116.9 101.5 117.5 100.5 117.1 99.6C116.7 98.7 116.3 98.5 115.1 98.5C111.6 98.5 108.1 98.5 104.6 98.5C104.4 98.5 104.2 98.5 104.1 98.5C103.7 98.4 103.3 97.9 103.4 97.5C103.7 96.5 104 95.5 104.2 94.5C104.4 93.3 104.6 92.1 104.6 90.9C104.5 89.2 103.6 87.7 102.6 86.4C101.8 85.4 101.3 85.6 100.2 86.1C100.1 86.1 100 86.4 100 86.5C100 87.2 100.2 87.8 100.2 88.5C100.3 90 100.3 91.5 99.5 92.7C98.1 95 96.6 97.3 95.1 99.6C94.8 100.1 94.4 100.5 94 101C93.8 101.2 93.7 101.5 93.7 101.8C93.7 106 93.7 110.2 93.7 114.3C93.7 114.5 93.9 114.8 94 114.8C94.6 115 95.3 115.3 95.9 115.3C98.3 115.4 100.9 115.3 103.4 115.3ZM91.7 109C91.7 107.1 91.7 105.3 91.7 103.4C91.7 102.9 91.7 102.4 91.7 101.9C91.7 101.4 91.5 101.2 91 101.3C90.5 101.3 90 101.3 89.5 101.3C86.6 101.3 83.6 101.3 80.7 101.3C80 101.3 79.9 101.3 80 102C80.2 103.9 80.4 105.8 80.6 107.8C80.9 110.6 81.1 113.3 81.4 116.1C81.4 116.5 81.6 116.7 82 116.7C85 116.7 88.1 116.7 91.1 116.7C91.4 116.7 91.6 116.6 91.6 116.2C91.7 113.8 91.7 111.4 91.7 109Z" fill="#C19771"/>
<path d="M32.7 5.19998C32.5 5.19998 32.4 5.29996 32.2 5.29996C31.2 5.59996 30.1 5.79995 29.1 6.09995C28.8 6.19995 28.5 6.19998 28.3 6.19998C27.9 6.19998 27.5 6.09995 27.4 5.59995C27.3 5.09995 27.4 4.59997 27.9 4.49997C28.7 4.19997 29.6 3.99996 30.4 3.79996C31.7 3.49996 33 3.2 34.4 2.9C35.2 2.7 35.7 2.99996 35.9 3.79996C36.2 5.29996 36.6 6.69995 36.9 8.09995C37 8.69995 37.2 9.39997 37.3 9.99997C37.4 10.6 37.1 11.1 36.6 11.2C36.2 11.3 35.6 10.9 35.5 10.4C35.2 9.2 35 7.99996 34.7 6.79996C34.7 6.59996 34.6 6.49998 34.5 6.19998C34.4 6.29998 34.3 6.39997 34.2 6.49997C33.1 8.49997 31.9 10.4 30.8 12.4C30.1 13.7 29.3 15 28.6 16.3C28.5 16.5 28.5 16.8 28.5 17C28.9 18.2 28.4 19.4 27.2 20C26.2 20.5 25 20.3 24.3 19.2C24.1 18.9 24 18.5 23.8 18.2C23.7 18 23.5 17.8 23.3 17.7C21.8 17 20.3 16.4 18.8 15.7C18.3 15.5 17.9 15.2999 17.4 15.0999C17.1 14.9999 16.8 14.9 16.6 15.2C16.1 15.6 15.5 15.8 14.8 15.7C14.6 15.7 14.2 15.8999 14.1 16.0999C13.1 17.2999 12.1 18.6 11.2 19.8C9.29999 22.1 7.49996 24.5 5.59996 26.8C5.19996 27.3 5.09996 27.7 5.09996 28.3C5.09996 29.6 5.09996 30.9 5.09996 32.2C5.09996 32.8 5.19997 32.9 5.79997 32.9C6.89997 32.9 7.99999 32.9 9.19999 32.9C14.5 32.9 19.8 32.9 25 32.9C25.8 32.9 26.2 33.3999 26 34.0999C25.9 34.5999 25.5 34.8 25 34.7C23 34.7 21.1 34.7 19.1 34.7C14.7 34.7 10.2 34.7 5.79997 34.7C5.39997 34.7 4.89998 34.7 4.49998 34.8C3.59998 34.9 3.19999 34.5 3.19999 33.5C3.19999 31.5 3.19999 29.5999 3.19999 27.5999C3.19999 26.6999 3.29997 25.8 3.29997 24.9C3.29997 18.8 3.29997 12.6999 3.29997 6.59995C3.29997 5.69995 3.29997 4.8 3.29997 3.9C3.29997 3.8 3.19996 3.59997 3.09996 3.49997C2.99996 3.59997 2.79999 3.59998 2.69999 3.69998C2.59999 3.79998 2.39997 3.99995 2.29997 4.09995C1.89997 4.49995 1.49996 4.59998 1.09996 4.19998C0.599956 3.79998 0.599981 3.4 0.999981 2.9C1.79998 2 2.69996 1.19996 3.59996 0.299959C3.89996 -4.12762e-05 4.29999 -0.100041 4.69999 0.299959C5.59999 1.19996 6.39999 1.99997 7.19999 2.99997C7.59999 3.39997 7.49998 3.79998 6.99998 4.19998C6.59998 4.49998 6.30001 4.39998 5.90001 4.19998C5.80001 4.09998 5.69998 3.89996 5.49998 3.79996C5.39998 3.69996 5.29999 3.69995 5.19999 3.59995C5.09999 3.69995 5.09998 3.89997 4.99998 3.99997C4.99998 4.69997 4.99998 5.39997 4.99998 5.99997C4.99998 11.6 4.99998 17.2 4.99998 22.8C4.99998 23.1 4.89998 23.5 4.99998 23.8C4.99998 23.9 5.09996 23.9999 5.09996 24.0999C5.19996 23.9999 5.40001 24 5.40001 23.9C7.20001 21.7 8.89999 19.4 10.7 17.2C11.4 16.4 12.1 15.5 12.7 14.7C12.8 14.5 12.9 14.2 12.9 14C12.4 12.5 13.5 10.9 15.1 10.9C16.4 10.9 17.3 11.8 17.5 12.8C17.6 13 17.8 13.3 18 13.4C20 14.3 22.1 15.1999 24.1 16.0999C24.2 16.1999 24.5 16.1 24.6 16C25.2 15.7 25.8 15.5 26.4 15.5C26.6 15.5 26.8 15.4 27 15.2C27.4 14.7 27.7 14.1 28 13.5C29.4 11.1 30.8 8.8 32.2 6.4C32.4 6.1 32.6 5.7 32.8 5.4C32.8 5.3 32.7 5.19998 32.7 5.19998ZM14.5 13.0999C14.5 13.1999 14.5 13.3 14.5 13.3C14.7 13.4 14.9 13.7 15.1 13.7C15.5 13.7 15.7 13.3999 15.6 13.0999C15.6 12.8999 15.2 12.5999 15 12.5999C14.9 12.6999 14.7 12.8999 14.5 13.0999ZM26.9 17.7C26.6 17.5 26.4 17.2 26.1 17.2C25.7 17.1 25.5 17.5 25.6 17.8C25.6 18 25.9 18.3 26.1 18.3C26.4 18.4 26.6 18 26.9 17.7Z" fill="#C19771"/>
<path d="M118.8 59.1C118.8 60.4 118.8 61.6 118.8 62.9C118.8 63.9 118.6 65 118.5 66C118.4 67.1 118.3 68.2 118.1 69.3C117.5 73.1 116.5 76.8 115 80.4C114 82.7 112.9 85 111.9 87.2C111.8 87.3 111.8 87.5 111.7 87.6C111.4 88.1 111 88.2 110.5 87.9C110.1 87.6 109.9 87.2 110.2 86.7C110.6 85.9 111.1 85.2 111.4 84.4C112.2 82.7 112.9 80.9 113.6 79.1C114.3 77.1 115 75 115.6 72.9C116 71.5 116.3 70.1 116.5 68.6C116.8 65.5 117.1 62.3 117.2 59.2C117.3 57.6 117.1 56 116.9 54.5C116.8 53.3 116.6 52.1 116.5 50.9C116.4 49.8 116.2 48.8 116 47.7C115.5 44.9 114.7 42.3 113.7 39.6C112.5 36.1 110.8 32.9 109 29.7C107.1 26.4 104.7 23.4 102.2 20.6C100.1 18.3 97.7998 16.1 95.2998 14.3C94.1998 13.5 93.0998 12.5 91.8998 11.7C89.5998 10.3 87.2998 8.99997 84.9998 7.79997C82.6998 6.59997 80.1998 5.59997 77.6998 4.79997C75.0998 3.89997 72.3998 3.4 69.7998 2.9C69.4998 2.8 69.2998 2.79995 69.0998 2.59995C68.5998 2.39995 68.4998 1.99998 68.5998 1.49998C68.6998 0.999977 69.0998 0.800002 69.4998 0.900002C70.3998 1.1 71.3998 1.2 72.2998 1.4C73.9998 1.8 75.7998 2.19999 77.4998 2.69999C79.4998 3.29999 81.3998 4.1 83.3998 4.9C86.8998 6.2 89.9998 8.09999 93.0998 10.2C96.8998 12.7 100.4 15.6 103.4 19C106.1 22 108.7 25.1 110.6 28.7C112 31.3 113.4 33.8 114.6 36.4C115.5 38.4 116.2 40.6 116.8 42.7C117.4 44.8 117.8 47 118.2 49.2C118.4 50.1 118.6 51.1 118.7 52C118.9 54.3 119 56.6 119.2 58.9C118.9 59.1 118.9 59.1 118.8 59.1Z" fill="#C19771"/>
<path d="M0.800038 58.4C0.600038 55.8 1.10003 52.6999 1.60003 49.5999C1.90003 47.6999 2.30006 45.8 2.70006 43.9C3.10006 42.4 3.60003 41 4.10003 39.5C4.30003 38.9 4.50004 38.1999 4.80004 37.5999C4.90004 37.3999 5.00006 37.1 5.20006 37C5.40006 36.9 5.80005 36.7 6.00005 36.8C6.30005 37 6.50003 37.2999 6.60003 37.5999C6.70003 37.6999 6.60005 38 6.50005 38.2C5.80005 40.3 5.00007 42.4999 4.40007 44.5999C4.00007 45.9999 3.70005 47.4 3.50005 48.8C3.20005 51.2 2.80003 53.5999 2.60003 56.0999C2.50003 59.1999 2.40007 62.3999 2.90007 65.5999C3.10007 66.7999 3.10004 68 3.30004 69.2C3.60004 70.7 3.90007 72.2 4.40007 73.7C5.10007 76.1 5.80006 78.5 6.70006 80.9C7.20006 82.4 7.90006 83.8 8.70006 85.2C9.80006 87.1 10.9 89.1 12 90.9C14.1 94.3 16.7 97.2999 19.5 100.1C22 102.6 24.7001 104.9 27.7001 106.9C30.5001 108.8 33.4001 110.4 36.5 111.7C39.2001 112.9 42.0001 114 44.9001 114.7C47.8001 115.4 50.7001 115.9 53.7001 116.4C54.0001 116.4 54.3 116.5 54.5 116.7C54.7001 116.9 54.9001 117.2 54.9001 117.5C54.9001 117.9 54.7 118.2 54.3 118.3C54.1 118.3 53.9 118.4 53.8 118.3C52.3 118.1 50.8 118 49.3 117.7C46.8 117.2 44.3 116.6 41.8 115.8C39.1 115 36.5 113.9 34 112.7C31.6 111.5 29.4 110.1 27.1 108.8C24.4 107.2 22.1001 105.1 19.7001 103.1C17.8001 101.5 16.1 99.5999 14.5 97.5999C12.3 94.9999 10.4001 92.3 8.70006 89.4C7.50006 87.3 6.50005 85.1 5.50005 82.8C4.80005 81.1 4.10005 79.4 3.50005 77.7C2.80005 75.6 2.30004 73.4 1.80004 71.2C1.10004 67.1 0.700038 63 0.800038 58.4Z" fill="#C19771"/>
<path d="M68.0998 74C68.0998 68.5 68.0998 63 68.0998 57.5C68.0998 57 68.0998 56.6 68.5998 56.3C68.8998 56.1 69.1998 56 69.5998 56.3C70.2998 56.9 70.9998 57.5 71.5998 58.1C74.5998 61 77.5998 63.8 80.5998 66.7C84.2998 70.2 88.0998 73.8 91.7998 77.3C92.5998 78.1 93.3998 78.8 94.1998 79.5C94.8998 80.2 94.7998 80.9 93.9998 81.3C93.2998 81.7 92.4998 82 91.6998 82.3C90.2998 82.9 88.8998 83.4 87.4998 84C87.1998 84.1 87.0998 84.3 87.1998 84.7C87.6998 85.9 88.2998 87.2 88.7998 88.4C89.2998 89.4 89.0998 89.9 87.9998 90.4C85.8998 91.3 83.6998 92.2 81.5998 93.1C80.8998 93.4 80.1998 93.7 79.4998 94C78.7998 94.3 78.2998 94.1 77.9998 93.4C77.3998 92.1 76.8998 90.9 76.3998 89.6C76.2998 89.4 76.2998 89.2 76.0998 89.1C75.9998 89 75.6998 88.9 75.5998 89C73.8998 89.7 72.1998 90.5 70.5998 91.2C70.0998 91.4 69.5998 91.6 69.0998 91.9C68.3998 92.2 67.7998 91.8 67.7998 91.1C67.7998 90.3 67.7998 89.5 67.7998 88.8C67.7998 83.9 67.8998 79.1 67.8998 74.2C67.9998 74 67.9998 74 68.0998 74ZM69.7998 74.6C69.7998 74.6 69.6998 74.6 69.7998 74.6C69.7998 75.3 69.7998 76 69.7998 76.7C69.7998 80.8 69.6998 84.9 69.6998 89C69.6998 89.4 69.7998 89.5 70.1998 89.3C70.5998 89.1 70.9998 89 71.3998 88.8C72.8998 88.2 74.3998 87.6 75.7998 86.9C76.6998 86.5 77.1998 86.6 77.5998 87.5C78.1998 88.8 78.6998 90 79.1998 91.3C79.3998 91.7 79.4998 91.7 79.8998 91.6C81.6998 90.8 83.4998 90.1 85.2998 89.3C85.6998 89.1 86.0998 89 86.4998 88.7C86.5998 88.6 86.6998 88.4 86.6998 88.3C86.0998 87 85.5998 85.7 84.9998 84.4C84.5998 83.6 84.7998 83.1 85.5998 82.7C86.3998 82.4 87.0998 82.1 87.8998 81.7C88.9998 81.2 90.1998 80.7 91.2998 80.2C91.7998 80 91.8998 79.8 91.4998 79.4C90.7998 78.8 90.0998 78.1 89.3998 77.5C83.9998 72.4 78.5998 67.3 73.2998 62.2C72.3998 61.3 71.4998 60.5 70.5998 59.6C70.4998 59.5 70.2998 59.5 70.1998 59.4C70.1998 59.5 70.0998 59.7 70.0998 59.8C70.0998 60.2 70.0998 60.6 70.0998 61C69.8998 65.6 69.7998 70.1 69.7998 74.6Z" fill="#C19771"/>
<path d="M39.0002 74.8C39.2002 74 39.4001 73.3 39.6001 72.7C40.2001 70.6 40.8002 68.6 41.5002 66.5C41.6002 66 41.5002 65.8 41.2002 65.5C39.1002 64 37.1002 62.4 35.0002 60.8C34.5002 60.5 34.1002 60.1 34.3002 59.4C34.4002 58.9 34.9002 58.8 35.7002 58.8C38.1002 58.8 40.4002 58.8 42.8002 58.7C42.9002 58.7 43.0002 58.7 43.0002 58.7C43.7002 58.6 44.1002 58.4 44.4002 57.7C45.0002 55.8 45.7002 53.9 46.4002 52C46.6002 51.4 46.8001 50.7 47.1001 50.1C47.2001 49.9 47.6002 49.6 47.8002 49.6C48.1002 49.6 48.5001 49.8 48.6001 50.1C48.9001 50.7 49.2002 51.4 49.4002 52.1C50.0002 53.9 50.7002 55.7 51.3002 57.5V57.6C51.6002 58.5 51.8002 58.7 52.8002 58.7C55.3002 58.7 57.7002 58.7 60.2002 58.8C60.3002 58.8 60.3002 58.8 60.4002 58.8C60.9002 58.8 61.2002 59 61.4002 59.5C61.6002 59.9 61.4002 60.3 61.0002 60.5C60.0002 61.3 59.1001 62 58.1001 62.7C56.8001 63.7 55.6002 64.6 54.3002 65.6C54.1002 65.8 54.0001 66 54.1001 66.3C54.8001 68.4 55.4001 70.6 56.1001 72.7C56.3001 73.2 56.4001 73.8 56.6001 74.3C56.7001 74.7 56.7002 75.2 56.3002 75.5C55.9002 75.8 55.5001 75.7 55.1001 75.4C52.8001 73.8 50.5002 72.2 48.2002 70.6C48.1002 70.5 47.7001 70.5 47.6001 70.6C45.3001 72.2 43.1002 73.8 40.8002 75.4C40.5002 75.6 40.1002 75.9 39.7002 75.6C39.3002 75.4 39.1002 75 39.0002 74.8ZM53.8002 72.2L53.9002 72.1C53.8002 71.8 53.8002 71.6 53.7002 71.3C53.2002 69.7 52.7002 68.1 52.2002 66.4C51.8002 65.2 51.9002 65.1 52.9002 64.3C52.9002 64.3 53.0002 64.3 53.0002 64.2C54.4002 63.1 55.9002 62.1 57.3002 61C57.5002 60.9 57.5002 60.7 57.7002 60.5C57.2002 60.4 56.9002 60.5 56.5002 60.5C54.7002 60.5 53.0002 60.4 51.2002 60.4C51.1002 60.4 51.1002 60.4 51.0002 60.4C50.6002 60.4 50.3002 60.2 50.2002 59.8C50.0002 59.3 49.9002 58.9 49.7002 58.4C49.2002 56.9 48.7001 55.5 48.1001 54C48.1001 53.9 47.9002 53.8 47.8002 53.6C47.7002 53.7 47.5002 53.8 47.5002 53.9C47.4002 54.3 47.3002 54.7 47.2002 55C46.7002 56.4 46.2002 57.8 45.8002 59.2C45.6002 59.9 45.2002 60.3 44.5002 60.3C42.8002 60.4 41.1002 60.4 39.3002 60.4C38.9002 60.4 38.5002 60.4 38.0002 60.3L37.9002 60.4C38.1002 60.6 38.2002 60.8 38.4002 60.9C38.7002 61.2 39.1002 61.4 39.4002 61.6C40.6002 62.5 41.8002 63.4 43.0002 64.4C43.7002 64.9 43.7002 65.1 43.4002 65.8C42.8002 67.7 42.2002 69.5 41.7002 71.4C41.7002 71.5 41.7001 71.7 41.6001 72C41.8001 71.9 42.0001 71.8 42.1001 71.7C43.8001 70.5 45.4001 69.4 47.1001 68.2C47.5001 68 47.8002 67.9 48.2002 68.2C49.8002 69.3 51.4001 70.5 53.1001 71.6C53.4001 72.1 53.6002 72.1 53.8002 72.2Z" fill="#C19771"/>
<path d="M14.6999 38C14.5999 38.3 14.4999 38.6 14.3999 38.9C13.6999 40.8 12.8999 42.8 12.1999 44.7C11.2999 47.3 10.6999 50 10.3999 52.7C9.99991 56.3 9.69989 59.8 10.1999 63.4C10.4999 65.9 10.7999 68.3 11.3999 70.8C11.8999 73 12.5999 75.1 13.3999 77.3C14.4999 80.1 15.7999 82.8 17.3999 85.4C19.1999 88.4 21.2999 91.2 23.7999 93.7C23.9999 93.9 24.1999 94.2 24.3999 94.4C24.7999 94.9 24.7999 95.4 24.3999 95.7C23.9999 96 23.3999 96 22.9999 95.5999C22.2999 94.8999 21.6999 94.1 20.9999 93.4C17.8999 89.9 15.3999 86.1 13.3999 81.9C12.6999 80.4 11.9999 78.8 11.3999 77.2C9.99991 73.6 9.19986 69.8999 8.59986 66.0999C7.99986 62.2999 8.09987 58.3999 8.29987 54.5999C8.49987 51.8999 8.89989 49.1999 9.69989 46.5999C10.2999 44.6999 10.7999 42.8 11.3999 41C11.7999 39.8 12.3999 38.7 12.8999 37.5C13.0999 37.1 13.2999 36.8 13.7999 36.9C14.2999 37 14.5999 37.5 14.6999 38Z" fill="#C19771"/>
<path d="M111.6 59.7C111.4 61.9 111.2 64.2 110.9 66.5C110.7 68.3 110.3 70.1 109.9 71.8C109.6 73.3 109.1 74.7 108.6 76.2C107.9 78 107.1 79.8 106.4 81.6C106.3 81.8 106.3 81.9 106.2 82C105.9 82.4 105.4 82.5 105 82.3C104.6 82.1 104.4 81.6 104.7 81.2C105.2 80.1 105.7 79 106.2 77.8C106.8 76.3 107.3 74.7 107.8 73.1C108.3 71.4 108.6 69.8 109 68.1C109.5 65.5 109.7 62.9 109.8 60.2C109.9 57.6 109.7 54.9 109.4 52.3C109.2 50.7 108.8 49.1 108.4 47.5C108 45.9 107.6 44.4001 107 42.9001C106.3 41.1001 105.5 39.3 104.8 37.5C103.7 34.9 102.2 32.6 100.6 30.3C99.9999 29.5 99.2999 28.7001 98.6999 27.9001C98.4999 27.6001 98.2999 27.3 98.0999 27C97.9999 26.8 97.9999 26.5001 98.0999 26.4001C98.4999 25.6001 99.0999 25.5 99.6999 26.2C100.7 27.5 101.7 28.8 102.6 30.1C103.8 31.9 105 33.8 106 35.8C107 37.8 107.8 39.8001 108.6 41.9001C109.7 44.6001 110.3 47.4 110.9 50.2C111.2 51.5 111.3 52.8 111.4 54.2C111.4 56 111.5 57.8 111.6 59.7Z" fill="#C19771"/>
<path d="M46.6002 103.2C46.6002 102.8 46.8003 102.5 47.2003 102.4C48.0003 102.2 48.9003 102 49.7003 101.7C50.1003 101.6 50.3003 101.3 50.4003 100.9C50.6003 99.7 50.9002 98.5 51.1002 97.2C51.2002 96.7 51.4003 96.4 51.9003 96.3C52.4003 96.2 52.6002 96.6 52.8002 96.9C52.9002 97 52.9003 97.2 52.9003 97.4C53.1003 98.5 53.3002 99.7 53.5002 100.8C53.6002 101.6 54.3003 101.7 54.9003 101.8C55.4003 102 56.0002 102 56.5002 102.2C57.0002 102.3 57.3002 102.6 57.3002 103.1C57.3002 103.6 57.0002 103.8 56.6002 104C55.8002 104.2 55.0003 104.4 54.2003 104.6C53.7003 104.7 53.5002 105 53.5002 105.5C53.3002 106.6 53.1003 107.7 52.9003 108.9C52.8003 109.4 52.3003 109.9 51.9003 109.8C51.4003 109.8 51.1002 109.5 51.0002 108.9C50.8002 107.7 50.5002 106.5 50.3002 105.2C50.2002 104.8 50.0003 104.6 49.7003 104.6C48.9003 104.4 48.1002 104.2 47.3002 103.9C46.8002 103.8 46.5002 103.6 46.6002 103.2ZM51.9003 103.9C52.1003 103.6 52.4003 103.4 52.4003 103.2C52.4003 102.9 52.1003 102.7 51.9003 102.5C51.7003 102.7 51.4002 102.9 51.3002 103.2C51.3002 103.4 51.6003 103.6 51.9003 103.9Z" fill="#C19771"/>
<path d="M69.9999 15.5C69.9999 15.9 69.5999 16.3 68.9999 16.4C68.3999 16.5 67.8999 16.6 67.2999 16.8C67.0999 16.9 66.8999 17.1 66.8999 17.3C66.6999 18 66.5999 18.7 66.3999 19.3C66.2999 19.8 65.7999 20.1 65.3999 20.1C64.9999 20.1 64.5999 19.7 64.4999 19.2C64.2999 18.5 64.1999 17.8 63.9999 17.1C63.8999 16.9 63.6999 16.7 63.4999 16.6C63.0999 16.4 62.5999 16.4 62.1999 16.3C62.0999 16.3 61.8999 16.3 61.7999 16.2C61.2999 16 60.8999 15.6 60.8999 15.2C60.8999 14.8 61.2999 14.4 61.8999 14.3C62.4999 14.2 62.9999 14.1 63.5999 13.9C63.7999 13.9 63.9999 13.7 63.9999 13.6C64.1999 12.9 64.2999 12.2 64.4999 11.5C64.5999 11.2 64.5999 11 64.7999 10.8C65.0999 10.2 65.7999 10.2 66.1999 10.8C66.2999 11 66.3999 11.3 66.4999 11.5C66.6999 12.2 66.7999 12.9 66.9999 13.6C67.0999 13.8 67.2999 14 67.4999 14.1C67.9999 14.3 68.5999 14.4 69.1999 14.5C69.6999 14.7 69.9999 15.1 69.9999 15.5Z" fill="#C19771"/>
<path d="M35.0001 103C35.0001 103.8 34.2001 104.3 33.6001 104C32.2001 103.1 30.8001 102.2 29.5001 101.3C28.8001 100.8 28.9001 100 29.6001 99.7C29.8001 99.6 30.2002 99.7 30.4002 99.8C31.4002 100.4 32.4002 101.1 33.4002 101.8C33.8002 102 34.2001 102.3 34.5001 102.5C34.8001 102.6 34.9001 102.9 35.0001 103Z" fill="#C19771"/>
<path d="M89.7999 17.2C90.0999 17.4 90.2999 17.5 90.4999 17.6C91.6999 18.6 92.8999 19.6 94.1999 20.6C94.5999 20.9 94.6999 21.6 94.2999 21.9C93.9999 22.3 93.4999 22.3 92.9999 22C91.9999 21.2 91.0999 20.4 90.0999 19.6C89.6999 19.3 89.3999 19 89.0999 18.7C88.9999 18.5 88.8999 18.1 88.9999 18C89.1999 17.7 89.5999 17.5 89.7999 17.2Z" fill="#C19771"/>
<path d="M64.0002 118.3C63.4002 118.3 62.9002 118.3 62.3002 118.3C61.9002 118.3 61.7002 118.1 61.7002 117.7C61.7002 117.3 61.7002 116.9 62.2002 116.8C62.7002 116.7 63.1002 116.6 63.6002 116.5C64.7002 116.4 65.9002 116.3 67.0002 116.3C67.9002 116.2 68.2002 116.6 68.1002 117.4C68.0002 117.9 67.6002 118 67.2002 118.1C66.4002 118.2 65.6002 118.3 64.8002 118.4C64.6002 118.3 64.3002 118.3 64.0002 118.3Z" fill="#C19771"/>
<path d="M59.1998 2.09998C58.5998 2.09998 57.9998 2.09998 57.3998 2.09998C57.1998 2.09998 56.8998 2.00002 56.6998 1.90002C56.2998 1.70002 56.0998 1.4 56.1998 1C56.2998 0.6 56.5998 0.299988 56.9998 0.299988C57.6998 0.199988 58.3998 0.200012 59.0998 0.200012C59.8998 0.200012 60.5998 0.200012 61.3998 0.200012C61.8998 0.200012 62.1998 0.6 62.2998 1C62.3998 1.4 62.1998 1.80002 61.7998 1.90002C61.4998 2.00002 61.1998 2.09998 60.8998 2.09998C60.2998 2.09998 59.6998 2.09998 59.1998 2.09998Z" fill="#C19771"/>
<path d="M82.1 37.3C82.1 39 80.5 40.4 79 40.4C77.2 40.4 75.8001 39 75.9001 37.2C75.9001 35.4 77.2 34.2 79 34.1C80.7 34.1 82.1 35.6 82.1 37.3ZM78.9001 36C78.1001 36 77.6 36.5 77.6 37.3C77.6 38.1 78.1 38.5 78.8 38.5C79.6 38.5 80.1 38 80.1 37.3C80.2 36.4 79.8001 36 78.9001 36Z" fill="#C19771"/>
<path d="M63.8001 37.3C63.8001 38.9 62.3002 40.5 60.7002 40.4C58.8002 40.3 57.5001 39.1 57.6001 37.2C57.6001 35.3 58.8002 34.2 60.7002 34.1C62.4002 34.1 63.8001 35.6 63.8001 37.3ZM60.7002 36C59.8002 36 59.4002 36.4 59.4002 37.2C59.4002 38.1 59.9001 38.5 60.6001 38.5C61.4001 38.5 62.0001 38 62.0001 37.2C61.9001 36.5 61.4002 36 60.7002 36Z" fill="#C19771"/>
<path d="M72.8998 37.3C73.0998 38.8 71.4998 40.4 69.8998 40.4C68.2998 40.4 66.7998 39.2 66.6998 37.3C66.5998 35.8 68.1997 34.1 69.7997 34.2C71.2997 34.2 72.8998 35.2 72.8998 37.3ZM69.7997 36C68.8997 35.9 68.4998 36.7 68.4998 37.4C68.4998 38.1 69.0997 38.6 69.7997 38.5C70.5997 38.5 70.9997 38.2 71.0997 37.2C71.0997 36.5 70.5997 36 69.7997 36Z" fill="#C19771"/>
<path d="M84.2998 112.5C84.2998 110.6 85.7998 109.2 87.5998 109.1C89.0998 109.1 90.9998 110.4 90.9998 112.4C90.9998 114.3 89.3998 115.8 87.6998 115.8C85.8998 115.8 84.2998 114.5 84.2998 112.5ZM87.4998 113.9C88.4998 113.9 89.0998 113.4 89.0998 112.5C89.0998 111.5 88.5998 110.9 87.5998 110.9C86.6998 110.9 86.0998 111.5 86.0998 112.4C86.0998 113.4 86.5998 114 87.4998 113.9Z" fill="#C19771"/>
</svg>
