<svg width="54" height="48" viewBox="0 0 54 48" fill="none" xmlns="http://www.w3.org/2000/svg">
<path d="M50.1002 19.4V47H3.7002V18.7" stroke="#C19771" stroke-width="1.3393" stroke-miterlimit="10"/>
<path d="M45.8004 24.2H33.4004V47.1H45.8004V24.2Z" stroke="#C19771" stroke-width="1.3393" stroke-miterlimit="10"/>
<path d="M28.9003 24.2H9.30029V39H28.9003V24.2Z" stroke="#C19771" stroke-width="1.3393" stroke-miterlimit="10"/>
<path d="M37.4001 36.4C37.842 36.4 38.2001 36.0418 38.2001 35.6C38.2001 35.1582 37.842 34.8 37.4001 34.8C36.9583 34.8 36.6001 35.1582 36.6001 35.6C36.6001 36.0418 36.9583 36.4 37.4001 36.4Z" stroke="#C19771" stroke-width="1.3393" stroke-miterlimit="10"/>
<path d="M32.0001 5.89999H22.1001V15.1H32.0001V5.89999Z" stroke="#C19771" stroke-width="1.278" stroke-miterlimit="10"/>
<path d="M22.1002 15.2H12.2002L12.9002 5.89999H22.1002V15.2Z" stroke="#C19771" stroke-width="1.278" stroke-miterlimit="10"/>
<path d="M12.2001 15.2H1.6001L3.70013 5.89999H12.9001L12.2001 15.2Z" stroke="#C19771" stroke-width="1.278" stroke-miterlimit="10"/>
<path d="M22.1003 15.2C22.1003 17.9 19.9003 20.2 17.2003 20.2C14.5003 20.2 12.3003 18 12.3003 15.2" stroke="#C19771" stroke-width="1.278" stroke-miterlimit="10"/>
<path d="M11.5002 15.2C11.5002 17.9 9.30016 20.2 6.60016 20.2C3.90016 20.2 1.7002 18 1.7002 15.2" stroke="#C19771" stroke-width="1.278" stroke-miterlimit="10"/>
<path d="M31.9004 15.2H41.8004L41.1003 5.89999H31.9004V15.2Z" stroke="#C19771" stroke-width="1.278" stroke-miterlimit="10"/>
<path d="M41.8006 15.2H52.4006L50.3006 5.89999H41.1006L41.8006 15.2Z" stroke="#C19771" stroke-width="1.278" stroke-miterlimit="10"/>
<path d="M31.9004 15.2C31.9004 17.9 34.1004 20.2 36.8004 20.2C39.5004 20.2 41.7004 18 41.7004 15.2" stroke="#C19771" stroke-width="1.278" stroke-miterlimit="10"/>
<path d="M42.5005 15.2C42.5005 17.9 44.7005 20.2 47.4005 20.2C50.1005 20.2 52.3005 18 52.3005 15.2" stroke="#C19771" stroke-width="1.278" stroke-miterlimit="10"/>
<path d="M31.9001 15.2C31.9001 17.9 29.7001 20.2 27.0001 20.2C24.3001 20.2 22.1001 18 22.1001 15.2" stroke="#C19771" stroke-width="1.278" stroke-miterlimit="10"/>
<path d="M50.1002 5.89999V1H3.7002V5.89999" stroke="#C19771" stroke-width="1.3393" stroke-miterlimit="10"/>
</svg>
