<svg width="120" height="121" viewBox="0 0 120 121" fill="none" xmlns="http://www.w3.org/2000/svg">
<path d="M92.5999 60C92.5999 59.3 92.5999 58.6 92.5999 58C92.5999 56.5 92.3998 55 91.9998 53.5C91.8998 53.1 91.7999 52.5999 91.6999 52.0999C91.2999 50.0999 90.2999 48.3 89.5999 46.4C89.4999 46.2 89.3998 45.8999 89.3998 45.5999C89.2998 45.1999 89.3998 44.8 89.7998 44.7C90.0998 44.6 90.4998 44.6 90.7998 44.8C91.0998 44.9 91.1998 45.3 91.3998 45.5C92.7998 48.7 93.8998 52 94.3998 55.4C94.7998 58.5 94.7998 61.6 94.3998 64.7C93.9998 67.6 93.3998 70.5 92.2998 73.2C90.8998 76.7 88.9998 80 86.4998 82.9C84.3998 85.3 82.0998 87.2999 79.4998 89.0999C76.9998 90.7999 74.3998 92.2 71.3998 93.1C69.8998 93.6 68.3998 94.1 66.7998 94.5C65.5998 94.8 64.2999 94.9 63.0998 95C61.7999 95.1 60.4999 95 59.0998 95C55.6999 95 52.3999 94.4 49.1999 93.2C47.4999 92.6 45.7999 91.9 44.0998 91.1C41.6999 89.9 39.4998 88.2 37.3998 86.5C34.9998 84.5 32.8998 82.1999 31.2998 79.5999C29.0998 76.1999 27.4998 72.5 26.4998 68.5C25.8998 65.9 25.5998 63.4 25.4998 60.8C25.3998 59.1 25.6998 57.5 25.8998 55.8C26.2998 52.8 26.9998 49.7999 28.1998 47.0999C29.9998 43.0999 32.2998 39.4 35.4998 36.2C38.9998 32.7 43.0998 30 47.7998 28.3C49.4998 27.7 51.1998 27.1 52.8998 26.7C55.9998 26.2 59.0998 25.5999 62.2998 26.0999C63.0998 26.1999 63.8999 26.2 64.6999 26.3C65.4999 26.4 66.1998 26.6 66.9998 26.7C69.6998 27.2 72.1999 28.2 74.6999 29.2C74.7999 29.3 74.9999 29.3 75.0998 29.4C75.4999 29.6 75.7999 29.9 75.5998 30.4C75.3998 30.9 74.9998 31.2999 74.4998 31.0999C73.4998 30.7999 72.5999 30.4 71.6999 30C69.1999 28.9 66.4999 28.2 63.6999 28C61.8999 27.9 60.1998 27.8 58.3998 27.8C56.1998 27.8 54.0998 28.2 51.9998 28.8C49.6998 29.4 47.4998 30.2 45.3998 31.3C43.8998 32.1 42.3998 33 40.9998 34C39.7998 34.8 38.6999 35.8 37.5998 36.8C36.3998 38 35.1999 39.2999 34.0998 40.5999C32.2998 42.6999 31.0998 45.3 29.8998 47.8C29.2998 49 28.9999 50.3 28.5998 51.5C28.0998 53.3 27.6998 55.2 27.4998 57C27.2998 58.7 27.3998 60.3 27.3998 62C27.3998 65 28.0998 68 28.9998 70.8C30.2998 75 32.4998 78.7999 35.3998 82.0999C37.8998 85 40.8998 87.4 44.2998 89.2C46.8998 90.6 49.5998 91.8 52.5998 92.3C54.7999 92.7 56.8998 93.1 59.0998 93.1C60.9999 93.1 62.8998 93.1 64.7998 92.7C66.0998 92.4 67.3998 92.3 68.5998 91.9C70.2999 91.4 71.8998 90.7999 73.4998 90.1C76.0998 89 78.4999 87.5 80.5998 85.7C82.7999 83.8 84.8998 81.8 86.4998 79.4C87.8998 77.4 89.0998 75.4 89.9998 73.2C90.6998 71.5 91.0999 69.7 91.6999 67.9C91.9999 67 92.1998 66.0999 92.2998 65.0999C92.4998 63.3999 92.5999 61.6 92.6999 59.8C92.6999 60 92.6999 60 92.5999 60Z" fill="#C19771"/>
<path d="M116.2 117.4C115.8 117.4 115.4 117.5 115 117.5C111.1 117.5 107.2 117.5 103.3 117.5C95.1 117.5 86.9 117.5 78.7 117.5C77.4 117.5 77 117.1 77 115.8C77 108.4 77 101 77 93.6C77 93.2 77.1 92.9 77.2 92.5C77.3 92.2 77.5 91.9 77.9 91.9C78.3 91.9 78.6 92.1 78.8 92.5C78.9 92.7 78.9 93 78.9 93.3C78.9 97.9 78.9 102.6 78.9 107.2C78.9 107.4 78.8 107.7 78.9 107.9C78.9 108 79 108.2 79.1 108.3C79.2 108.2 79.3 108.2 79.4 108.1C80.3 107 81.2 105.8 82.1 104.6C84 102.3 85.8 99.9 87.7 97.6C87.9 97.3 88 97 87.9 96.6C87.5 95 88.3 93.9 89.6 93.5C91 93.1 92.4 93.8 92.8 95.3C92.9 95.6 93.1 95.8 93.3 96C94.4 96.5 95.6 97 96.7 97.5C97.8 98 99 98.5 100.1 99C100.4 99.2 100.7 99.2 101 98.9C101.5 98.5 102.2 98.2 102.9 98.4C103.3 98.5 103.5 98.2 103.7 97.9C104.2 97.2 104.6 96.4 105.1 95.7C107 92.6 108.9 89.5 110.9 86.3C111 86.2 111 86 111 85.9C110.8 85.9 110.7 85.8 110.5 85.9C109.1 86.3 107.6 86.6 106.2 87C105.5 87.2 105.1 86.9 104.9 86.2C104.8 85.7 105.2 85.3 105.8 85.1C107.1 84.8 108.4 84.5 109.7 84.2C110.6 84 111.5 83.8 112.3 83.6C112.5 83.6 112.7 83.5 112.9 83.5C113.6 83.4 113.9 83.5 114 84.2C114.2 85 114.4 85.8 114.6 86.6C115 88.2 115.3 89.8 115.7 91.4C115.8 92 115.6 92.4 115.1 92.6C114.7 92.7 114.1 92.4 114 91.9C113.8 91.4 113.7 90.8 113.6 90.2C113.4 89.4 113.2 88.5 113 87.7C112.9 87.5 112.7 87.3 112.6 87.1C112.5 87.3 112.3 87.4 112.2 87.6C111.2 89.2 110.3 90.8 109.3 92.3C107.9 94.6 106.4 97 105 99.3C104.9 99.5 104.9 99.7 105 99.9C105.7 101.5 104.3 103.1 103.2 103.4C101.8 103.8 100.4 102.8 100 101.2C99.9 101 99.7 100.7 99.5 100.6C97.2 99.6 94.9 98.5 92.6 97.5C92.4 97.4 92.1 97.5 92 97.6C91.4 98.2 90.7 98.4 89.8 98.2C89.6 98.2 89.3 98.3 89.1 98.5C86.6 101.6 84.2 104.7 81.7 107.8C80.9 108.9 80 109.9 79.2 111C79 111.3 78.9 111.7 78.9 112C78.8 113 78.9 114 78.8 114.9C78.8 115.3 79 115.4 79.3 115.4C79.7 115.4 80.2 115.4 80.6 115.4C91.6 115.4 102.6 115.4 113.6 115.4C114.4 115.4 115.2 115.4 115.9 115.4C116 115.4 116.2 115.3 116.3 115.2C116.2 115.1 116.1 114.9 116 114.8C115.8 114.6 115.5 114.4 115.3 114.1C114.8 113.5 115 112.9 115.6 112.6C115.8 112.5 116.2 112.6 116.4 112.7C117.4 113.6 118.3 114.5 119.3 115.4C119.7 115.8 119.7 116.5 119.3 116.9C118.5 117.8 117.6 118.6 116.7 119.5C116.3 119.9 115.7 119.9 115.3 119.6C114.9 119.3 115 118.8 115.4 118.3C115.7 118 116 117.6 116.2 117.3C116.3 117.5 116.2 117.4 116.2 117.4ZM91 95.8C91 95.4 90.7 95 90.3 95C90 95 89.6 95.4 89.6 95.7C89.6 96 90 96.4 90.3 96.5C90.6 96.5 91 96.2 91 95.8ZM102.5 100.2C102.1 100.2 101.8 100.4 101.8 100.8C101.8 101.3 102.1 101.6 102.5 101.6C102.9 101.6 103.2 101.3 103.2 100.9C103.3 100.5 102.9 100.2 102.5 100.2Z" fill="#C19771"/>
<path d="M7.29985 31.9C7.09985 29.9 7.59984 27.9 8.19984 26C8.69984 24.5 9.39985 23.1 10.2998 21.8C10.3998 21.6 10.3998 21.3 10.2998 21.1C8.99985 18.6 7.79984 16.2 6.49984 13.7C5.49984 11.8 4.49984 9.80005 3.49984 7.90005C2.49984 6.00005 1.49984 4 0.499842 2.1C0.199842 1.6 0.399836 1.20005 0.899836 0.90005C1.29984 0.70005 1.79985 0.700038 2.09985 1.20004C2.59985 2.10004 3.09985 3.00003 3.59985 4.00003C5.29985 7.30003 6.99984 10.5 8.69984 13.8C9.59984 15.6 10.5998 17.5 11.4998 19.3C11.7998 19.8 11.8998 19.8 12.2998 19.4C14.4998 17.2 17.0998 15.6 20.0998 14.9001C21.7998 14.5001 23.3998 14.3 25.0998 14.5C25.2998 14.5 25.4998 14.4 25.5998 14.3C25.4998 14.1 25.4998 14 25.3998 13.8C24.6998 12.5 23.9998 11.2001 23.3998 9.90005C22.0998 7.40005 20.7998 4.90005 19.4998 2.40005C19.1998 1.80005 19.1998 1.30005 19.5998 0.90005C19.9998 0.50005 20.5998 0.600001 20.8998 1.1C21.2998 1.8 21.6998 2.50004 21.9998 3.20004C22.5998 4.40004 23.1998 5.60001 23.7998 6.80001C23.8998 7.00001 24.0998 7.10004 24.1998 7.20004C24.2998 7.10004 24.3998 7.00001 24.4998 6.80001C25.1998 5.40001 25.9998 4.00003 26.6998 2.50003C26.8998 2.00003 27.1998 1.6 27.3998 1.1C27.5998 0.600001 27.9998 0.500038 28.4998 0.700038C28.8998 0.800038 29.1999 1.20004 29.1999 1.70004C29.1999 1.90004 29.0998 2.20005 28.9998 2.40005C27.7998 4.70005 26.5998 6.90004 25.4998 9.20004C25.3998 9.40004 25.3998 9.70005 25.4998 9.90005C26.1998 11.2001 26.9998 12.5001 27.5998 13.9001C27.9998 14.8 28.6998 15 29.3998 15.2C31.6998 15.9 33.6998 17 35.4998 18.6C35.7998 18.9 36.0998 19.2 36.3998 19.5C36.5998 19.7 36.8998 19.7 36.9998 19.4C38.5998 16.3 40.1998 13.2 41.7998 10.1C43.2998 7.2 44.7998 4.30001 46.2998 1.30001C46.6998 0.500013 47.4998 0.500038 47.8998 1.20004C47.9998 1.50004 47.9998 2.10005 47.7998 2.40005C46.9998 4.10005 46.1998 5.70001 45.2998 7.30001C43.6998 10.5 41.9998 13.6 40.3998 16.8C39.6998 18.1 38.9998 19.5 38.2998 20.8C38.0998 21.2 38.0998 21.5 38.3998 21.9C39.8998 24.1 40.7999 26.4 41.0998 29.1C41.1998 29.9 40.9998 30.2 40.3998 30.3C39.8998 30.4 39.5998 30.2 39.3998 29.8C39.1998 29 38.9998 28.2 38.7998 27.4C38.3998 26.3 38.0998 25.2 37.4998 24.2C36.2998 22.1 34.5998 20.2 32.4998 18.9C31.2998 18.1 30.0998 17.6 28.7998 17.1C27.6998 16.7 26.4998 16.7 25.3998 16.5C23.5998 16.2 21.8998 16.6 20.1998 17C18.7998 17.3 17.4998 17.9 16.2998 18.7C13.4998 20.5 11.3998 22.9 10.1998 25.9C9.59984 27.3 9.29984 28.9 9.19984 30.5C8.89984 35 10.1998 38.9 13.2998 42.1C14.9998 43.8 17.0998 45 19.3998 45.7C21.1998 46.2 22.9998 46.5 24.7998 46.5C25.1998 46.5 25.5998 46.6 25.7998 47.1C25.9998 47.7 25.6998 48.2 25.0998 48.3C24.5998 48.4 24.0998 48.4 23.5998 48.3C20.1998 48 16.8998 47.1 14.0998 45.1C11.8998 43.5 10.0998 41.5 8.99984 39C7.79984 36.7 7.29985 34.3 7.29985 31.9Z" fill="#C19771"/>
<path d="M80.2997 60C80.1997 56.3 79.0997 52.9 77.1997 49.7C76.7997 49.1 76.8997 48.7 77.2997 48.3C77.7997 47.9 78.1997 47.9 78.5997 48.4C79.1997 49.3 79.6997 50.1 80.0997 51.1C80.6997 52.6 81.2997 54.2 81.6997 55.8C82.2997 58.5 82.3997 61.2 81.8997 64C81.5997 65.7 81.1997 67.5 80.4997 69.1C79.5997 71.4 78.1997 73.4 76.5997 75.3C74.1997 78 71.3997 79.9 67.9997 81.2C65.1997 82.2 62.3997 82.8 59.3997 82.7C58.1997 82.7 57.0997 82.5 55.9997 82.3C53.4997 81.9 51.0997 81 48.8997 79.7C45.3997 77.6 42.5997 74.7 40.6997 71.1C39.9997 69.7 39.3997 68.3 38.8997 66.8C38.1997 64.4 37.7997 61.9 37.9997 59.4C38.1997 56.9 38.6997 54.4 39.6997 52.1C40.7997 49.5 42.2997 47.2 44.2997 45.2C46.0997 43.4 48.0997 42 50.3997 40.9C53.9997 39.2 57.7997 38.5 61.6997 38.7C63.1997 38.8 64.5997 39.2 66.0997 39.5C67.9997 39.9 69.5997 40.7 71.2997 41.7C71.4997 41.8 71.7997 42 71.9997 42.1C72.4997 42.5 72.4997 42.8 72.1997 43.3C71.8997 43.7 71.4997 43.8 70.9997 43.5C69.5997 42.8 68.1997 42.1 66.7997 41.5C63.9997 40.4 61.0997 40.2 58.1997 40.5C55.5997 40.7 53.1997 41.5 50.8997 42.7C47.5997 44.4 44.8997 46.9 42.9997 50C41.0997 53.1 40.0997 56.5 39.9997 60.1C39.9997 62.3 40.1997 64.4 40.7997 66.4C41.5997 69.1 42.8997 71.6 44.7997 73.7C46.2997 75.4 47.9997 77 49.9997 78C51.2997 78.7 52.6997 79.3 53.9997 79.8C55.5997 80.4 57.2997 80.7 59.0997 80.7C60.9997 80.7 62.8997 80.8 64.6997 80.3C67.0997 79.6 69.4997 78.7 71.5997 77.2C73.2997 76 74.8997 74.6 76.1997 72.9C76.9997 71.9 77.5997 70.8 78.1997 69.7C79.1997 67.9 79.6997 65.9 80.0997 63.8C80.1997 62.5 80.1997 61.2 80.2997 60Z" fill="#C19771"/>
<path d="M0.399902 61.4C0.499902 59.7 0.599905 57.8 0.699905 56C0.699905 55.3 0.799902 54.7 0.899902 54C1.0999 52.6 1.29991 51.1 1.59991 49.7C1.79991 48.7 1.89991 47.7 2.19991 46.8C2.79991 44.8 3.39991 42.8 3.99991 40.8C4.09991 40.5 4.19991 40.2 4.29991 39.9C4.49991 39.3 5.09991 38.9 5.59991 39.1C5.99991 39.3 6.29991 39.9 6.09991 40.5C5.79991 41.3 5.49991 42.2 5.29991 43C4.79991 44.8 4.29991 46.7 3.79991 48.5C3.09991 51.1 2.79991 53.8 2.69991 56.4C2.49991 59.9 2.3999 63.3 2.8999 66.8C3.1999 68.9 3.3999 71 3.8999 73C4.4999 75.4 5.19991 77.7 5.99991 80.1C6.39991 81.5 6.99991 82.9 7.59991 84.2C8.19991 85.6 8.99991 87 9.69991 88.4C11.1999 91.1 12.8999 93.6 14.7999 96C17.8999 100 21.3999 103.5 25.2999 106.5C27.5999 108.3 30.0999 109.8 32.6999 111.2C35.4999 112.7 38.3999 113.9 41.3999 115.1C43.7999 116.1 46.2999 116.6 48.7999 117.2C49.5999 117.4 49.8999 117.8 49.7999 118.3C49.6999 118.8 48.9999 119.1 48.2999 118.9C46.1999 118.3 43.9999 117.9 41.9999 117.2C38.1999 115.9 34.3999 114.3 30.8999 112.3C28.0999 110.6 25.2999 108.8 22.6999 106.7C20.3999 104.8 18.2999 102.8 16.2999 100.6C13.8999 97.9 11.6999 95.1 9.69991 92C7.99991 89.3 6.5999 86.5 5.3999 83.6C4.2999 80.9 3.09991 78.1 2.59991 75.2C2.29991 73.5 1.79991 71.9 1.49991 70.2C0.899908 67.3 0.699902 64.5 0.399902 61.4Z" fill="#C19771"/>
<path d="M119.8 60.5C119.6 63.4 119.5 66.3 119.2 69.2C119.1 70.7 118.7 72.1 118.4 73.6C118.3 73.9 118.3 74.2999 118.1 74.6C117.9 75.1 117.3 75.3 117 75.2C116.5 75 116.3 74.6 116.4 74C116.6 72.9 116.8 71.9 117 70.9C117.2 69.5 117.5 68.1 117.6 66.7C117.8 64.1 118 61.5 117.9 58.9C117.9 56.9 117.6 54.9 117.4 52.9C117.3 51.6 117.1 50.3 116.8 49C116.7 48.4 116.5 47.6999 116.4 47.0999C115.6 44.0999 114.7 41.2 113.5 38.3C112.5 36 111.4 33.7 110.1 31.5C108.7 29.1 107.2 26.7999 105.5 24.5999C103.8 22.2999 101.8 20.2 99.5997 18.3C97.7997 16.8 96.0997 15.2 94.1997 13.7C93.1997 12.9 92.0997 12.3 91.0997 11.7C88.9997 10.5 86.8997 9.19995 84.6997 8.09995C81.7997 6.69995 78.6997 5.59999 75.5997 4.69999C75.3997 4.69999 75.2997 4.59997 75.1997 4.49997C74.6997 4.19997 74.4997 3.79996 74.6997 3.29996C74.8997 2.89996 75.3997 2.59999 75.8997 2.69999C78.0997 3.39999 80.2997 4.1 82.3997 4.9C83.7997 5.4 85.1997 5.99999 86.4997 6.69999C89.6997 8.19999 92.6997 10.1 95.4997 12.2C99.0997 14.9 102.3 17.9 105.3 21.3C107.8 24.1 109.9 27.2 111.8 30.4C113 32.5 114.2 34.7 115.2 36.9C115.9 38.4 116.4 40 116.9 41.5999C117.8 44.5 118.5 47.4 119.1 50.3C119.7 53.6 119.9 57 119.9 60.4C119.7 60.5 119.7 60.5 119.8 60.5Z" fill="#C19771"/>
<path d="M84.7999 45.1C83.1999 45 81.4999 44.9 79.8999 44.8C79.1999 44.8 78.3999 44.7 77.6999 44.7C77.3999 44.7 76.9999 44.9 76.7999 45.1C71.5999 50.3 66.4999 55.4 61.2999 60.6C61.0999 60.8 60.8999 61 60.6999 61.2C60.1999 61.7 59.8999 61.7 59.3999 61.3C58.8999 60.8 58.8999 60.5 59.3999 59.9C60.2999 59 61.1999 58.1 62.0999 57.1C64.8999 54.3 67.6999 51.5 70.5999 48.6C72.2999 46.9 73.8999 45.2 75.5999 43.5C75.8999 43.2 75.8999 42.8 75.8999 42.4C75.7999 40.8 75.7999 39.2 75.6999 37.6C75.5999 36.6 75.4999 35.6 75.3999 34.6C75.2999 34.1 75.4999 33.7 75.8999 33.4C78.2999 31 80.6999 28.6 83.0999 26.2C83.7999 25.5 84.4999 25.7 84.6999 26.7C84.8999 27.4 84.8999 28.2 84.8999 28.9C84.9999 30.3 85.0999 31.7 85.1999 33C85.1999 33.5 85.1999 34 85.2999 34.5C85.3999 35.1 85.6999 35.3 86.2999 35.3C88.0999 35.4 89.8999 35.6 91.6999 35.7C92.2999 35.7 92.8999 35.8 93.4999 35.8C93.9999 35.8 94.3999 36 94.5999 36.4C94.7999 36.9 94.5999 37.2 94.2999 37.5C92.8999 38.9 91.3999 40.4 89.9999 41.8C89.0999 42.7 88.1999 43.6 87.2999 44.5C86.8999 44.9 86.4999 45.1 85.8999 45C85.4999 45.1 85.1999 45.1 84.7999 45.1ZM77.6999 40.2C77.6999 40.5 77.6999 40.8 77.6999 41.1C77.7999 41.4 77.8999 41.5 78.1999 41.2C78.3999 41 78.5999 40.8 78.7999 40.6C80.1999 39.2 81.6999 37.7 83.0999 36.3C83.2999 36 83.4999 35.6 83.4999 35.3C83.3999 33.4 83.1999 31.5 83.0999 29.6C83.0999 29.5 82.9999 29.4 82.8999 29.2C82.7999 29.3 82.5999 29.3 82.4999 29.4C80.9999 30.9 79.5999 32.5 77.9999 33.9C77.3999 34.5 77.1999 35.1 77.2999 35.9C77.2999 36 77.2999 36.1 77.2999 36.2C77.4999 37.5 77.5999 38.8 77.6999 40.2ZM85.4999 43.3C85.7999 43.2 85.9999 43.1 86.1999 42.9C87.7999 41.3 89.4999 39.6 91.0999 38C91.1999 37.9 91.1999 37.7 91.2999 37.6C91.1999 37.6 90.9999 37.5 90.8999 37.5C90.5999 37.5 90.2999 37.6 89.9999 37.5C88.3999 37.4 86.8999 37.3 85.2999 37.1C84.8999 37.1 84.5999 37.2 84.3999 37.5C83.9999 38 83.4999 38.4 82.9999 38.9C81.8999 40 80.6999 41.2 79.5999 42.3C79.4999 42.4 79.3999 42.6 79.3999 42.8C79.3999 42.8 79.5999 43 79.6999 43C80.2999 43.1 80.8999 43.1 81.4999 43.2C82.7999 43.1 84.1999 43.2 85.4999 43.3Z" fill="#C19771"/>
<path d="M34.0998 28.7C33.8998 29.1 33.7998 29.4 33.4998 29.6C32.2998 30.8 31.0998 31.9 29.9998 33C29.7998 33.2 29.6998 33.5 29.7998 33.8C29.9998 35.4 30.2998 36.9 30.5998 38.5C30.6998 39 30.7998 39.6 30.1998 40C29.8998 40.2 29.5998 40.3 29.2998 40.1C27.7998 39.3 26.1998 38.5 24.6998 37.7C24.2998 37.5 24.0998 37.5 23.6998 37.7C22.1998 38.5 20.6998 39.3 19.0998 40.1C18.8998 40.2 18.3998 40.1 18.2998 40C18.0998 39.7 17.8998 39.3 17.8998 39C17.8998 38.3 18.0998 37.7 18.1998 37C18.3998 36 18.5998 35 18.6998 34C18.6998 33.8 18.5998 33.4 18.3998 33.2C17.3998 32.2 16.2998 31.2 15.2998 30.2C15.1998 30.1 14.9998 29.9 14.8998 29.8C14.5998 29.5 14.2998 29.1 14.4998 28.7C14.6998 28.4 15.0998 28.1 15.4998 28C16.9998 27.7 18.5998 27.5 20.0998 27.4C20.5998 27.3 20.8998 27.1 21.0998 26.7C21.6998 25.5 22.2998 24.2 22.8998 23C22.9998 22.8 23.0998 22.5 23.1998 22.3C23.6998 21.4 24.4998 21.4 24.9998 22.3C25.4998 23.2 25.9998 24.2 26.3998 25.2C26.6998 25.7 26.8998 26.2 27.0998 26.7C27.2998 27.1 27.5998 27.3 27.9998 27.3C29.4998 27.5 30.9998 27.7 32.4998 27.9C32.6998 27.9 32.9998 28 33.1998 28.1C33.6998 28.2 33.7998 28.5 34.0998 28.7ZM24.2998 35.4C24.4998 35.5 24.6998 35.5 24.7998 35.6C25.7998 36.1 26.7998 36.7 27.7998 37.2C27.8998 37.3 28.0998 37.3 28.2998 37.3C28.2998 37.1 28.2998 37 28.2998 36.8C28.0998 35.8 27.9998 34.9 27.7998 33.9C27.5998 33 27.8998 32.5 28.4998 32C29.1998 31.4 29.8998 30.6 30.5998 30C30.7998 29.8 30.8998 29.6 30.3998 29.5C29.2998 29.4 28.2998 29.2 27.1998 29.1C26.4998 29 26.0998 28.7 25.8998 28.2C25.3998 27.3 24.9998 26.3 24.5998 25.4C24.4998 25.2 24.3998 25.1 24.2998 25C24.1998 25.2 23.9998 25.3 23.8998 25.5C23.3998 26.4 22.9998 27.4 22.4998 28.3C22.2998 28.6 21.9998 29 21.6998 29C20.5998 29.2 19.3998 29.3 18.2998 29.5C18.0998 29.5 17.8998 29.6 17.6998 29.7C17.7998 29.9 17.8998 30.1 17.9998 30.2C18.7998 30.9 19.4998 31.7 20.2998 32.4C20.6998 32.8 20.8998 33.2 20.6998 33.8C20.3998 34.9 20.2998 36 20.0998 37.1C20.0998 37.2 20.0998 37.4 20.1998 37.5C20.1998 37.5 20.3998 37.5 20.4998 37.5C21.5998 36.9 22.5998 36.3 23.6998 35.7C23.8998 35.5 24.0998 35.4 24.2998 35.4Z" fill="#C19771"/>
<path d="M70.0997 59.7C70.0997 64 68.4997 66.8 65.4997 68.9C63.6997 70.1 61.6997 70.7 59.4997 70.5C55.9997 70.3 53.2997 68.6 51.3997 65.7C49.9997 63.4 49.5997 60.9 50.1997 58.3C50.5997 56.4 51.5997 54.8 52.7997 53.4C53.6997 52.4 54.7997 51.7 55.9997 51.2C58.2997 50.2 60.5997 50.1 62.9997 50.8C63.1997 50.9 63.3997 50.9 63.6997 51C64.0997 51.2 64.4997 51.4 64.2997 52C64.0997 52.7 63.7997 52.9 63.0997 52.8C62.8997 52.8 62.5997 52.7 62.3997 52.6C60.7997 52 59.1997 52.1 57.5997 52.6C55.5997 53.2 54.0997 54.4 52.9997 56.1C52.1997 57.5 51.6997 59 51.7997 60.7C51.8997 62.5 52.3997 64 53.3997 65.3C54.6997 67.1 56.4997 68.1 58.5997 68.5C61.1997 69 63.4997 68.2 65.4997 66.5C67.2997 65 68.0997 62.9 68.2997 60.6C68.2997 59.7 67.9997 58.8 67.8997 57.9C67.8997 57.7 67.7997 57.4 67.6997 57.2C67.5997 56.6 67.8997 56.2 68.3997 56.1C68.7997 56 69.2997 56.2 69.3997 56.8C69.6997 58 69.9997 59.2 70.0997 59.7Z" fill="#C19771"/>
<path d="M7.99976 62.1C7.69976 58.8 8.09976 55.7 8.49976 52.6C8.69976 51 9.19976 49.5 9.49976 47.9C9.59976 47.5 9.69976 47.1 9.69976 46.8C9.79976 46.2 10.2998 45.7 10.7998 45.8C11.3998 45.9 11.6998 46.4 11.4998 47.1C11.1998 48.4 10.8998 49.7 10.6998 51C10.3998 52.4 10.1998 53.7 9.99976 55.1C9.49976 58.3 9.59977 61.5 9.79977 64.7C9.79977 65.1 9.89976 65.6 9.89976 66C10.3998 69.2 10.8998 72.5 11.8998 75.6C13.7998 81.8 16.7998 87.3 20.7998 92.3C20.7998 92.4 20.8998 92.4 20.8998 92.5C21.3998 93.1 21.3998 93.4 20.6998 93.9C20.1998 94.3 19.7998 94.2 19.3998 93.6C18.2998 92 17.0998 90.5 15.9998 88.9C14.3998 86.5 12.9998 83.9 11.8998 81.2C10.4998 78 9.49976 74.8 8.89976 71.4C8.49976 68.1 7.79976 65.1 7.99976 62.1Z" fill="#C19771"/>
<path d="M112.4 60.3C112.4 63.4 112 66.5 111.5 69.6C111.3 71.1 110.9 72.5 110.5 74C110.5 74.2 110.4 74.4 110.3 74.6C110.1 75.1 109.7 75.4 109.3 75.3C108.7 75.1 108.4 74.6 108.5 74C108.7 72.9 108.9 71.8 109.2 70.8C109.8 68.5 110.1 66.2 110.2 63.8C110.3 61 110.4 58.1 110 55.3C109.8 53.9 109.7 52.5 109.4 51.2C109.2 50.3 109 49.3 108.8 48.4C108.2 46.4 107.6 44.3 106.9 42.3C106.6 41.3 106 40.3 105.6 39.3C104.6 36.9 103.1 34.7 101.8 32.5C101.6 32.1 101.3 31.7 101.7 31.3C102.2 30.8 102.8 30.7 103.2 31.4C104.5 33.6 105.8 35.7 107 38C107.6 39 108 40.1 108.4 41.2C108.9 42.4 109.2 43.5 109.6 44.7C110.6 47.7 111.3 50.8 111.7 53.9C112.1 55.9 112.2 58.1 112.4 60.3Z" fill="#C19771"/>
<path d="M99.0998 26C98.7998 26.3 98.5998 26.6 98.2998 26.8C98.1998 26.9 97.7998 26.8 97.5998 26.6C97.0998 26.2 96.6998 25.7 96.1998 25.3C95.3998 24.5 94.5998 23.8 93.8998 23C93.5998 22.7 93.5998 22.3 93.8998 22C94.3998 21.4 94.6998 21.3 95.1998 21.8C96.4998 23 97.6998 24.3 98.8998 25.5C98.8998 25.6 98.8998 25.7 99.0998 26Z" fill="#C19771"/>
<path d="M26.0999 97.9C26.1999 97.9 26.3999 98 26.4999 98.1C27.7999 99.2 29.0999 100.2 30.3999 101.3C30.6999 101.6 30.7999 101.9 30.5999 102.3C30.2999 102.9 29.6999 103.1 29.2999 102.7C27.9999 101.6 26.6999 100.6 25.3999 99.4C24.8999 99 25.1999 98.2 25.7999 98C25.7999 97.9 25.8999 97.9 26.0999 97.9Z" fill="#C19771"/>
<path d="M63.8999 0.900024C65.0999 1.00002 66.3999 1.09999 67.5999 1.29999C68.4999 1.39999 68.7999 2.09999 68.3999 2.79999C68.1999 3.19999 67.7999 3.20001 67.3999 3.20001C66.5999 3.10001 65.6999 3.00002 64.8999 2.90002C64.3999 2.80002 63.8999 2.89999 63.3999 2.79999C62.5999 2.69999 62.2999 2.29999 62.3999 1.79999C62.4999 1.29999 62.8999 1 63.5999 1C63.6999 0.9 63.6999 0.900024 63.8999 0.900024Z" fill="#C19771"/>
<path d="M59.1999 120.1C58.4999 120.1 57.7999 120.1 57.0999 120.1C56.1999 120.1 55.8999 119.8 55.8999 119.1C55.8999 118.6 56.5999 118.2 57.1999 118.2C58.3999 118.3 59.5999 118.3 60.8999 118.3C61.0999 118.3 61.3999 118.3 61.5999 118.3C62.1999 118.4 62.4999 118.7 62.3999 119.3C62.3999 119.8 62.1999 120 61.4999 120C60.7999 120.1 59.9999 120.1 59.1999 120.1Z" fill="#C19771"/>
</svg>
