<svg width="14" height="17" viewBox="0 0 14 17" fill="none" xmlns="http://www.w3.org/2000/svg">
<path d="M10.9999 13.3V7C10.9999 6 10.5999 5 9.8999 4.3C9.1999 3.6 8.19989 3.2 7.19989 3.2C6.19989 3.2 5.19988 3.6 4.49988 4.3C3.79988 5 3.3999 6 3.3999 7V13.3H10.9999ZM7.09985 15.5C7.59985 15.5 7.99988 15.1 7.99988 14.6H6.19989C6.19989 15.1 6.59985 15.5 7.09985 15.5ZM1.49988 13.3H1.8999V7C1.8999 4.4 3.7999 2.2 6.3999 1.9V1.2C6.3999 0.800001 6.69985 0.5 7.09985 0.5C7.49985 0.5 7.79987 0.800001 7.79987 1.2V1.9C10.2999 2.3 12.2999 4.4 12.2999 7V13.3H12.6999C12.9999 13.3 13.2999 13.6 13.2999 13.9V14.5C13.2999 14.6 13.1999 14.6 13.1999 14.6H9.19989C9.19989 15.7 8.29985 16.7 7.09985 16.7C5.99985 16.7 4.99988 15.8 4.99988 14.6H0.999878C0.899878 14.6 0.899902 14.5 0.899902 14.5V13.9C0.899902 13.5 1.19988 13.3 1.49988 13.3Z" fill="#6B7A8C"/>
</svg>
