<svg width="194" height="138" viewBox="0 0 194 138" fill="none" xmlns="http://www.w3.org/2000/svg">
<path d="M95.1998 37.8L94.7998 37.4C93.4998 36.1 91.2998 36.1 89.8998 37.4C88.5998 38.7 88.5998 40.9 89.8998 42.3L90.2998 42.7C91.2998 42.1 92.1998 41.4 92.9998 40.6C93.8998 39.7 94.5998 38.8 95.1998 37.8Z" fill="#C19771"/>
<path d="M98.8998 46.3C88.4998 56.7 71.4998 56.7 61.0998 46.3C50.6998 35.9 50.6998 18.9 61.0998 8.49998C71.4998 -1.90002 88.4998 -1.90002 98.8998 8.49998C109.3 18.9 109.3 35.9 98.8998 46.3ZM65.5998 13C57.6998 20.9 57.6998 33.8 65.5998 41.8C73.4998 49.7 86.3998 49.7 94.3998 41.8C102.3 33.9 102.3 21 94.3998 13C86.4998 4.99998 73.4998 5.09998 65.5998 13Z" fill="#C19771"/>
<path d="M123 62.7L115.5 70.2C115.2 70.5 114.6 70.5 114.3 70.2L112.8 68.7C112.5 68.4 112.5 67.8 112.8 67.5L120.3 60C120.6 59.7 121.2 59.7 121.5 60L123 61.5C123.3 61.9 123.3 62.4 123 62.7Z" fill="#C19771"/>
<path d="M135.9 75.6L128.4 83.1C128.1 83.4 127.5 83.4 127.2 83.1L125.7 81.6C125.4 81.3 125.4 80.7 125.7 80.4L133.2 72.9C133.5 72.6 134.1 72.6 134.4 72.9L135.9 74.4C136.2 74.8 136.2 75.3 135.9 75.6Z" fill="#C19771"/>
<path d="M102.757 45.0381L97.8076 49.9878L113.222 65.4025L118.172 60.4528L102.757 45.0381Z" fill="#C19771"/>
<path d="M122.627 64.8899L117.678 69.8396L126.163 78.3248L131.113 73.3751L122.627 64.8899Z" fill="#C19771"/>
<path d="M133.7 63.7L135.2 65.2L133.9 66.5L132.3 65L130.8 66.5L129.5 65.2L131 63.7L129.5 62.1L130.8 60.8L132.3 62.4L134.8 59.9L131.3 56.4L123.9 63.9L132.1 72.1L139.6 64.7L136.1 61.2L133.7 63.7Z" fill="#C19771"/>
<path d="M63.0996 10.6C60.8996 12.8 57.1996 12.8 54.9996 10.6C52.7996 8.39997 52.7996 4.69998 54.9996 2.49998C57.1996 0.299976 60.8996 0.299976 63.0996 2.49998C65.3996 4.69998 65.3996 8.39997 63.0996 10.6ZM57.2996 4.79998C56.2996 5.79998 56.2996 7.39998 57.2996 8.39998C58.2996 9.39998 59.8996 9.39998 60.8996 8.39998C61.8996 7.39998 61.8996 5.79998 60.8996 4.79998C59.8996 3.79998 58.2996 3.79998 57.2996 4.79998Z" fill="#C19771"/>
<path d="M40.1999 137.9H34.4999C33.6999 137.9 32.8999 137.8 32.2999 137.6C31.5999 137.4 30.9999 137 30.4999 136.4L24.9999 130.3C24.0999 130.5 23.1999 130.7 22.2999 130.8C21.3999 130.9 20.3999 131 19.3999 131C16.5999 131 13.9999 130.5 11.6999 129.6C9.39992 128.6 7.39992 127.3 5.69992 125.6C3.99992 123.9 2.6999 121.9 1.7999 119.5C0.899896 117.2 0.399902 114.6 0.399902 111.9C0.399902 109.2 0.899896 106.6 1.7999 104.3C2.6999 102 3.99992 99.9 5.69992 98.2C7.39992 96.5 9.39992 95.2 11.6999 94.2C13.9999 93.2 16.5999 92.8 19.3999 92.8C21.2999 92.8 23.0999 93 24.7999 93.5C26.4999 93.9 27.9999 94.6 29.3999 95.4C30.7999 96.2 32.0999 97.2 33.1999 98.3C34.2999 99.4 35.2999 100.7 35.9999 102.1C36.7999 103.5 37.3999 105.1 37.7999 106.7C38.1999 108.4 38.3999 110.1 38.3999 111.9C38.3999 113.6 38.1999 115.2 37.8999 116.7C37.5999 118.2 37.0999 119.7 36.3999 121C35.7999 122.3 34.9999 123.5 33.9999 124.7C33.0999 125.8 31.9999 126.8 30.7999 127.6L40.1999 137.9ZM7.49991 111.9C7.49991 114 7.7999 115.8 8.2999 117.4C8.8999 119 9.59992 120.4 10.6999 121.5C11.6999 122.6 12.9999 123.5 14.3999 124.1C15.8999 124.7 17.4999 125 19.2999 125C21.0999 125 22.7999 124.7 24.1999 124.1C25.6999 123.5 26.8999 122.6 27.8999 121.5C28.8999 120.4 29.6999 119 30.2999 117.4C30.8999 115.8 31.0999 113.9 31.0999 111.9C31.0999 109.8 30.7999 108 30.2999 106.4C29.6999 104.8 28.9999 103.4 27.8999 102.2C26.8999 101.1 25.5999 100.2 24.1999 99.6C22.6999 99 21.0999 98.7 19.2999 98.7C17.4999 98.7 15.7999 99 14.3999 99.6C12.8999 100.2 11.6999 101.1 10.6999 102.2C9.69992 103.3 8.8999 104.7 8.2999 106.4C7.6999 108 7.49991 109.9 7.49991 111.9Z" fill="#1B232A"/>
<path d="M66.2998 104.1V130.7H62.3998C61.5998 130.7 60.9998 130.3 60.7998 129.5L60.3998 127.4C59.2998 128.5 58.0998 129.4 56.7998 130.1C55.4998 130.8 53.8998 131.1 52.1998 131.1C50.7998 131.1 49.4998 130.9 48.3998 130.4C47.2998 129.9 46.3998 129.2 45.5998 128.3C44.7998 127.4 44.2998 126.3 43.8998 125.1C43.4998 123.9 43.2998 122.5 43.2998 121V104.1H49.6998V121C49.6998 122.6 50.0998 123.9 50.7998 124.8C51.5998 125.7 52.6998 126.1 54.1998 126.1C55.2998 126.1 56.2998 125.9 57.2998 125.4C58.2998 124.9 59.1998 124.2 59.9998 123.4V104.2H66.2998V104.1Z" fill="#1B232A"/>
<path d="M71.6998 107.8C74.7998 105 78.3998 103.6 82.6998 103.6C84.2998 103.6 85.5998 103.9 86.8998 104.4C88.0998 104.9 89.1998 105.6 89.9998 106.5C90.7998 107.4 91.4998 108.5 91.8998 109.7C92.2998 111 92.5998 112.3 92.5998 113.8V130.6H89.6998C89.0998 130.6 88.5998 130.5 88.2998 130.3C87.9998 130.1 87.6998 129.8 87.4998 129.2L86.8998 127.3C86.1998 127.9 85.5998 128.4 84.8998 128.9C84.2998 129.4 83.5998 129.7 82.8998 130.1C82.1998 130.4 81.4998 130.6 80.6998 130.8C79.8998 131 78.9998 131 78.0998 131C76.9998 131 75.8998 130.8 74.9998 130.5C74.0998 130.2 73.1998 129.7 72.4998 129.1C71.7998 128.5 71.2998 127.7 70.8998 126.8C70.4998 125.9 70.2998 124.9 70.2998 123.7C70.2998 123 70.3998 122.4 70.5998 121.7C70.7998 121 71.1998 120.4 71.6998 119.8C72.1998 119.2 72.8998 118.6 73.6998 118.1C74.4998 117.6 75.4998 117.1 76.6998 116.7C77.8998 116.3 79.2998 116 80.7998 115.7C82.3998 115.4 84.1998 115.3 86.1998 115.2V113.6C86.1998 111.8 85.7998 110.5 85.0998 109.7C84.2998 108.8 83.1998 108.4 81.7998 108.4C80.7998 108.4 79.8998 108.5 79.1998 108.8C78.4998 109 77.8998 109.3 77.3998 109.6C76.8998 109.9 76.3998 110.2 75.9998 110.4C75.5998 110.6 75.0998 110.8 74.5998 110.8C74.1998 110.8 73.7998 110.7 73.4998 110.4C73.1998 110.1 72.8998 109.9 72.6998 109.6L71.6998 107.8ZM86.3998 119.3C84.5998 119.4 82.9998 119.5 81.6998 119.8C80.3998 120 79.3998 120.3 78.6998 120.7C77.8998 121.1 77.3998 121.5 77.0998 122C76.7998 122.5 76.5998 123 76.5998 123.6C76.5998 124.7 76.8998 125.5 77.5998 126C78.2998 126.5 79.0998 126.7 80.1998 126.7C81.4998 126.7 82.5998 126.5 83.5998 126C84.5998 125.5 85.4998 124.8 86.3998 123.8V119.3Z" fill="#1B232A"/>
<path d="M104.5 108.7C105.3 107.1 106.3 105.9 107.5 105C108.6 104.1 110 103.6 111.5 103.6C112.7 103.6 113.7 103.9 114.5 104.4L114.1 109.2C114 109.5 113.9 109.7 113.7 109.9C113.5 110 113.3 110.1 113 110.1C112.7 110.1 112.4 110.1 111.8 110C111.3 109.9 110.8 109.9 110.3 109.9C109.6 109.9 109 110 108.4 110.2C107.8 110.4 107.4 110.7 106.9 111.1C106.5 111.5 106.1 112 105.7 112.5C105.4 113.1 105 113.7 104.8 114.4V130.8H98.3999V104.2H102.2C102.9 104.2 103.3 104.3 103.6 104.6C103.9 104.8 104 105.3 104.1 105.9L104.5 108.7Z" fill="#1B232A"/>
<path d="M127.6 131C125.3 131 123.5 130.3 122.3 129C121.1 127.7 120.5 125.9 120.5 123.6V108.8H117.8C117.5 108.8 117.2 108.7 116.9 108.5C116.7 108.3 116.5 107.9 116.5 107.5V105L120.8 104.3L122.1 97.1C122.2 96.8 122.3 96.5 122.6 96.3C122.8 96.1 123.2 96 123.5 96H126.8V104.4H133.9V109H126.8V123.4C126.8 124.2 127 124.9 127.4 125.3C127.8 125.8 128.4 126 129.1 126C129.5 126 129.8 126 130.1 125.9C130.4 125.8 130.6 125.7 130.8 125.6C131 125.5 131.2 125.4 131.3 125.3C131.5 125.2 131.6 125.2 131.8 125.2C132 125.2 132.1 125.2 132.3 125.3C132.4 125.4 132.5 125.5 132.7 125.7L134.6 128.8C133.7 129.6 132.6 130.2 131.4 130.6C130.2 130.8 128.9 131 127.6 131Z" fill="#1B232A"/>
<path d="M145.2 96.3C145.2 96.9 145.1 97.4 144.9 97.9C144.7 98.4 144.4 98.8 144 99.2C143.6 99.6 143.2 99.9 142.7 100.1C142.2 100.3 141.7 100.4 141.1 100.4C140.5 100.4 140 100.3 139.5 100.1C139 99.9 138.6 99.6 138.2 99.2C137.8 98.8 137.5 98.4 137.3 97.9C137.1 97.4 137 96.9 137 96.3C137 95.7 137.1 95.2 137.3 94.7C137.5 94.2 137.8 93.8 138.2 93.4C138.6 93 139 92.7 139.5 92.5C140 92.3 140.5 92.2 141.1 92.2C141.7 92.2 142.2 92.3 142.7 92.5C143.2 92.7 143.6 93 144 93.4C144.4 93.8 144.7 94.2 144.9 94.7C145.1 95.2 145.2 95.8 145.2 96.3ZM144.3 104.1V130.7H137.9V104.1H144.3Z" fill="#1B232A"/>
<path d="M155.3 118.1C155.4 119.5 155.6 120.6 156 121.6C156.4 122.6 156.9 123.4 157.5 124.1C158.1 124.7 158.9 125.2 159.7 125.6C160.6 125.9 161.5 126.1 162.5 126.1C163.5 126.1 164.4 126 165.2 125.7C165.9 125.5 166.6 125.2 167.2 124.9C167.8 124.6 168.3 124.3 168.7 124.1C169.1 123.9 169.5 123.7 169.9 123.7C170.4 123.7 170.8 123.9 171.1 124.3L172.9 126.6C172.2 127.4 171.4 128.1 170.5 128.7C169.6 129.3 168.7 129.7 167.7 130C166.7 130.3 165.8 130.6 164.8 130.7C163.8 130.8 162.8 130.9 161.9 130.9C160.1 130.9 158.3 130.6 156.7 130C155.1 129.4 153.7 128.5 152.6 127.3C151.4 126.1 150.5 124.6 149.8 122.8C149.1 121 148.8 119 148.8 116.7C148.8 114.9 149.1 113.2 149.7 111.6C150.3 110 151.1 108.6 152.2 107.4C153.3 106.2 154.6 105.3 156.2 104.6C157.8 103.9 159.6 103.6 161.5 103.6C163.2 103.6 164.7 103.9 166.1 104.4C167.5 104.9 168.7 105.7 169.8 106.7C170.8 107.7 171.6 109 172.2 110.5C172.8 112 173.1 113.7 173.1 115.6C173.1 116.6 173 117.2 172.8 117.6C172.6 117.9 172.2 118.1 171.6 118.1H155.3ZM167.5 114.3C167.5 113.5 167.4 112.7 167.2 112C167 111.3 166.6 110.6 166.2 110.1C165.7 109.5 165.1 109.1 164.4 108.8C163.7 108.5 162.8 108.3 161.9 108.3C160.1 108.3 158.6 108.8 157.5 109.9C156.4 111 155.8 112.4 155.5 114.4H167.5V114.3Z" fill="#1B232A"/>
<path d="M183.9 108.7C184.7 107.1 185.7 105.9 186.9 105C188 104.1 189.4 103.6 190.9 103.6C192.1 103.6 193.1 103.9 193.9 104.4L193.5 109.2C193.4 109.5 193.3 109.7 193.1 109.9C192.9 110 192.7 110.1 192.4 110.1C192.1 110.1 191.8 110.1 191.2 110C190.7 109.9 190.2 109.9 189.7 109.9C189 109.9 188.4 110 187.8 110.2C187.2 110.4 186.8 110.7 186.3 111.1C185.9 111.5 185.5 112 185.1 112.5C184.8 113.1 184.4 113.7 184.2 114.4V130.8H177.8V104.2H181.6C182.3 104.2 182.7 104.3 183 104.6C183.3 104.8 183.4 105.3 183.5 105.9L183.9 108.7Z" fill="#1B232A"/>
</svg>
