<svg width="20" height="15" viewBox="0 0 20 15" fill="none" xmlns="http://www.w3.org/2000/svg">
<path d="M19.0999 9.00007C18.9999 8.60007 18.7999 8.30002 18.4999 8.20002C18.1999 8.00002 17.7999 8.00002 17.3999 8.20002C16.9999 8.40002 16.4999 8.50002 16.0999 8.70002C15.4999 8.90002 14.9999 9.10012 14.3999 9.30012C14.2999 9.30012 14.0999 9.40012 13.8999 9.30012C12.7999 8.90012 11.7999 8.50007 10.6999 8.00007C9.49992 7.50007 8.19991 7.00007 6.99991 6.50007C6.79991 6.40007 6.49991 6.50007 6.29991 6.50007C5.89991 6.70007 5.49991 6.80007 5.09991 7.00007C4.99991 7.00007 4.89991 7.10002 4.79991 7.20002C4.79991 7.00002 4.69991 6.90012 4.69991 6.80012C4.49991 6.60012 4.29991 6.60005 3.99991 6.60005C2.89991 6.60005 1.8999 6.60005 0.899902 6.60005C0.699902 6.60005 0.599908 6.60002 0.499908 6.70002C0.399908 6.80002 0.399902 6.90005 0.399902 7.10005C0.399902 9.10005 0.399902 10.9 0.399902 12.6C0.399902 12.8 0.399908 12.9001 0.499908 13.0001C0.599908 13.1001 0.799908 13.1 0.999908 13.1C1.19991 13.1 1.49991 13.1 1.69991 13.1C1.99991 13.1 2.39991 13.1 2.69991 13.1C2.79991 13.1 2.99991 13.0001 3.09991 12.9001L3.19991 12.8001L3.3999 12.7L3.19991 12.6L3.09991 12.5001C2.99991 12.4001 2.89991 12.3001 2.69991 12.3001C2.29991 12.3001 1.99991 12.3001 1.59991 12.3001H1.29991C1.19991 12.3001 1.19991 12.3001 1.09991 12.3001V12.2C1.09991 11.6 1.09991 11.0001 1.09991 10.4001C1.09991 9.4001 1.09991 8.50007 1.09991 7.50007C1.09991 7.50007 1.19991 7.40012 1.19991 7.30012C1.99991 7.30012 2.69991 7.30012 3.49991 7.30012H4.09991V10.2C4.09991 11 4.09991 11.8 4.09991 12.6C4.09991 12.7 4.19991 12.8001 4.29991 12.9001L4.3999 13.0001L4.49991 13.1L4.69991 12.9001C4.79991 12.8001 4.7999 12.7 4.8999 12.6C4.8999 12.5 4.8999 12.5001 4.8999 12.4001C4.8999 12.2001 4.89991 12.0001 4.99991 12.0001C5.09991 12.0001 5.2999 12.0001 5.3999 12.0001C5.4999 12.0001 5.59991 12.1 5.69991 12.1L7.09991 12.6C8.39991 13.1 9.6999 13.5001 10.8999 14.0001C11.0999 14.1001 11.1999 14.1 11.3999 14.1C11.5999 14.1 11.7999 14.0001 11.9999 13.9001C12.2999 13.7001 12.5999 13.6001 12.7999 13.4001C12.8999 13.3001 13.0999 13.3 13.1999 13.2L14.4999 12.4001C15.7999 11.6001 17.1999 10.8 18.4999 10.1C18.9999 10 19.2999 9.50007 19.0999 9.00007ZM13.8999 10.3001C13.8999 10.5001 13.7999 10.7 13.2999 10.7H13.1999C11.7999 10.9 10.2999 10.6001 8.69992 9.80012H8.59991C8.49991 9.70012 8.39992 9.70002 8.19992 9.70002C8.09992 9.70002 7.79991 9.8001 7.79991 9.9001C7.69991 10.1001 7.8999 10.3001 7.8999 10.4001C7.9999 10.5001 8.09992 10.5001 8.19992 10.5001C8.19992 10.5001 8.1999 10.5001 8.2999 10.5001C8.3999 10.5001 8.49991 10.6 8.59991 10.6C8.79991 10.7 8.99992 10.7001 9.19992 10.8001C10.5999 11.5001 11.9999 11.5001 13.3999 11.5001C13.8999 11.5001 14.1999 11.3 14.4999 11.1C14.6999 10.9 14.7999 10.5001 14.7999 10.0001L15.7999 9.60005C16.4999 9.30005 17.2999 9.10012 17.9999 8.80012C18.2999 8.70012 18.3999 8.80007 18.4999 9.00007C18.5999 9.10007 18.5999 9.30007 18.2999 9.50007C16.9999 10.2001 15.6999 11 14.4999 11.7L13.8999 12.0001C13.1999 12.4001 12.3999 12.9001 11.6999 13.3001C11.5999 13.4001 11.3999 13.4001 11.1999 13.3001C10.3999 13.0001 9.49992 12.7001 8.69992 12.4001C7.89992 12.1001 7.09991 11.8001 6.19991 11.5001C5.89991 11.4001 5.49991 11.4001 5.19991 11.3001C4.99991 11.3001 4.8999 11.3001 4.8999 11.0001C4.8999 10.5001 4.8999 10.1 4.8999 9.60005C4.8999 9.10005 4.8999 8.60005 4.8999 8.10005C4.8999 8.00005 4.99991 7.90012 5.09991 7.80012C5.69991 7.40012 6.2999 7.20002 6.8999 7.20002C7.3999 7.20002 7.99991 7.30005 8.59991 7.60005C9.69991 8.10005 10.7999 8.5001 11.8999 8.9001C12.3999 9.1001 12.8999 9.30007 13.4999 9.50007C13.6999 9.90007 13.8999 10.0001 13.8999 10.3001Z" fill="#C19771"/>
<path d="M13.9999 7.50006C14.9999 7.50006 15.7999 7.10006 16.4999 6.50006C17.1999 5.80006 17.5999 4.90006 17.5999 4.00006C17.5999 3.00006 17.1999 2.10009 16.4999 1.40009C15.7999 0.700085 14.8999 0.400085 13.9999 0.400085C11.9999 0.400085 10.3999 2.00006 10.3999 4.00006C10.3999 5.80006 11.9999 7.40006 13.9999 7.50006ZM11.1999 3.80011C11.1999 2.30011 12.4999 1.00006 13.9999 1.00006C15.4999 1.00006 16.6999 2.30011 16.6999 3.80011C16.6999 4.50011 16.3999 5.20011 15.8999 5.80011C15.3999 6.30011 14.6999 6.60004 13.8999 6.60004C13.1999 6.60004 12.4999 6.30011 11.8999 5.80011C11.4999 5.30011 11.1999 4.60011 11.1999 3.80011Z" fill="#C19771"/>
</svg>
